ComicNeue_Light.ufo
<glyph name="quotedbl" format="1">
  <advance width="303"/>
  <unicode hex="0022"/>
  <outline>
    <contour>
      <point x="93" y="521" type="curve" smooth="yes"/>
      <point x="82" y="521"/>
      <point x="74" y="529"/>
      <point x="74" y="540" type="curve" smooth="yes"/>
      <point x="74" y="679" type="line" smooth="yes"/>
      <point x="74" y="690"/>
      <point x="82" y="698"/>
      <point x="93" y="698" type="curve" smooth="yes"/>
      <point x="103" y="698"/>
      <point x="112" y="690"/>
      <point x="112" y="679" type="curve" smooth="yes"/>
      <point x="112" y="540" type="line" smooth="yes"/>
      <point x="112" y="529"/>
      <point x="103" y="521"/>
    </contour>
    <contour>
      <point x="217" y="521" type="curve" smooth="yes"/>
      <point x="206" y="521"/>
      <point x="198" y="529"/>
      <point x="198" y="540" type="curve" smooth="yes"/>
      <point x="198" y="679" type="line" smooth="yes"/>
      <point x="198" y="690"/>
      <point x="206" y="698"/>
      <point x="217" y="698" type="curve" smooth="yes"/>
      <point x="227" y="698"/>
      <point x="236" y="690"/>
      <point x="236" y="679" type="curve" smooth="yes"/>
      <point x="236" y="540" type="line" smooth="yes"/>
      <point x="236" y="529"/>
      <point x="227" y="521"/>
    </contour>
  </outline>
</glyph>
<glyph name="dollar" format="1">
  <advance width="594"/>
  <unicode hex="0024"/>
  <outline>
    <contour>
      <point x="110" y="154" type="curve"/>
      <point x="136" y="80"/>
      <point x="216" y="43"/>
      <point x="294" y="34" type="curve"/>
      <point x="294" y="349" type="line"/>
      <point x="200" y="379"/>
      <point x="103" y="431"/>
      <point x="103" y="521" type="curve" smooth="yes"/>
      <point x="103" y="633"/>
      <point x="201" y="679"/>
      <point x="294" y="687" type="curve"/>
      <point x="294" y="743" type="line" smooth="yes"/>
      <point x="294" y="753"/>
      <point x="302" y="762"/>
      <point x="312" y="762" type="curve" smooth="yes"/>
      <point x="322" y="762"/>
      <point x="330" y="753"/>
      <point x="330" y="743" type="curve" smooth="yes"/>
      <point x="330" y="688" type="line"/>
      <point x="422" y="688"/>
      <point x="540" y="654"/>
      <point x="540" y="554" type="curve" smooth="yes"/>
      <point x="540" y="546"/>
      <point x="533" y="539"/>
      <point x="523" y="539" type="curve" smooth="yes"/>
      <point x="513" y="539"/>
      <point x="504" y="546"/>
      <point x="503" y="554" type="curve" smooth="yes"/>
      <point x="488" y="637"/>
      <point x="380" y="658"/>
      <point x="330" y="658" type="curve"/>
      <point x="330" y="380" type="line"/>
      <point x="467" y="341"/>
      <point x="542" y="275"/>
      <point x="542" y="189" type="curve" smooth="yes"/>
      <point x="542" y="83"/>
      <point x="455" y="16"/>
      <point x="330" y="0" type="curve"/>
      <point x="330" y="-58" type="line" smooth="yes"/>
      <point x="330" y="-69"/>
      <point x="322" y="-77"/>
      <point x="312" y="-77" type="curve" smooth="yes"/>
      <point x="302" y="-77"/>
      <point x="294" y="-69"/>
      <point x="294" y="-58" type="curve" smooth="yes"/>
      <point x="294" y="-1" type="line"/>
      <point x="186" y="7"/>
      <point x="98" y="61"/>
      <point x="68" y="142" type="curve" smooth="yes"/>
      <point x="67" y="146"/>
      <point x="66" y="150"/>
      <point x="66" y="154" type="curve" smooth="yes"/>
      <point x="66" y="160"/>
      <point x="74" y="172"/>
      <point x="88" y="172" type="curve" smooth="yes"/>
      <point x="97" y="172"/>
      <point x="105" y="165"/>
    </contour>
    <contour>
      <point x="148" y="518" type="curve" smooth="yes"/>
      <point x="148" y="467"/>
      <point x="197" y="425"/>
      <point x="294" y="391" type="curve"/>
      <point x="294" y="655" type="line"/>
      <point x="173" y="638"/>
      <point x="148" y="573"/>
    </contour>
    <contour>
      <point x="330" y="339" type="curve"/>
      <point x="330" y="34" type="line"/>
      <point x="408" y="41"/>
      <point x="498" y="83"/>
      <point x="498" y="195" type="curve" smooth="yes"/>
      <point x="498" y="226"/>
      <point x="487" y="289"/>
    </contour>
  </outline>
</glyph>
<glyph name="ampersand" format="1">
  <advance width="650"/>
  <unicode hex="0026"/>
  <outline>
    <contour>
      <point x="497" y="270" type="curve" smooth="yes"/>
      <point x="503" y="290"/>
      <point x="506" y="296"/>
      <point x="519" y="296" type="curve" smooth="yes"/>
      <point x="528" y="296"/>
      <point x="535" y="289"/>
      <point x="535" y="279" type="curve" smooth="yes"/>
      <point x="535" y="278"/>
      <point x="534" y="273"/>
      <point x="531" y="262" type="curve" smooth="yes"/>
      <point x="520" y="223"/>
      <point x="505" y="185"/>
      <point x="488" y="154" type="curve"/>
      <point x="592" y="29" type="line" smooth="yes"/>
      <point x="595" y="25"/>
      <point x="597" y="22"/>
      <point x="597" y="18" type="curve" smooth="yes"/>
      <point x="597" y="8"/>
      <point x="588" y="0"/>
      <point x="579" y="0" type="curve" smooth="yes"/>
      <point x="574" y="0"/>
      <point x="569" y="2"/>
      <point x="565" y="6" type="curve" smooth="yes"/>
      <point x="468" y="121" type="line"/>
      <point x="384" y="3"/>
      <point x="288" y="-4"/>
      <point x="263" y="-4" type="curve" smooth="yes"/>
      <point x="167" y="-4"/>
      <point x="62" y="66"/>
      <point x="62" y="178" type="curve" smooth="yes"/>
      <point x="62" y="292"/>
      <point x="150" y="345"/>
      <point x="238" y="393" type="curve"/>
      <point x="205" y="431"/>
      <point x="153" y="498"/>
      <point x="153" y="561" type="curve" smooth="yes"/>
      <point x="153" y="634"/>
      <point x="222" y="698"/>
      <point x="296" y="698" type="curve" smooth="yes"/>
      <point x="370" y="698"/>
      <point x="438" y="633"/>
      <point x="438" y="564" type="curve" smooth="yes"/>
      <point x="438" y="485"/>
      <point x="392" y="438"/>
      <point x="294" y="385" type="curve"/>
      <point x="463" y="183" type="line"/>
      <point x="482" y="219"/>
      <point x="488" y="243"/>
    </contour>
    <contour>
      <point x="188" y="561" type="curve" smooth="yes"/>
      <point x="188" y="507"/>
      <point x="238" y="444"/>
      <point x="271" y="412" type="curve"/>
      <point x="403" y="477"/>
      <point x="404" y="522"/>
      <point x="404" y="562" type="curve" smooth="yes"/>
      <point x="404" y="612"/>
      <point x="351" y="663"/>
      <point x="296" y="663" type="curve" smooth="yes"/>
      <point x="246" y="663"/>
      <point x="188" y="619"/>
    </contour>
    <contour>
      <point x="263" y="31" type="curve" smooth="yes"/>
      <point x="286" y="31"/>
      <point x="372" y="39"/>
      <point x="445" y="150" type="curve"/>
      <point x="263" y="368" type="line"/>
      <point x="170" y="319"/>
      <point x="98" y="278"/>
      <point x="98" y="178" type="curve" smooth="yes"/>
      <point x="98" y="77"/>
      <point x="197" y="31"/>
    </contour>
  </outline>
</glyph>
<glyph name="parenleft" format="1">
  <advance width="359"/>
  <unicode hex="0028"/>
  <outline>
    <contour>
      <point x="247" y="-104" type="curve" smooth="yes"/>
      <point x="212" y="-62"/>
      <point x="69" y="109"/>
      <point x="69" y="355" type="curve" smooth="yes"/>
      <point x="69" y="522"/>
      <point x="151" y="687"/>
      <point x="262" y="798" type="curve" smooth="yes"/>
      <point x="266" y="802"/>
      <point x="273" y="808"/>
      <point x="279" y="808" type="curve" smooth="yes"/>
      <point x="289" y="808"/>
      <point x="297" y="799"/>
      <point x="297" y="789" type="curve" smooth="yes"/>
      <point x="297" y="784"/>
      <point x="295" y="779"/>
      <point x="291" y="775" type="curve" smooth="yes"/>
      <point x="287" y="771"/>
      <point x="107" y="612"/>
      <point x="107" y="355" type="curve" smooth="yes"/>
      <point x="107" y="97"/>
      <point x="274" y="-77"/>
      <point x="277" y="-80" type="curve" smooth="yes"/>
      <point x="281" y="-84"/>
      <point x="283" y="-90"/>
      <point x="283" y="-95" type="curve" smooth="yes"/>
      <point x="283" y="-104"/>
      <point x="274" y="-113"/>
      <point x="265" y="-113" type="curve" smooth="yes"/>
      <point x="258" y="-113"/>
      <point x="251" y="-108"/>
    </contour>
  </outline>
</glyph>
<glyph name="plus" format="1">
  <advance width="433"/>
  <unicode hex="002B"/>
  <outline>
    <contour>
      <point x="368" y="233" type="curve" smooth="yes"/>
      <point x="238" y="233" type="line"/>
      <point x="238" y="106" type="line" smooth="yes"/>
      <point x="238" y="97"/>
      <point x="230" y="89"/>
      <point x="221" y="89" type="curve" smooth="yes"/>
      <point x="211" y="89"/>
      <point x="203" y="97"/>
      <point x="203" y="106" type="curve" smooth="yes"/>
      <point x="203" y="233" type="line"/>
      <point x="75" y="233" type="line" smooth="yes"/>
      <point x="65" y="233"/>
      <point x="57" y="242"/>
      <point x="57" y="251" type="curve" smooth="yes"/>
      <point x="57" y="261"/>
      <point x="65" y="269"/>
      <point x="75" y="269" type="curve" smooth="yes"/>
      <point x="203" y="269" type="line"/>
      <point x="203" y="386" type="line" smooth="yes"/>
      <point x="203" y="395"/>
      <point x="211" y="403"/>
      <point x="221" y="403" type="curve" smooth="yes"/>
      <point x="230" y="403"/>
      <point x="238" y="395"/>
      <point x="238" y="386" type="curve" smooth="yes"/>
      <point x="238" y="269" type="line"/>
      <point x="368" y="269" type="line" smooth="yes"/>
      <point x="377" y="269"/>
      <point x="385" y="261"/>
      <point x="385" y="251" type="curve" smooth="yes"/>
      <point x="385" y="242"/>
      <point x="377" y="233"/>
    </contour>
  </outline>
</glyph>
<glyph name="hyphen" format="1">
  <advance width="431"/>
  <unicode hex="002D"/>
  <outline>
    <contour>
      <point x="350" y="232" type="curve" smooth="yes"/>
      <point x="92" y="232" type="line" smooth="yes"/>
      <point x="83" y="232"/>
      <point x="75" y="241"/>
      <point x="75" y="250" type="curve" smooth="yes"/>
      <point x="75" y="259"/>
      <point x="83" y="268"/>
      <point x="92" y="268" type="curve" smooth="yes"/>
      <point x="350" y="268" type="line" smooth="yes"/>
      <point x="359" y="268"/>
      <point x="368" y="259"/>
      <point x="368" y="250" type="curve" smooth="yes"/>
      <point x="368" y="241"/>
      <point x="359" y="232"/>
    </contour>
  </outline>
</glyph>
<glyph name="one" format="1">
  <advance width="394"/>
  <unicode hex="0031"/>
  <outline>
    <contour>
      <point x="227" y="38" type="line"/>
      <point x="312" y="38" type="line" smooth="yes"/>
      <point x="325" y="38"/>
      <point x="333" y="29"/>
      <point x="333" y="19" type="curve" smooth="yes"/>
      <point x="333" y="8"/>
      <point x="324" y="0"/>
      <point x="314" y="0" type="curve" smooth="yes"/>
      <point x="87" y="0" type="line" smooth="yes"/>
      <point x="76" y="0"/>
      <point x="68" y="8"/>
      <point x="68" y="19" type="curve" smooth="yes"/>
      <point x="68" y="29"/>
      <point x="76" y="38"/>
      <point x="87" y="38" type="curve" smooth="yes"/>
      <point x="190" y="38" type="line"/>
      <point x="198" y="620" type="line"/>
      <point x="98" y="512" type="line" smooth="yes"/>
      <point x="94" y="507"/>
      <point x="89" y="505"/>
      <point x="84" y="505" type="curve" smooth="yes"/>
      <point x="73" y="505"/>
      <point x="65" y="514"/>
      <point x="65" y="524" type="curve" smooth="yes"/>
      <point x="65" y="528"/>
      <point x="67" y="534"/>
      <point x="70" y="537" type="curve" smooth="yes"/>
      <point x="203" y="681" type="line" smooth="yes"/>
      <point x="207" y="686"/>
      <point x="213" y="688"/>
      <point x="217" y="688" type="curve" smooth="yes"/>
      <point x="228" y="688"/>
      <point x="237" y="677"/>
      <point x="237" y="669" type="curve" smooth="yes"/>
    </contour>
  </outline>
</glyph>
<glyph name="four" format="1">
  <advance width="498"/>
  <unicode hex="0034"/>
  <outline>
    <contour>
      <point x="62" y="206" type="curve" smooth="yes"/>
      <point x="351" y="684" type="line" smooth="yes"/>
      <point x="354" y="689"/>
      <point x="359" y="692"/>
      <point x="365" y="692" type="curve" smooth="yes"/>
      <point x="376" y="692"/>
      <point x="386" y="684"/>
      <point x="386" y="673" type="curve" smooth="yes"/>
      <point x="386" y="209" type="line"/>
      <point x="431" y="208" type="line" smooth="yes"/>
      <point x="443" y="208"/>
      <point x="450" y="200"/>
      <point x="450" y="190" type="curve" smooth="yes"/>
      <point x="450" y="179"/>
      <point x="442" y="171"/>
      <point x="431" y="171" type="curve" smooth="yes"/>
      <point x="386" y="172" type="line"/>
      <point x="386" y="18" type="line" smooth="yes"/>
      <point x="386" y="7"/>
      <point x="377" y="-1"/>
      <point x="367" y="-1" type="curve" smooth="yes"/>
      <point x="356" y="-1"/>
      <point x="348" y="7"/>
      <point x="348" y="18" type="curve" smooth="yes"/>
      <point x="348" y="173" type="line"/>
      <point x="73" y="177" type="line" smooth="yes"/>
      <point x="61" y="177"/>
      <point x="57" y="186"/>
      <point x="57" y="192" type="curve" smooth="yes"/>
      <point x="57" y="197"/>
      <point x="59" y="200"/>
    </contour>
    <contour>
      <point x="348" y="606" type="line"/>
      <point x="110" y="214" type="line"/>
      <point x="348" y="210" type="line"/>
    </contour>
  </outline>
</glyph>
<glyph name="five" format="1">
  <advance width="549"/>
  <unicode hex="0035"/>
  <outline>
    <contour>
      <point x="106" y="122" type="curve" smooth="yes"/>
      <point x="145" y="66"/>
      <point x="193" y="34"/>
      <point x="267" y="34" type="curve" smooth="yes"/>
      <point x="367" y="34"/>
      <point x="457" y="135"/>
      <point x="457" y="253" type="curve" smooth="yes"/>
      <point x="457" y="348"/>
      <point x="405" y="445"/>
      <point x="288" y="445" type="curve" smooth="yes"/>
      <point x="197" y="445"/>
      <point x="142" y="386"/>
      <point x="132" y="375" type="curve" smooth="yes"/>
      <point x="126" y="369"/>
      <point x="121" y="367"/>
      <point x="116" y="367" type="curve" smooth="yes"/>
      <point x="103" y="367"/>
      <point x="95" y="378"/>
      <point x="96" y="390" type="curve" smooth="yes"/>
      <point x="125" y="664" type="line" smooth="yes"/>
      <point x="126" y="673"/>
      <point x="134" y="680"/>
      <point x="143" y="680" type="curve" smooth="yes"/>
      <point x="447" y="680" type="line" smooth="yes"/>
      <point x="457" y="680"/>
      <point x="465" y="672"/>
      <point x="465" y="662" type="curve" smooth="yes"/>
      <point x="465" y="651"/>
      <point x="457" y="643"/>
      <point x="447" y="643" type="curve" smooth="yes"/>
      <point x="160" y="643" type="line"/>
      <point x="139" y="433" type="line"/>
      <point x="180" y="457"/>
      <point x="233" y="482"/>
      <point x="288" y="482" type="curve" smooth="yes"/>
      <point x="406" y="482"/>
      <point x="494" y="391"/>
      <point x="494" y="253" type="curve" smooth="yes"/>
      <point x="494" y="113"/>
      <point x="386" y="-3"/>
      <point x="267" y="-3" type="curve" smooth="yes"/>
      <point x="155" y="-3"/>
      <point x="86" y="74"/>
      <point x="71" y="104" type="curve" smooth="yes"/>
      <point x="70" y="107"/>
      <point x="69" y="110"/>
      <point x="69" y="115" type="curve" smooth="yes"/>
      <point x="69" y="125"/>
      <point x="78" y="133"/>
      <point x="88" y="133" type="curve" smooth="yes"/>
      <point x="97" y="133"/>
      <point x="101" y="129"/>
    </contour>
  </outline>
</glyph>
<glyph name="six" format="1">
  <advance width="536"/>
  <unicode hex="0036"/>
  <outline>
    <contour>
      <point x="102" y="326" type="curve"/>
      <point x="98" y="301"/>
      <point x="97" y="274"/>
      <point x="97" y="247" type="curve" smooth="yes"/>
      <point x="97" y="69"/>
      <point x="196" y="31"/>
      <point x="280" y="31" type="curve" smooth="yes"/>
      <point x="327" y="31"/>
      <point x="446" y="69"/>
      <point x="446" y="242" type="curve" smooth="yes"/>
      <point x="446" y="395"/>
      <point x="327" y="407"/>
      <point x="290" y="407" type="curve" smooth="yes"/>
      <point x="184" y="406"/>
      <point x="121" y="347"/>
    </contour>
    <contour>
      <point x="335" y="685" type="curve" smooth="yes"/>
      <point x="341" y="688"/>
      <point x="345" y="689"/>
      <point x="350" y="689" type="curve" smooth="yes"/>
      <point x="359" y="689"/>
      <point x="367" y="681"/>
      <point x="367" y="672" type="curve" smooth="yes"/>
      <point x="367" y="665"/>
      <point x="362" y="659"/>
      <point x="357" y="656" type="curve" smooth="yes"/>
      <point x="252" y="605"/>
      <point x="155" y="501"/>
      <point x="111" y="377" type="curve"/>
      <point x="154" y="413"/>
      <point x="227" y="442"/>
      <point x="290" y="442" type="curve" smooth="yes"/>
      <point x="395" y="442"/>
      <point x="479" y="373"/>
      <point x="479" y="242" type="curve" smooth="yes"/>
      <point x="479" y="40"/>
      <point x="333" y="-3"/>
      <point x="280" y="-3" type="curve" smooth="yes"/>
      <point x="175" y="-3"/>
      <point x="63" y="57"/>
      <point x="63" y="247" type="curve" smooth="yes"/>
      <point x="63" y="545"/>
      <point x="288" y="661"/>
    </contour>
  </outline>
</glyph>
<glyph name="seven" format="1">
  <advance width="491"/>
  <unicode hex="0037"/>
  <outline>
    <contour>
      <point x="477" y="649" type="curve" smooth="yes"/>
      <point x="155" y="10" type="line" smooth="yes"/>
      <point x="152" y="4"/>
      <point x="145" y="1"/>
      <point x="138" y="1" type="curve" smooth="yes"/>
      <point x="128" y="1"/>
      <point x="120" y="9"/>
      <point x="120" y="20" type="curve" smooth="yes"/>
      <point x="120" y="23"/>
      <point x="121" y="26"/>
      <point x="122" y="28" type="curve" smooth="yes"/>
      <point x="430" y="640" type="line"/>
      <point x="85" y="640" type="line" smooth="yes"/>
      <point x="75" y="640"/>
      <point x="66" y="648"/>
      <point x="66" y="659" type="curve" smooth="yes"/>
      <point x="66" y="669"/>
      <point x="75" y="677"/>
      <point x="85" y="677" type="curve" smooth="yes"/>
      <point x="460" y="677" type="line" smooth="yes"/>
      <point x="471" y="677"/>
      <point x="479" y="668"/>
      <point x="479" y="658" type="curve" smooth="yes"/>
      <point x="479" y="654"/>
      <point x="478" y="652"/>
    </contour>
  </outline>
</glyph>
<glyph name="eight" format="1">
  <advance width="537"/>
  <unicode hex="0038"/>
  <outline>
    <contour>
      <point x="273" y="-3" type="curve" smooth="yes"/>
      <point x="154" y="-3"/>
      <point x="68" y="73"/>
      <point x="68" y="176" type="curve"/>
      <point x="72" y="280"/>
      <point x="153" y="337"/>
      <point x="227" y="373" type="curve"/>
      <point x="161" y="402"/>
      <point x="103" y="447"/>
      <point x="103" y="521" type="curve" smooth="yes"/>
      <point x="103" y="629"/>
      <point x="186" y="694"/>
      <point x="284" y="694" type="curve" smooth="yes"/>
      <point x="386" y="694"/>
      <point x="459" y="629"/>
      <point x="459" y="538" type="curve" smooth="yes"/>
      <point x="459" y="461"/>
      <point x="397" y="413"/>
      <point x="332" y="380" type="curve"/>
      <point x="423" y="334"/>
      <point x="477" y="265"/>
      <point x="477" y="187" type="curve" smooth="yes"/>
      <point x="477" y="78"/>
      <point x="390" y="-3"/>
    </contour>
    <contour>
      <point x="286" y="357" type="curve"/>
      <point x="203" y="322"/>
      <point x="105" y="286"/>
      <point x="105" y="170" type="curve" smooth="yes"/>
      <point x="105" y="90"/>
      <point x="179" y="33"/>
      <point x="273" y="33" type="curve" smooth="yes"/>
      <point x="352" y="33"/>
      <point x="442" y="80"/>
      <point x="442" y="183" type="curve" smooth="yes"/>
      <point x="442" y="277"/>
      <point x="363" y="333"/>
    </contour>
    <contour>
      <point x="285" y="656" type="curve" smooth="yes"/>
      <point x="225" y="656"/>
      <point x="138" y="624"/>
      <point x="138" y="525" type="curve" smooth="yes"/>
      <point x="138" y="462"/>
      <point x="179" y="424"/>
      <point x="279" y="396" type="curve"/>
      <point x="398" y="442"/>
      <point x="423" y="490"/>
      <point x="423" y="544" type="curve" smooth="yes"/>
      <point x="423" y="614"/>
      <point x="362" y="656"/>
    </contour>
  </outline>
</glyph>
<glyph name="semicolon" format="1">
  <advance width="261"/>
  <unicode hex="003B"/>
  <outline>
    <contour>
      <point x="167" y="373" type="curve" smooth="yes"/>
      <point x="153" y="373"/>
      <point x="144" y="387"/>
      <point x="144" y="402" type="curve" smooth="yes"/>
      <point x="144" y="421"/>
      <point x="159" y="439"/>
      <point x="175" y="439" type="curve" smooth="yes"/>
      <point x="188" y="439"/>
      <point x="198" y="426"/>
      <point x="198" y="412" type="curve" smooth="yes"/>
      <point x="198" y="391"/>
      <point x="184" y="373"/>
    </contour>
    <contour>
      <point x="94" y="-76" type="curve" smooth="yes"/>
      <point x="121" y="-5" type="line"/>
      <point x="112" y="3"/>
      <point x="107" y="14"/>
      <point x="107" y="23" type="curve" smooth="yes"/>
      <point x="107" y="43"/>
      <point x="122" y="59"/>
      <point x="138" y="59" type="curve" smooth="yes"/>
      <point x="151" y="59"/>
      <point x="161" y="47"/>
      <point x="161" y="36" type="curve" smooth="yes"/>
      <point x="161" y="18"/>
      <point x="158" y="11"/>
      <point x="143" y="-27" type="curve" smooth="yes"/>
      <point x="127" y="-67"/>
      <point x="116" y="-96"/>
      <point x="105" y="-96" type="curve" smooth="yes"/>
      <point x="98" y="-96"/>
      <point x="92" y="-91"/>
      <point x="92" y="-86" type="curve" smooth="yes"/>
      <point x="92" y="-83"/>
      <point x="92" y="-81"/>
    </contour>
  </outline>
</glyph>
<glyph name="less" format="1">
  <advance width="530"/>
  <unicode hex="003C"/>
  <outline>
    <contour>
      <point x="413" y="13" type="curve" smooth="yes"/>
      <point x="82" y="231" type="line" smooth="yes"/>
      <point x="76" y="235"/>
      <point x="73" y="240"/>
      <point x="73" y="248" type="curve" smooth="yes"/>
      <point x="73" y="254"/>
      <point x="77" y="260"/>
      <point x="83" y="264" type="curve" smooth="yes"/>
      <point x="435" y="489" type="line" smooth="yes"/>
      <point x="440" y="492"/>
      <point x="444" y="492"/>
      <point x="446" y="492" type="curve" smooth="yes"/>
      <point x="456" y="492"/>
      <point x="465" y="482"/>
      <point x="465" y="472" type="curve" smooth="yes"/>
      <point x="465" y="466"/>
      <point x="462" y="460"/>
      <point x="456" y="456" type="curve" smooth="yes"/>
      <point x="128" y="247" type="line"/>
      <point x="435" y="44" type="line" smooth="yes"/>
      <point x="441" y="40"/>
      <point x="445" y="33"/>
      <point x="445" y="27" type="curve" smooth="yes"/>
      <point x="445" y="17"/>
      <point x="436" y="8"/>
      <point x="426" y="8" type="curve" smooth="yes"/>
      <point x="423" y="8"/>
      <point x="420" y="9"/>
    </contour>
  </outline>
</glyph>
<glyph name="equal" format="1">
  <advance width="483"/>
  <unicode hex="003D"/>
  <outline>
    <contour>
      <point x="396" y="312" type="curve" smooth="yes"/>
      <point x="98" y="312" type="line" smooth="yes"/>
      <point x="89" y="312"/>
      <point x="80" y="320"/>
      <point x="80" y="329" type="curve" smooth="yes"/>
      <point x="80" y="340"/>
      <point x="89" y="348"/>
      <point x="98" y="348" type="curve" smooth="yes"/>
      <point x="396" y="348" type="line" smooth="yes"/>
      <point x="407" y="348"/>
      <point x="415" y="340"/>
      <point x="415" y="329" type="curve" smooth="yes"/>
      <point x="415" y="320"/>
      <point x="407" y="312"/>
    </contour>
    <contour>
      <point x="396" y="151" type="curve" smooth="yes"/>
      <point x="98" y="151" type="line" smooth="yes"/>
      <point x="89" y="151"/>
      <point x="80" y="159"/>
      <point x="80" y="169" type="curve" smooth="yes"/>
      <point x="80" y="179"/>
      <point x="89" y="188"/>
      <point x="98" y="188" type="curve" smooth="yes"/>
      <point x="396" y="188" type="line" smooth="yes"/>
      <point x="407" y="188"/>
      <point x="415" y="179"/>
      <point x="415" y="169" type="curve" smooth="yes"/>
      <point x="415" y="159"/>
      <point x="407" y="151"/>
    </contour>
  </outline>
</glyph>
<glyph name="question" format="1">
  <advance width="523"/>
  <unicode hex="003F"/>
  <outline>
    <contour>
      <point x="328" y="296" type="curve" smooth="yes"/>
      <point x="206" y="188" type="line" smooth="yes"/>
      <point x="202" y="185"/>
      <point x="198" y="182"/>
      <point x="194" y="182" type="curve" smooth="yes"/>
      <point x="184" y="182"/>
      <point x="176" y="191"/>
      <point x="176" y="200" type="curve" smooth="yes"/>
      <point x="176" y="205"/>
      <point x="178" y="209"/>
      <point x="182" y="213" type="curve" smooth="yes"/>
      <point x="308" y="326" type="line" smooth="yes"/>
      <point x="372" y="383"/>
      <point x="430" y="437"/>
      <point x="430" y="516" type="curve" smooth="yes"/>
      <point x="430" y="597"/>
      <point x="381" y="685"/>
      <point x="245" y="685" type="curve" smooth="yes"/>
      <point x="171" y="685"/>
      <point x="124" y="640"/>
      <point x="92" y="603" type="curve" smooth="yes"/>
      <point x="90" y="601"/>
      <point x="86" y="598"/>
      <point x="80" y="598" type="curve" smooth="yes"/>
      <point x="70" y="598"/>
      <point x="62" y="606"/>
      <point x="62" y="614" type="curve" smooth="yes"/>
      <point x="62" y="623"/>
      <point x="71" y="634"/>
      <point x="81" y="645" type="curve" smooth="yes"/>
      <point x="113" y="680"/>
      <point x="169" y="720"/>
      <point x="245" y="720" type="curve" smooth="yes"/>
      <point x="376" y="720"/>
      <point x="465" y="638"/>
      <point x="465" y="516" type="curve" smooth="yes"/>
      <point x="465" y="405"/>
      <point x="380" y="342"/>
    </contour>
    <contour>
      <point x="158" y="0" type="curve" smooth="yes"/>
      <point x="145" y="0"/>
      <point x="135" y="14"/>
      <point x="135" y="29" type="curve" smooth="yes"/>
      <point x="135" y="48"/>
      <point x="150" y="66"/>
      <point x="167" y="66" type="curve" smooth="yes"/>
      <point x="179" y="66"/>
      <point x="190" y="53"/>
      <point x="190" y="39" type="curve" smooth="yes"/>
      <point x="190" y="18"/>
      <point x="175" y="0"/>
    </contour>
  </outline>
</glyph>
<glyph name="at" format="1">
  <advance width="818"/>
  <unicode hex="0040"/>
  <outline>
    <contour>
      <point x="623" y="-3" type="curve" smooth="yes"/>
      <point x="631" y="2"/>
      <point x="634" y="4"/>
      <point x="639" y="4" type="curve" smooth="yes"/>
      <point x="648" y="4"/>
      <point x="656" y="-4"/>
      <point x="656" y="-14" type="curve" smooth="yes"/>
      <point x="656" y="-20"/>
      <point x="652" y="-25"/>
      <point x="643" y="-32" type="curve" smooth="yes"/>
      <point x="601" y="-60"/>
      <point x="522" y="-98"/>
      <point x="426" y="-98" type="curve" smooth="yes"/>
      <point x="237" y="-98"/>
      <point x="68" y="53"/>
      <point x="68" y="253" type="curve" smooth="yes"/>
      <point x="68" y="465"/>
      <point x="224" y="623"/>
      <point x="435" y="623" type="curve" smooth="yes"/>
      <point x="624" y="623"/>
      <point x="773" y="478"/>
      <point x="773" y="288" type="curve" smooth="yes"/>
      <point x="773" y="113"/>
      <point x="648" y="99"/>
      <point x="616" y="99" type="curve" smooth="yes"/>
      <point x="534" y="99"/>
      <point x="491" y="142"/>
      <point x="475" y="198" type="curve"/>
      <point x="442" y="154"/>
      <point x="398" y="114"/>
      <point x="350" y="114" type="curve" smooth="yes"/>
      <point x="289" y="114"/>
      <point x="239" y="154"/>
      <point x="239" y="238" type="curve" smooth="yes"/>
      <point x="239" y="336"/>
      <point x="312" y="426"/>
      <point x="406" y="426" type="curve" smooth="yes"/>
      <point x="436" y="426"/>
      <point x="469" y="417"/>
      <point x="497" y="399" type="curve" smooth="yes"/>
      <point x="509" y="391"/>
      <point x="515" y="385"/>
      <point x="515" y="378" type="curve" smooth="yes"/>
      <point x="515" y="369"/>
      <point x="506" y="361"/>
      <point x="496" y="361" type="curve" smooth="yes"/>
      <point x="493" y="361"/>
      <point x="489" y="362"/>
      <point x="480" y="367" type="curve" smooth="yes"/>
      <point x="455" y="382"/>
      <point x="430" y="392"/>
      <point x="407" y="392" type="curve" smooth="yes"/>
      <point x="331" y="392"/>
      <point x="275" y="317"/>
      <point x="275" y="238" type="curve" smooth="yes"/>
      <point x="275" y="174"/>
      <point x="309" y="148"/>
      <point x="350" y="148" type="curve" smooth="yes"/>
      <point x="413" y="148"/>
      <point x="468" y="250"/>
      <point x="482" y="287" type="curve" smooth="yes"/>
      <point x="485" y="295"/>
      <point x="492" y="298"/>
      <point x="500" y="298" type="curve" smooth="yes"/>
      <point x="509" y="298"/>
      <point x="517" y="290"/>
      <point x="517" y="280" type="curve" smooth="yes"/>
      <point x="517" y="275"/>
      <point x="516" y="271"/>
      <point x="514" y="265" type="curve" smooth="yes"/>
      <point x="511" y="256"/>
      <point x="508" y="247"/>
      <point x="508" y="227" type="curve" smooth="yes"/>
      <point x="508" y="176"/>
      <point x="544" y="135"/>
      <point x="619" y="134" type="curve" smooth="yes"/>
      <point x="651" y="134"/>
      <point x="738" y="148"/>
      <point x="738" y="288" type="curve" smooth="yes"/>
      <point x="738" y="437"/>
      <point x="634" y="588"/>
      <point x="435" y="588" type="curve" smooth="yes"/>
      <point x="270" y="588"/>
      <point x="103" y="473"/>
      <point x="103" y="253" type="curve" smooth="yes"/>
      <point x="103" y="46"/>
      <point x="291" y="-64"/>
      <point x="426" y="-64" type="curve" smooth="yes"/>
      <point x="516" y="-64"/>
      <point x="585" y="-28"/>
    </contour>
  </outline>
</glyph>
<glyph name="E" format="1">
  <advance width="600"/>
  <unicode hex="0045"/>
  <outline>
    <contour>
      <point x="106" y="38" type="line"/>
      <point x="526" y="38" type="line" smooth="yes"/>
      <point x="536" y="38"/>
      <point x="545" y="30"/>
      <point x="545" y="20" type="curve" smooth="yes"/>
      <point x="545" y="9"/>
      <point x="536" y="0"/>
      <point x="526" y="0" type="curve" smooth="yes"/>
      <point x="87" y="0" type="line" smooth="yes"/>
      <point x="77" y="0"/>
      <point x="68" y="9"/>
      <point x="68" y="20" type="curve" smooth="yes"/>
      <point x="68" y="664" type="line" smooth="yes"/>
      <point x="68" y="674"/>
      <point x="77" y="682"/>
      <point x="87" y="682" type="curve" smooth="yes"/>
      <point x="528" y="682" type="line" smooth="yes"/>
      <point x="538" y="682"/>
      <point x="547" y="674"/>
      <point x="547" y="664" type="curve" smooth="yes"/>
      <point x="547" y="653"/>
      <point x="538" y="644"/>
      <point x="528" y="644" type="curve" smooth="yes"/>
      <point x="106" y="644" type="line"/>
      <point x="106" y="372" type="line"/>
      <point x="478" y="372" type="line" smooth="yes"/>
      <point x="488" y="372"/>
      <point x="496" y="364"/>
      <point x="496" y="353" type="curve" smooth="yes"/>
      <point x="496" y="343"/>
      <point x="488" y="334"/>
      <point x="478" y="334" type="curve" smooth="yes"/>
      <point x="106" y="334" type="line"/>
    </contour>
  </outline>
</glyph>
<glyph name="F" format="1">
  <advance width="535"/>
  <unicode hex="0046"/>
  <outline>
    <contour>
      <point x="101" y="333" type="line"/>
      <point x="101" y="19" type="line" smooth="yes"/>
      <point x="101" y="8"/>
      <point x="92" y="-1"/>
      <point x="82" y="-1" type="curve" smooth="yes"/>
      <point x="72" y="-1"/>
      <point x="63" y="8"/>
      <point x="63" y="19" type="curve" smooth="yes"/>
      <point x="63" y="661" type="line" smooth="yes"/>
      <point x="63" y="672"/>
      <point x="72" y="681"/>
      <point x="82" y="681" type="curve" smooth="yes"/>
      <point x="523" y="681" type="line" smooth="yes"/>
      <point x="533" y="681"/>
      <point x="542" y="672"/>
      <point x="542" y="661" type="curve" smooth="yes"/>
      <point x="542" y="651"/>
      <point x="533" y="643"/>
      <point x="523" y="643" type="curve" smooth="yes"/>
      <point x="101" y="643" type="line"/>
      <point x="101" y="371" type="line"/>
      <point x="431" y="371" type="line" smooth="yes"/>
      <point x="442" y="371"/>
      <point x="450" y="362"/>
      <point x="450" y="351" type="curve" smooth="yes"/>
      <point x="450" y="341"/>
      <point x="442" y="333"/>
      <point x="431" y="333" type="curve" smooth="yes"/>
    </contour>
  </outline>
</glyph>
<glyph name="L" format="1">
  <advance width="467"/>
  <unicode hex="004C"/>
  <outline>
    <contour>
      <point x="443" y="25" type="curve" smooth="yes"/>
      <point x="87" y="0" type="line" smooth="yes"/>
      <point x="77" y="-1"/>
      <point x="68" y="7"/>
      <point x="68" y="19" type="curve" smooth="yes"/>
      <point x="68" y="662" type="line" smooth="yes"/>
      <point x="68" y="673"/>
      <point x="76" y="681"/>
      <point x="87" y="681" type="curve" smooth="yes"/>
      <point x="97" y="681"/>
      <point x="105" y="673"/>
      <point x="105" y="662" type="curve" smooth="yes"/>
      <point x="105" y="38" type="line"/>
      <point x="441" y="62" type="line" smooth="yes"/>
      <point x="452" y="63"/>
      <point x="461" y="54"/>
      <point x="461" y="43" type="curve" smooth="yes"/>
      <point x="461" y="34"/>
      <point x="454" y="26"/>
    </contour>
  </outline>
</glyph>
<glyph name="N" format="1">
  <advance width="609"/>
  <unicode hex="004E"/>
  <outline>
    <contour>
      <point x="517" y="7" type="curve" smooth="yes"/>
      <point x="106" y="603" type="line"/>
      <point x="105" y="19" type="line" smooth="yes"/>
      <point x="105" y="8"/>
      <point x="96" y="0"/>
      <point x="86" y="0" type="curve" smooth="yes"/>
      <point x="76" y="0"/>
      <point x="68" y="8"/>
      <point x="68" y="19" type="curve" smooth="yes"/>
      <point x="69" y="662" type="line" smooth="yes"/>
      <point x="69" y="673"/>
      <point x="76" y="681"/>
      <point x="86" y="681" type="curve" smooth="yes"/>
      <point x="94" y="681"/>
      <point x="100" y="678"/>
      <point x="105" y="670" type="curve" smooth="yes"/>
      <point x="514" y="77" type="line"/>
      <point x="514" y="664" type="line" smooth="yes"/>
      <point x="514" y="674"/>
      <point x="522" y="682"/>
      <point x="532" y="682" type="curve" smooth="yes"/>
      <point x="543" y="682"/>
      <point x="551" y="674"/>
      <point x="551" y="664" type="curve" smooth="yes"/>
      <point x="551" y="19" type="line" smooth="yes"/>
      <point x="551" y="8"/>
      <point x="543" y="0"/>
      <point x="532" y="0" type="curve" smooth="yes"/>
      <point x="525" y="0"/>
      <point x="520" y="2"/>
    </contour>
  </outline>
</glyph>
<glyph name="O" format="1">
  <advance width="650"/>
  <unicode hex="004F"/>
  <outline>
    <contour>
      <point x="308" y="-2" type="curve" smooth="yes"/>
      <point x="464" y="-2"/>
      <point x="598" y="167"/>
      <point x="598" y="368" type="curve" smooth="yes"/>
      <point x="598" y="540"/>
      <point x="494" y="682"/>
      <point x="352" y="682" type="curve" smooth="yes"/>
      <point x="196" y="682"/>
      <point x="62" y="513"/>
      <point x="62" y="312" type="curve" smooth="yes"/>
      <point x="62" y="142"/>
      <point x="165" y="-2"/>
    </contour>
    <contour>
      <point x="308" y="31" type="curve" smooth="yes"/>
      <point x="185" y="31"/>
      <point x="96" y="159"/>
      <point x="96" y="312" type="curve" smooth="yes"/>
      <point x="96" y="500"/>
      <point x="213" y="649"/>
      <point x="344" y="649" type="curve" smooth="yes"/>
      <point x="473" y="649"/>
      <point x="564" y="508"/>
      <point x="564" y="364" type="curve" smooth="yes"/>
      <point x="564" y="183"/>
      <point x="440" y="31"/>
    </contour>
  </outline>
</glyph>
<glyph name="P" format="1">
  <advance width="537"/>
  <unicode hex="0050"/>
  <outline>
    <contour>
      <point x="86" y="0" type="curve" smooth="yes"/>
      <point x="76" y="0"/>
      <point x="68" y="8"/>
      <point x="68" y="19" type="curve" smooth="yes"/>
      <point x="68" y="650" type="line" smooth="yes"/>
      <point x="68" y="674"/>
      <point x="70" y="682"/>
      <point x="139" y="682" type="curve" smooth="yes"/>
      <point x="391" y="682"/>
      <point x="513" y="610"/>
      <point x="513" y="481" type="curve" smooth="yes"/>
      <point x="513" y="298"/>
      <point x="249" y="246"/>
      <point x="105" y="246" type="curve"/>
      <point x="105" y="19" type="line" smooth="yes"/>
      <point x="105" y="8"/>
      <point x="97" y="0"/>
    </contour>
    <contour>
      <point x="105" y="643" type="curve"/>
      <point x="105" y="283" type="line"/>
      <point x="199" y="283"/>
      <point x="476" y="312"/>
      <point x="476" y="481" type="curve" smooth="yes"/>
      <point x="476" y="586"/>
      <point x="360" y="645"/>
      <point x="156" y="645" type="curve" smooth="yes"/>
      <point x="143" y="645"/>
      <point x="123" y="645"/>
    </contour>
  </outline>
</glyph>
<glyph name="Q" format="1">
  <advance width="704"/>
  <unicode hex="0051"/>
  <outline>
    <contour>
      <point x="540" y="83" type="curve"/>
      <point x="655" y="9" type="line" smooth="yes"/>
      <point x="661" y="5"/>
      <point x="663" y="-1"/>
      <point x="663" y="-7" type="curve" smooth="yes"/>
      <point x="663" y="-19"/>
      <point x="653" y="-25"/>
      <point x="644" y="-25" type="curve" smooth="yes"/>
      <point x="641" y="-25"/>
      <point x="638" y="-25"/>
      <point x="633" y="-22" type="curve" smooth="yes"/>
      <point x="510" y="60" type="line"/>
      <point x="455" y="21"/>
      <point x="393" y="-2"/>
      <point x="333" y="-2" type="curve" smooth="yes"/>
      <point x="170" y="-2"/>
      <point x="52" y="141"/>
      <point x="52" y="310" type="curve" smooth="yes"/>
      <point x="52" y="512"/>
      <point x="205" y="680"/>
      <point x="381" y="680" type="curve" smooth="yes"/>
      <point x="543" y="680"/>
      <point x="661" y="537"/>
      <point x="661" y="367" type="curve" smooth="yes"/>
      <point x="661" y="261"/>
      <point x="614" y="158"/>
    </contour>
    <contour>
      <point x="333" y="33" type="curve" smooth="yes"/>
      <point x="378" y="33"/>
      <point x="427" y="50"/>
      <point x="477" y="81" type="curve"/>
      <point x="383" y="143" type="line" smooth="yes"/>
      <point x="378" y="146"/>
      <point x="375" y="152"/>
      <point x="375" y="159" type="curve" smooth="yes"/>
      <point x="375" y="169"/>
      <point x="383" y="177"/>
      <point x="392" y="177" type="curve" smooth="yes"/>
      <point x="396" y="177"/>
      <point x="401" y="176"/>
      <point x="404" y="174" type="curve" smooth="yes"/>
      <point x="508" y="105" type="line"/>
      <point x="573" y="169"/>
      <point x="619" y="264"/>
      <point x="619" y="364" type="curve" smooth="yes"/>
      <point x="619" y="507"/>
      <point x="516" y="645"/>
      <point x="373" y="645" type="curve" smooth="yes"/>
      <point x="227" y="645"/>
      <point x="94" y="498"/>
      <point x="94" y="314" type="curve" smooth="yes"/>
      <point x="94" y="157"/>
      <point x="194" y="33"/>
    </contour>
  </outline>
</glyph>
<glyph name="T" format="1">
  <advance width="512"/>
  <unicode hex="0054"/>
  <outline>
    <contour>
      <point x="30" y="681" type="curve" smooth="yes"/>
      <point x="490" y="681" type="line" smooth="yes"/>
      <point x="500" y="681"/>
      <point x="509" y="673"/>
      <point x="509" y="662" type="curve" smooth="yes"/>
      <point x="509" y="652"/>
      <point x="500" y="644"/>
      <point x="490" y="644" type="curve" smooth="yes"/>
      <point x="271" y="644" type="line"/>
      <point x="271" y="19" type="line" smooth="yes"/>
      <point x="271" y="8"/>
      <point x="263" y="0"/>
      <point x="253" y="0" type="curve" smooth="yes"/>
      <point x="242" y="0"/>
      <point x="234" y="8"/>
      <point x="234" y="19" type="curve" smooth="yes"/>
      <point x="234" y="644" type="line"/>
      <point x="30" y="644" type="line" smooth="yes"/>
      <point x="20" y="644"/>
      <point x="11" y="652"/>
      <point x="11" y="662" type="curve" smooth="yes"/>
      <point x="11" y="673"/>
      <point x="20" y="681"/>
    </contour>
  </outline>
</glyph>
<glyph name="Z" format="1">
  <advance width="629"/>
  <unicode hex="005A"/>
  <outline>
    <contour>
      <point x="98" y="41" type="line"/>
      <point x="550" y="41" type="line" smooth="yes"/>
      <point x="560" y="41"/>
      <point x="569" y="32"/>
      <point x="569" y="21" type="curve" smooth="yes"/>
      <point x="569" y="9"/>
      <point x="560" y="0"/>
      <point x="550" y="0" type="curve" smooth="yes"/>
      <point x="74" y="0" type="line" smooth="yes"/>
      <point x="61" y="0"/>
      <point x="51" y="8"/>
      <point x="50" y="22" type="curve" smooth="yes"/>
      <point x="50" y="28"/>
      <point x="52" y="35"/>
      <point x="56" y="40" type="curve" smooth="yes"/>
      <point x="538" y="638" type="line"/>
      <point x="87" y="638" type="line" smooth="yes"/>
      <point x="77" y="638"/>
      <point x="67" y="647"/>
      <point x="67" y="659" type="curve" smooth="yes"/>
      <point x="67" y="671"/>
      <point x="77" y="680"/>
      <point x="87" y="680" type="curve" smooth="yes"/>
      <point x="563" y="680" type="line" smooth="yes"/>
      <point x="576" y="680"/>
      <point x="587" y="670"/>
      <point x="587" y="657" type="curve" smooth="yes"/>
      <point x="587" y="652"/>
      <point x="584" y="645"/>
      <point x="581" y="641" type="curve" smooth="yes"/>
    </contour>
  </outline>
</glyph>
<glyph name="bracketright" format="1">
  <advance width="305"/>
  <unicode hex="005D"/>
  <outline>
    <contour>
      <point x="101" y="819" type="curve" smooth="yes"/>
      <point x="227" y="819" type="line" smooth="yes"/>
      <point x="238" y="819"/>
      <point x="246" y="811"/>
      <point x="246" y="800" type="curve" smooth="yes"/>
      <point x="246" y="-110" type="line" smooth="yes"/>
      <point x="246" y="-121"/>
      <point x="238" y="-129"/>
      <point x="227" y="-129" type="curve" smooth="yes"/>
      <point x="84" y="-129" type="line" smooth="yes"/>
      <point x="74" y="-129"/>
      <point x="66" y="-121"/>
      <point x="66" y="-110" type="curve" smooth="yes"/>
      <point x="66" y="-100"/>
      <point x="74" y="-92"/>
      <point x="84" y="-92" type="curve" smooth="yes"/>
      <point x="208" y="-92" type="line"/>
      <point x="208" y="782" type="line"/>
      <point x="101" y="782" type="line" smooth="yes"/>
      <point x="91" y="782"/>
      <point x="82" y="790"/>
      <point x="82" y="800" type="curve" smooth="yes"/>
      <point x="82" y="811"/>
      <point x="91" y="819"/>
    </contour>
  </outline>
</glyph>
<glyph name="asciicircum" format="1">
  <advance width="490"/>
  <unicode hex="005E"/>
  <outline>
    <contour>
      <point x="285" y="652" type="curve" smooth="yes"/>
      <point x="392" y="441" type="line" smooth="yes"/>
      <point x="395" y="435"/>
      <point x="395" y="432"/>
      <point x="395" y="429" type="curve" smooth="yes"/>
      <point x="395" y="420"/>
      <point x="387" y="412"/>
      <point x="377" y="412" type="curve" smooth="yes"/>
      <point x="370" y="412"/>
      <point x="365" y="414"/>
      <point x="362" y="420" type="curve" smooth="yes"/>
      <point x="261" y="617" type="line"/>
      <point x="138" y="419" type="line" smooth="yes"/>
      <point x="135" y="414"/>
      <point x="130" y="412"/>
      <point x="124" y="412" type="curve" smooth="yes"/>
      <point x="114" y="412"/>
      <point x="105" y="420"/>
      <point x="105" y="429" type="curve" smooth="yes"/>
      <point x="105" y="432"/>
      <point x="106" y="436"/>
      <point x="109" y="441" type="curve" smooth="yes"/>
      <point x="237" y="654" type="line" smooth="yes"/>
      <point x="243" y="664"/>
      <point x="251" y="670"/>
      <point x="262" y="670" type="curve" smooth="yes"/>
      <point x="271" y="670"/>
      <point x="279" y="664"/>
    </contour>
  </outline>
</glyph>
<glyph name="b" format="1">
  <advance width="514"/>
  <unicode hex="0062"/>
  <outline>
    <contour>
      <point x="302" y="491" type="curve" smooth="yes"/>
      <point x="428" y="491"/>
      <point x="473" y="374"/>
      <point x="473" y="272" type="curve" smooth="yes"/>
      <point x="473" y="126"/>
      <point x="410" y="7"/>
      <point x="257" y="7" type="curve" smooth="yes"/>
      <point x="204" y="7"/>
      <point x="143" y="26"/>
      <point x="104" y="42" type="curve"/>
      <point x="104" y="17" type="line" smooth="yes"/>
      <point x="104" y="8"/>
      <point x="96" y="0"/>
      <point x="86" y="0" type="curve" smooth="yes"/>
      <point x="76" y="0"/>
      <point x="67" y="7"/>
      <point x="67" y="17" type="curve" smooth="yes"/>
      <point x="67" y="683" type="line" smooth="yes"/>
      <point x="67" y="692"/>
      <point x="76" y="698"/>
      <point x="86" y="698" type="curve" smooth="yes"/>
      <point x="96" y="698"/>
      <point x="104" y="692"/>
      <point x="104" y="683" type="curve" smooth="yes"/>
      <point x="104" y="388" type="line"/>
      <point x="158" y="451"/>
      <point x="233" y="491"/>
    </contour>
    <contour>
      <point x="249" y="42" type="curve" smooth="yes"/>
      <point x="387" y="42"/>
      <point x="438" y="133"/>
      <point x="438" y="272" type="curve" smooth="yes"/>
      <point x="438" y="348"/>
      <point x="409" y="453"/>
      <point x="306" y="453" type="curve" smooth="yes"/>
      <point x="190" y="453"/>
      <point x="104" y="383"/>
      <point x="104" y="296" type="curve" smooth="yes"/>
      <point x="104" y="74" type="line"/>
      <point x="125" y="65"/>
      <point x="188" y="42"/>
    </contour>
  </outline>
</glyph>
<glyph name="f" format="1">
  <advance width="361"/>
  <unicode hex="0066"/>
  <outline>
    <contour>
      <point x="37" y="501" type="curve" smooth="yes"/>
      <point x="128" y="501" type="line"/>
      <point x="128" y="650"/>
      <point x="187" y="699"/>
      <point x="327" y="699" type="curve" smooth="yes"/>
      <point x="343" y="699"/>
      <point x="357" y="696"/>
      <point x="357" y="683" type="curve" smooth="yes"/>
      <point x="357" y="673"/>
      <point x="351" y="665"/>
      <point x="339" y="665" type="curve" smooth="yes"/>
      <point x="206" y="665"/>
      <point x="165" y="646"/>
      <point x="165" y="501" type="curve"/>
      <point x="319" y="500" type="line" smooth="yes"/>
      <point x="327" y="500"/>
      <point x="335" y="493"/>
      <point x="335" y="485" type="curve" smooth="yes"/>
      <point x="335" y="475"/>
      <point x="328" y="468"/>
      <point x="319" y="468" type="curve" smooth="yes"/>
      <point x="165" y="468" type="line"/>
      <point x="165" y="17" type="line" smooth="yes"/>
      <point x="165" y="7"/>
      <point x="157" y="0"/>
      <point x="146" y="0" type="curve" smooth="yes"/>
      <point x="136" y="0"/>
      <point x="128" y="7"/>
      <point x="128" y="17" type="curve" smooth="yes"/>
      <point x="128" y="468" type="line"/>
      <point x="39" y="468" type="line" smooth="yes"/>
      <point x="30" y="468"/>
      <point x="22" y="475"/>
      <point x="22" y="485" type="curve" smooth="yes"/>
      <point x="22" y="494"/>
      <point x="30" y="501"/>
    </contour>
  </outline>
</glyph>
<glyph name="l" format="1">
  <advance width="216"/>
  <unicode hex="006C"/>
  <outline>
    <contour>
      <point x="129" y="680" type="curve" smooth="yes"/>
      <point x="129" y="16" type="line" smooth="yes"/>
      <point x="129" y="7"/>
      <point x="119" y="0"/>
      <point x="110" y="0" type="curve" smooth="yes"/>
      <point x="101" y="0"/>
      <point x="91" y="7"/>
      <point x="91" y="16" type="curve" smooth="yes"/>
      <point x="91" y="680" type="line" smooth="yes"/>
      <point x="91" y="690"/>
      <point x="100" y="698"/>
      <point x="110" y="698" type="curve" smooth="yes"/>
      <point x="120" y="698"/>
      <point x="129" y="690"/>
    </contour>
  </outline>
</glyph>
<glyph name="m" format="1">
  <advance width="803"/>
  <unicode hex="006D"/>
  <outline>
    <contour>
      <point x="624" y="512" type="curve" smooth="yes"/>
      <point x="684" y="512"/>
      <point x="755" y="480"/>
      <point x="755" y="330" type="curve" smooth="yes"/>
      <point x="755" y="18" type="line" smooth="yes"/>
      <point x="755" y="8"/>
      <point x="747" y="0"/>
      <point x="737" y="0" type="curve" smooth="yes"/>
      <point x="726" y="0"/>
      <point x="718" y="8"/>
      <point x="718" y="18" type="curve" smooth="yes"/>
      <point x="718" y="338" type="line" smooth="yes"/>
      <point x="718" y="467"/>
      <point x="664" y="481"/>
      <point x="624" y="481" type="curve" smooth="yes"/>
      <point x="564" y="481"/>
      <point x="442" y="408"/>
      <point x="442" y="284" type="curve" smooth="yes"/>
      <point x="442" y="18" type="line" smooth="yes"/>
      <point x="442" y="8"/>
      <point x="433" y="0"/>
      <point x="423" y="0" type="curve" smooth="yes"/>
      <point x="413" y="0"/>
      <point x="404" y="8"/>
      <point x="404" y="18" type="curve" smooth="yes"/>
      <point x="404" y="338" type="line" smooth="yes"/>
      <point x="404" y="467"/>
      <point x="351" y="481"/>
      <point x="312" y="481" type="curve" smooth="yes"/>
      <point x="265" y="481"/>
      <point x="187" y="425"/>
      <point x="116" y="310" type="curve" smooth="yes"/>
      <point x="108" y="298"/>
      <point x="102" y="278"/>
      <point x="102" y="256" type="curve" smooth="yes"/>
      <point x="102" y="18" type="line" smooth="yes"/>
      <point x="102" y="8"/>
      <point x="94" y="0"/>
      <point x="83" y="0" type="curve" smooth="yes"/>
      <point x="73" y="0"/>
      <point x="65" y="8"/>
      <point x="65" y="18" type="curve" smooth="yes"/>
      <point x="65" y="480" type="line" smooth="yes"/>
      <point x="65" y="491"/>
      <point x="73" y="499"/>
      <point x="83" y="499" type="curve" smooth="yes"/>
      <point x="94" y="499"/>
      <point x="102" y="491"/>
      <point x="102" y="480" type="curve" smooth="yes"/>
      <point x="102" y="339" type="line"/>
      <point x="136" y="416"/>
      <point x="245" y="512"/>
      <point x="313" y="512" type="curve" smooth="yes"/>
      <point x="360" y="512"/>
      <point x="421" y="491"/>
      <point x="438" y="382" type="curve"/>
      <point x="480" y="467"/>
      <point x="571" y="512"/>
    </contour>
  </outline>
</glyph>
<glyph name="p" format="1">
  <advance width="510"/>
  <unicode hex="0070"/>
  <outline>
    <contour>
      <point x="311" y="500" type="curve"/>
      <point x="420" y="495"/>
      <point x="469" y="381"/>
      <point x="469" y="277" type="curve" smooth="yes"/>
      <point x="469" y="163"/>
      <point x="426" y="8"/>
      <point x="251" y="8" type="curve" smooth="yes"/>
      <point x="198" y="8"/>
      <point x="143" y="27"/>
      <point x="105" y="42" type="curve"/>
      <point x="105" y="-184" type="line" smooth="yes"/>
      <point x="105" y="-195"/>
      <point x="97" y="-203"/>
      <point x="86" y="-203" type="curve" smooth="yes"/>
      <point x="76" y="-203"/>
      <point x="68" y="-195"/>
      <point x="68" y="-184" type="curve" smooth="yes"/>
      <point x="68" y="480" type="line" smooth="yes"/>
      <point x="68" y="491"/>
      <point x="76" y="500"/>
      <point x="86" y="500" type="curve" smooth="yes"/>
      <point x="97" y="500"/>
      <point x="105" y="491"/>
      <point x="105" y="480" type="curve" smooth="yes"/>
      <point x="105" y="415" type="line"/>
      <point x="156" y="462"/>
      <point x="222" y="500"/>
    </contour>
    <contour>
      <point x="257" y="47" type="curve" smooth="yes"/>
      <point x="392" y="47"/>
      <point x="437" y="146"/>
      <point x="437" y="277" type="curve" smooth="yes"/>
      <point x="437" y="346"/>
      <point x="409" y="470"/>
      <point x="303" y="470" type="curve" smooth="yes"/>
      <point x="189" y="470"/>
      <point x="124" y="399"/>
      <point x="105" y="371" type="curve"/>
      <point x="105" y="86" type="line"/>
      <point x="127" y="76"/>
      <point x="194" y="47"/>
    </contour>
  </outline>
</glyph>
<glyph name="r" format="1">
  <advance width="406"/>
  <unicode hex="0072"/>
  <outline>
    <contour>
      <point x="107" y="481" type="curve" smooth="yes"/>
      <point x="107" y="342" type="line"/>
      <point x="129" y="409"/>
      <point x="211" y="502"/>
      <point x="298" y="502" type="curve" smooth="yes"/>
      <point x="343.473" y="502"/>
      <point x="372.097" y="482.342"/>
      <point x="372.097" y="419.478" type="curve" smooth="yes"/>
      <point x="372.097" y="417.368"/>
      <point x="372.065" y="415.209"/>
      <point x="372" y="413" type="curve" smooth="yes"/>
      <point x="372" y="396" type="line" smooth="yes"/>
      <point x="372" y="385"/>
      <point x="365" y="377"/>
      <point x="355" y="377" type="curve" smooth="yes"/>
      <point x="341" y="377"/>
      <point x="336" y="386"/>
      <point x="336" y="397" type="curve" smooth="yes"/>
      <point x="336" y="407" type="line" smooth="yes"/>
      <point x="336" y="410.053"/>
      <point x="336.033" y="413.116"/>
      <point x="336.033" y="416.155" type="curve" smooth="yes"/>
      <point x="336.033" y="441.983"/>
      <point x="333.632" y="466"/>
      <point x="288" y="466" type="curve" smooth="yes"/>
      <point x="234" y="466"/>
      <point x="185" y="422"/>
      <point x="145" y="368" type="curve" smooth="yes"/>
      <point x="124" y="340"/>
      <point x="107" y="289"/>
      <point x="107" y="253" type="curve" smooth="yes"/>
      <point x="106" y="17" type="line" smooth="yes"/>
      <point x="106" y="7"/>
      <point x="98" y="0"/>
      <point x="87" y="0" type="curve" smooth="yes"/>
      <point x="78" y="0"/>
      <point x="69" y="7"/>
      <point x="69" y="17" type="curve" smooth="yes"/>
      <point x="69" y="481" type="line" smooth="yes"/>
      <point x="69" y="491"/>
      <point x="77" y="499"/>
      <point x="87" y="499" type="curve" smooth="yes"/>
      <point x="98" y="499"/>
      <point x="107" y="491"/>
    </contour>
  </outline>
</glyph>
<glyph name="t" format="1">
  <advance width="377"/>
  <unicode hex="0074"/>
  <outline>
    <contour>
      <point x="211" y="500" type="line"/>
      <point x="344" y="500" type="line" smooth="yes"/>
      <point x="355" y="500"/>
      <point x="363" y="492"/>
      <point x="363" y="481" type="curve" smooth="yes"/>
      <point x="363" y="471"/>
      <point x="355" y="463"/>
      <point x="344" y="463" type="curve" smooth="yes"/>
      <point x="211" y="463" type="line"/>
      <point x="211" y="17" type="line" smooth="yes"/>
      <point x="211" y="7"/>
      <point x="202" y="-1"/>
      <point x="192" y="-1" type="curve" smooth="yes"/>
      <point x="182" y="-1"/>
      <point x="173" y="7"/>
      <point x="173" y="17" type="curve" smooth="yes"/>
      <point x="173" y="463" type="line"/>
      <point x="41" y="463" type="line" smooth="yes"/>
      <point x="31" y="463"/>
      <point x="22" y="471"/>
      <point x="22" y="481" type="curve" smooth="yes"/>
      <point x="22" y="493"/>
      <point x="32" y="500"/>
      <point x="43" y="500" type="curve" smooth="yes"/>
      <point x="173" y="500" type="line"/>
      <point x="173" y="660" type="line" smooth="yes"/>
      <point x="173" y="670"/>
      <point x="182" y="679"/>
      <point x="192" y="679" type="curve" smooth="yes"/>
      <point x="204" y="679"/>
      <point x="211" y="670"/>
      <point x="211" y="660" type="curve" smooth="yes"/>
    </contour>
  </outline>
</glyph>
<glyph name="bar" format="1">
  <advance width="183"/>
  <unicode hex="007C"/>
  <outline>
    <contour>
      <point x="93" y="-175" type="curve" smooth="yes"/>
      <point x="83" y="-175"/>
      <point x="74" y="-167"/>
      <point x="74" y="-156" type="curve" smooth="yes"/>
      <point x="74" y="836" type="line" smooth="yes"/>
      <point x="74" y="846"/>
      <point x="83" y="854"/>
      <point x="93" y="854" type="curve" smooth="yes"/>
      <point x="103" y="854"/>
      <point x="112" y="846"/>
      <point x="112" y="836" type="curve" smooth="yes"/>
      <point x="112" y="-156" type="line" smooth="yes"/>
      <point x="112" y="-167"/>
      <point x="103" y="-175"/>
    </contour>
  </outline>
</glyph>
<glyph name="braceright" format="1">
  <advance width="366"/>
  <unicode hex="007D"/>
  <outline>
    <contour>
      <point x="185" y="467" type="curve" smooth="yes"/>
      <point x="185" y="679" type="line" smooth="yes"/>
      <point x="185" y="754"/>
      <point x="116" y="778"/>
      <point x="77" y="786" type="curve" smooth="yes"/>
      <point x="64" y="788"/>
      <point x="58" y="793"/>
      <point x="58" y="804" type="curve" smooth="yes"/>
      <point x="58" y="816"/>
      <point x="68" y="823"/>
      <point x="79" y="821" type="curve" smooth="yes"/>
      <point x="139" y="810"/>
      <point x="221" y="769"/>
      <point x="221" y="679" type="curve" smooth="yes"/>
      <point x="221" y="466" type="line" smooth="yes"/>
      <point x="221" y="409"/>
      <point x="255" y="370"/>
      <point x="297" y="354" type="curve" smooth="yes"/>
      <point x="306" y="350"/>
      <point x="309" y="345"/>
      <point x="309" y="338" type="curve" smooth="yes"/>
      <point x="309" y="330"/>
      <point x="306" y="326"/>
      <point x="298" y="322" type="curve" smooth="yes"/>
      <point x="236" y="292"/>
      <point x="221" y="256"/>
      <point x="221" y="210" type="curve" smooth="yes"/>
      <point x="221" y="13" type="line" smooth="yes"/>
      <point x="221" y="-77"/>
      <point x="139" y="-118"/>
      <point x="79" y="-129" type="curve" smooth="yes"/>
      <point x="68" y="-131"/>
      <point x="58" y="-124"/>
      <point x="58" y="-112" type="curve" smooth="yes"/>
      <point x="58" y="-101"/>
      <point x="64" y="-96"/>
      <point x="77" y="-94" type="curve" smooth="yes"/>
      <point x="116" y="-86"/>
      <point x="185" y="-62"/>
      <point x="185" y="13" type="curve" smooth="yes"/>
      <point x="185" y="209" type="line" smooth="yes"/>
      <point x="185" y="262"/>
      <point x="212" y="305"/>
      <point x="253" y="338" type="curve"/>
      <point x="215" y="366"/>
      <point x="185" y="412"/>
    </contour>
  </outline>
</glyph>
<glyph name="asciitilde" format="1">
  <advance width="630"/>
  <unicode hex="007E"/>
  <outline>
    <contour>
      <point x="572" y="296" type="curve" smooth="yes"/>
      <point x="555" y="248"/>
      <point x="511" y="156"/>
      <point x="424" y="156" type="curve" smooth="yes"/>
      <point x="364" y="156"/>
      <point x="332" y="201"/>
      <point x="302" y="242" type="curve" smooth="yes"/>
      <point x="272" y="284"/>
      <point x="249" y="311"/>
      <point x="210" y="311" type="curve" smooth="yes"/>
      <point x="150" y="311"/>
      <point x="113" y="248"/>
      <point x="101" y="205" type="curve" smooth="yes"/>
      <point x="99" y="197"/>
      <point x="94" y="192"/>
      <point x="84" y="192" type="curve" smooth="yes"/>
      <point x="74" y="192"/>
      <point x="66" y="199"/>
      <point x="66" y="207" type="curve" smooth="yes"/>
      <point x="66" y="213"/>
      <point x="68" y="217"/>
      <point x="69" y="220" type="curve" smooth="yes"/>
      <point x="94" y="286"/>
      <point x="139" y="346"/>
      <point x="210" y="346" type="curve" smooth="yes"/>
      <point x="270" y="346"/>
      <point x="302" y="301"/>
      <point x="331" y="262" type="curve" smooth="yes"/>
      <point x="363" y="219"/>
      <point x="385" y="192"/>
      <point x="424" y="192" type="curve" smooth="yes"/>
      <point x="485" y="192"/>
      <point x="522" y="266"/>
      <point x="537" y="306" type="curve" smooth="yes"/>
      <point x="543" y="320"/>
      <point x="550" y="326"/>
      <point x="558" y="326" type="curve" smooth="yes"/>
      <point x="567" y="326"/>
      <point x="574" y="319"/>
      <point x="574" y="309" type="curve" smooth="yes"/>
      <point x="574" y="305"/>
      <point x="574" y="302"/>
    </contour>
  </outline>
</glyph>
<glyph name="ordfeminine" format="1">
  <advance width="240"/>
  <unicode hex="00AA"/>
  <outline>
    <contour>
      <point x="227" y="356" type="curve" smooth="yes"/>
      <point x="218" y="356"/>
      <point x="209" y="361"/>
      <point x="209" y="395" type="curve"/>
      <point x="174" y="372"/>
      <point x="148" y="362"/>
      <point x="115" y="362" type="curve" smooth="yes"/>
      <point x="51" y="362"/>
      <point x="3" y="418"/>
      <point x="3" y="493" type="curve" smooth="yes"/>
      <point x="3" y="577"/>
      <point x="53" y="675"/>
      <point x="146" y="675" type="curve" smooth="yes"/>
      <point x="185" y="675"/>
      <point x="225" y="662"/>
      <point x="241" y="650" type="curve"/>
      <point x="242" y="372" type="line" smooth="yes"/>
      <point x="242" y="362"/>
      <point x="235" y="356"/>
    </contour>
    <contour>
      <point x="150" y="644" type="curve" smooth="yes"/>
      <point x="67" y="644"/>
      <point x="34" y="556"/>
      <point x="34" y="495" type="curve" smooth="yes"/>
      <point x="34" y="449"/>
      <point x="58" y="392"/>
      <point x="116" y="392" type="curve" smooth="yes"/>
      <point x="155" y="392"/>
      <point x="195" y="419"/>
      <point x="208" y="428" type="curve"/>
      <point x="211" y="630" type="line"/>
      <point x="198" y="638"/>
      <point x="168" y="644"/>
    </contour>
  </outline>
</glyph>
<glyph name="degree" format="1">
  <advance width="233"/>
  <unicode hex="00B0"/>
  <outline>
    <contour>
      <point x="120" y="483" type="curve" smooth="yes"/>
      <point x="55" y="483"/>
      <point x="3" y="536"/>
      <point x="3" y="600" type="curve" smooth="yes"/>
      <point x="3" y="665"/>
      <point x="55" y="717"/>
      <point x="120" y="717" type="curve" smooth="yes"/>
      <point x="183" y="717"/>
      <point x="235" y="665"/>
      <point x="235" y="600" type="curve" smooth="yes"/>
      <point x="235" y="536"/>
      <point x="183" y="483"/>
    </contour>
    <contour>
      <point x="120" y="690" type="curve" smooth="yes"/>
      <point x="71" y="690"/>
      <point x="29" y="650"/>
      <point x="29" y="600" type="curve" smooth="yes"/>
      <point x="29" y="550"/>
      <point x="71" y="511"/>
      <point x="120" y="511" type="curve" smooth="yes"/>
      <point x="170" y="511"/>
      <point x="209" y="550"/>
      <point x="209" y="600" type="curve" smooth="yes"/>
      <point x="209" y="650"/>
      <point x="170" y="690"/>
    </contour>
  </outline>
</glyph>
<glyph name="acute" format="1">
  <advance width="490"/>
  <unicode hex="00B4"/>
  <outline>
    <contour>
      <point x="329" y="692" type="curve" smooth="yes"/>
      <point x="186" y="594" type="line" smooth="yes"/>
      <point x="179" y="589"/>
      <point x="174" y="587"/>
      <point x="170" y="587" type="curve" smooth="yes"/>
      <point x="161" y="587"/>
      <point x="153" y="595"/>
      <point x="153" y="604" type="curve" smooth="yes"/>
      <point x="153" y="607"/>
      <point x="153" y="612"/>
      <point x="159" y="617" type="curve" smooth="yes"/>
      <point x="287" y="721" type="line" smooth="yes"/>
      <point x="296" y="728"/>
      <point x="303" y="735"/>
      <point x="313" y="735" type="curve" smooth="yes"/>
      <point x="324" y="735"/>
      <point x="337" y="722"/>
      <point x="337" y="708" type="curve" smooth="yes"/>
      <point x="337" y="701"/>
      <point x="336" y="697"/>
    </contour>
  </outline>
</glyph>
<glyph name="mu" format="1">
  <advance width="490"/>
  <unicode hex="00B5"/>
  <outline>
    <contour>
      <point x="215" y="27" type="curve" smooth="yes"/>
      <point x="312" y="27"/>
      <point x="365" y="89"/>
      <point x="388" y="115" type="curve" smooth="yes"/>
      <point x="399" y="127"/>
      <point x="403" y="143"/>
      <point x="403" y="167" type="curve" smooth="yes"/>
      <point x="405" y="483" type="line" smooth="yes"/>
      <point x="405" y="492"/>
      <point x="414" y="500"/>
      <point x="423" y="500" type="curve" smooth="yes"/>
      <point x="433" y="500"/>
      <point x="442" y="492"/>
      <point x="442" y="483" type="curve" smooth="yes"/>
      <point x="442" y="19" type="line" smooth="yes"/>
      <point x="442" y="8"/>
      <point x="433" y="0"/>
      <point x="421" y="0" type="curve" smooth="yes"/>
      <point x="408" y="0"/>
      <point x="399" y="10"/>
      <point x="399" y="24" type="curve" smooth="yes"/>
      <point x="399" y="82" type="line"/>
      <point x="366" y="34"/>
      <point x="290" y="-3"/>
      <point x="213" y="-3" type="curve" smooth="yes"/>
      <point x="185" y="-3"/>
      <point x="142" y="7"/>
      <point x="115" y="28" type="curve"/>
      <point x="118.064" y="-36.3358"/>
      <point x="137.42" y="-122.377"/>
      <point x="137.42" y="-171.879" type="curve" smooth="yes"/>
      <point x="137.42" y="-180.099"/>
      <point x="131.919" y="-189"/>
      <point x="119" y="-189" type="curve" smooth="yes"/>
      <point x="111" y="-189"/>
      <point x="103" y="-185"/>
      <point x="102" y="-176" type="curve" smooth="yes"/>
      <point x="81" y="-35"/>
      <point x="66" y="104"/>
      <point x="66" y="256" type="curve" smooth="yes"/>
      <point x="66" y="336"/>
      <point x="74" y="435"/>
      <point x="79" y="474" type="curve" smooth="yes"/>
      <point x="82" y="496"/>
      <point x="89" y="500"/>
      <point x="100" y="500" type="curve" smooth="yes"/>
      <point x="108" y="500"/>
      <point x="116" y="494"/>
      <point x="116" y="483" type="curve" smooth="yes"/>
      <point x="116" y="479"/>
      <point x="115" y="471"/>
      <point x="114" y="462" type="curve" smooth="yes"/>
      <point x="110" y="427"/>
      <point x="104" y="370"/>
      <point x="104" y="294" type="curve" smooth="yes"/>
      <point x="104" y="92"/>
      <point x="126" y="27"/>
    </contour>
  </outline>
</glyph>
<glyph name="paragraph" format="1">
  <advance width="549"/>
  <unicode hex="00B6"/>
  <outline>
    <contour>
      <point x="409" y="-68" type="curve" smooth="yes"/>
      <point x="407" y="-79"/>
      <point x="399" y="-84"/>
      <point x="390" y="-84" type="curve" smooth="yes"/>
      <point x="377.668" y="-84"/>
      <point x="373.447" y="-75.213"/>
      <point x="373.447" y="-66.5304" type="curve" smooth="yes"/>
      <point x="373.447" y="-64.652"/>
      <point x="373.644" y="-62.7786"/>
      <point x="374" y="-61" type="curve" smooth="yes"/>
      <point x="411" y="139"/>
      <point x="445" y="377"/>
      <point x="445" y="650" type="curve" smooth="yes"/>
      <point x="445" y="677"/>
      <point x="445" y="704"/>
      <point x="444" y="731" type="curve" smooth="yes"/>
      <point x="444" y="742"/>
      <point x="452" y="751"/>
      <point x="462" y="751" type="curve" smooth="yes"/>
      <point x="472" y="751"/>
      <point x="480" y="743"/>
      <point x="481" y="734" type="curve" smooth="yes"/>
      <point x="482" y="719.5"/>
      <point x="482.25" y="705.25"/>
      <point x="482.25" y="691.25" type="curve" smooth="yes"/>
      <point x="482.25" y="677.25"/>
      <point x="482" y="663.5"/>
      <point x="482" y="650" type="curve" smooth="yes"/>
      <point x="482" y="402"/>
      <point x="451" y="152"/>
    </contour>
    <contour>
      <point x="390" y="763" type="curve" smooth="yes"/>
      <point x="362" y="756" type="line"/>
      <point x="363" y="720"/>
      <point x="364" y="675"/>
      <point x="364" y="639" type="curve" smooth="yes"/>
      <point x="364" y="394"/>
      <point x="330" y="138"/>
      <point x="292" y="-69" type="curve" smooth="yes"/>
      <point x="290" y="-80"/>
      <point x="282" y="-84"/>
      <point x="273" y="-84" type="curve" smooth="yes"/>
      <point x="260.75" y="-84"/>
      <point x="255.169" y="-75.329"/>
      <point x="255.169" y="-66.7029" type="curve" smooth="yes"/>
      <point x="255.169" y="-64.7668"/>
      <point x="255.45" y="-62.833"/>
      <point x="256" y="-61" type="curve" smooth="yes"/>
      <point x="278" y="22"/>
      <point x="310" y="278"/>
      <point x="315" y="364" type="curve"/>
      <point x="284" y="364" type="line" smooth="yes"/>
      <point x="175" y="364"/>
      <point x="72" y="413"/>
      <point x="72" y="538" type="curve" smooth="yes"/>
      <point x="72" y="683"/>
      <point x="227" y="768"/>
      <point x="388" y="798" type="curve" smooth="yes"/>
      <point x="397" y="800"/>
      <point x="405" y="793"/>
      <point x="405" y="782" type="curve" smooth="yes"/>
      <point x="405" y="774"/>
      <point x="403" y="766"/>
    </contour>
  </outline>
</glyph>
<glyph name="cedilla" format="1">
  <advance width="490"/>
  <unicode hex="00B8"/>
  <outline>
    <contour>
      <point x="206" y="-9" type="curve" smooth="yes"/>
      <point x="216" y="17"/>
      <point x="218" y="23"/>
      <point x="221" y="23" type="curve" smooth="yes"/>
      <point x="223" y="23"/>
      <point x="224" y="21"/>
      <point x="224" y="13" type="curve" smooth="yes"/>
      <point x="222" y="-41" type="line"/>
      <point x="293" y="-41"/>
      <point x="328" y="-78"/>
      <point x="328" y="-123" type="curve" smooth="yes"/>
      <point x="328" y="-170"/>
      <point x="291" y="-209"/>
      <point x="244" y="-209" type="curve" smooth="yes"/>
      <point x="213" y="-209"/>
      <point x="172" y="-189"/>
      <point x="172" y="-163" type="curve" smooth="yes"/>
      <point x="172" y="-157"/>
      <point x="177" y="-154"/>
      <point x="182" y="-154" type="curve" smooth="yes"/>
      <point x="187" y="-154"/>
      <point x="190" y="-159"/>
      <point x="194" y="-164" type="curve" smooth="yes"/>
      <point x="203" y="-174"/>
      <point x="215" y="-187"/>
      <point x="244" y="-187" type="curve" smooth="yes"/>
      <point x="278" y="-187"/>
      <point x="305" y="-159"/>
      <point x="305" y="-125" type="curve" smooth="yes"/>
      <point x="305" y="-91"/>
      <point x="278" y="-64"/>
      <point x="244" y="-64" type="curve" smooth="yes"/>
      <point x="226" y="-64"/>
      <point x="215" y="-70"/>
      <point x="208" y="-75" type="curve" smooth="yes"/>
      <point x="204" y="-78"/>
      <point x="201" y="-79"/>
      <point x="199" y="-79" type="curve" smooth="yes"/>
      <point x="193" y="-79"/>
      <point x="188" y="-75"/>
      <point x="188" y="-69" type="curve" smooth="yes"/>
      <point x="188" y="-65"/>
      <point x="203" y="-18"/>
    </contour>
  </outline>
</glyph>
<glyph name="ordmasculine" format="1">
  <advance width="267"/>
  <unicode hex="00BA"/>
  <outline>
    <contour>
      <point x="127" y="362" type="curve" smooth="yes"/>
      <point x="60" y="362"/>
      <point x="3" y="422"/>
      <point x="3" y="501" type="curve" smooth="yes"/>
      <point x="3" y="580"/>
      <point x="57" y="670"/>
      <point x="146" y="670" type="curve" smooth="yes"/>
      <point x="213" y="670"/>
      <point x="270" y="613"/>
      <point x="270" y="526" type="curve" smooth="yes"/>
      <point x="270" y="462"/>
      <point x="223" y="362"/>
    </contour>
    <contour>
      <point x="143" y="644" type="curve" smooth="yes"/>
      <point x="88" y="644"/>
      <point x="35" y="580"/>
      <point x="35" y="504" type="curve" smooth="yes"/>
      <point x="35" y="442"/>
      <point x="73" y="388"/>
      <point x="127" y="388" type="curve" smooth="yes"/>
      <point x="181" y="388"/>
      <point x="238" y="446"/>
      <point x="238" y="526" type="curve" smooth="yes"/>
      <point x="238" y="586"/>
      <point x="197" y="644"/>
    </contour>
  </outline>
</glyph>
<glyph name="Aacute" format="1">
  <advance width="614"/>
  <unicode hex="00C1"/>
  <outline>
    <contour>
      <point x="53" y="27" type="curve" smooth="yes"/>
      <point x="122" y="203" type="line"/>
      <point x="85" y="194" type="line"/>
      <point x="73" y="192"/>
      <point x="65" y="202"/>
      <point x="65" y="212" type="curve" smooth="yes"/>
      <point x="65" y="222"/>
      <point x="72" y="229"/>
      <point x="80" y="231" type="curve" smooth="yes"/>
      <point x="139" y="244" type="line"/>
      <point x="309" y="677" type="line" smooth="yes"/>
      <point x="312" y="684"/>
      <point x="319" y="689"/>
      <point x="328" y="689" type="curve" smooth="yes"/>
      <point x="338" y="689"/>
      <point x="344" y="683"/>
      <point x="346" y="677" type="curve" smooth="yes"/>
      <point x="568" y="32" type="line" smooth="yes"/>
      <point x="571" y="23"/>
      <point x="571" y="18"/>
      <point x="571" y="15" type="curve" smooth="yes"/>
      <point x="571" y="4"/>
      <point x="561" y="-1"/>
      <point x="550" y="-1" type="curve" smooth="yes"/>
      <point x="542" y="-1"/>
      <point x="536" y="3"/>
      <point x="533" y="11" type="curve" smooth="yes"/>
      <point x="444" y="272" type="line"/>
      <point x="167" y="211" type="line"/>
      <point x="89" y="11" type="line" smooth="yes"/>
      <point x="86" y="4"/>
      <point x="80" y="0"/>
      <point x="72" y="0" type="curve" smooth="yes"/>
      <point x="60" y="0"/>
      <point x="51" y="8"/>
      <point x="51" y="18" type="curve" smooth="yes"/>
      <point x="51" y="21"/>
      <point x="52" y="25"/>
    </contour>
    <contour>
      <point x="184" y="253" type="line"/>
      <point x="431" y="307" type="line"/>
      <point x="325" y="614" type="line"/>
    </contour>
    <contour>
      <point x="428" y="857" type="curve" smooth="yes"/>
      <point x="285" y="759" type="line" smooth="yes"/>
      <point x="278" y="754"/>
      <point x="273" y="752"/>
      <point x="269" y="752" type="curve" smooth="yes"/>
      <point x="260" y="752"/>
      <point x="252" y="760"/>
      <point x="252" y="769" type="curve" smooth="yes"/>
      <point x="252" y="772"/>
      <point x="252" y="777"/>
      <point x="258" y="782" type="curve" smooth="yes"/>
      <point x="386" y="886" type="line" smooth="yes"/>
      <point x="395" y="893"/>
      <point x="402" y="900"/>
      <point x="412" y="900" type="curve" smooth="yes"/>
      <point x="423" y="900"/>
      <point x="436" y="887"/>
      <point x="436" y="873" type="curve" smooth="yes"/>
      <point x="436" y="866"/>
      <point x="435" y="862"/>
    </contour>
  </outline>
</glyph>
<glyph name="Acircumflex" format="1">
  <advance width="614"/>
  <unicode hex="00C2"/>
  <outline>
    <contour>
      <point x="336" y="902" type="curve" smooth="yes"/>
      <point x="341" y="902"/>
      <point x="347" y="900"/>
      <point x="351" y="896" type="curve" smooth="yes"/>
      <point x="463" y="783" type="line" smooth="yes"/>
      <point x="467" y="779"/>
      <point x="469" y="776"/>
      <point x="469" y="771" type="curve" smooth="yes"/>
      <point x="469" y="762"/>
      <point x="461" y="753"/>
      <point x="452" y="753" type="curve" smooth="yes"/>
      <point x="447" y="753"/>
      <point x="443" y="755"/>
      <point x="439" y="758" type="curve" smooth="yes"/>
      <point x="334" y="853" type="line"/>
      <point x="210" y="757" type="line" smooth="yes"/>
      <point x="207" y="755"/>
      <point x="203" y="753"/>
      <point x="199" y="753" type="curve" smooth="yes"/>
      <point x="189" y="753"/>
      <point x="181" y="762"/>
      <point x="181" y="771" type="curve" smooth="yes"/>
      <point x="181" y="776"/>
      <point x="184" y="781"/>
      <point x="188" y="784" type="curve" smooth="yes"/>
      <point x="323" y="897" type="line" smooth="yes"/>
      <point x="327" y="900"/>
      <point x="332" y="902"/>
    </contour>
    <contour>
      <point x="53" y="27" type="curve" smooth="yes"/>
      <point x="122" y="203" type="line"/>
      <point x="85" y="194" type="line"/>
      <point x="73" y="192"/>
      <point x="65" y="202"/>
      <point x="65" y="212" type="curve" smooth="yes"/>
      <point x="65" y="222"/>
      <point x="72" y="229"/>
      <point x="80" y="231" type="curve" smooth="yes"/>
      <point x="139" y="244" type="line"/>
      <point x="309" y="677" type="line" smooth="yes"/>
      <point x="312" y="684"/>
      <point x="319" y="689"/>
      <point x="328" y="689" type="curve" smooth="yes"/>
      <point x="338" y="689"/>
      <point x="344" y="683"/>
      <point x="346" y="677" type="curve" smooth="yes"/>
      <point x="568" y="32" type="line" smooth="yes"/>
      <point x="571" y="23"/>
      <point x="571" y="18"/>
      <point x="571" y="15" type="curve" smooth="yes"/>
      <point x="571" y="4"/>
      <point x="561" y="-1"/>
      <point x="550" y="-1" type="curve" smooth="yes"/>
      <point x="542" y="-1"/>
      <point x="536" y="3"/>
      <point x="533" y="11" type="curve" smooth="yes"/>
      <point x="444" y="272" type="line"/>
      <point x="167" y="211" type="line"/>
      <point x="89" y="11" type="line" smooth="yes"/>
      <point x="86" y="4"/>
      <point x="80" y="0"/>
      <point x="72" y="0" type="curve" smooth="yes"/>
      <point x="60" y="0"/>
      <point x="51" y="8"/>
      <point x="51" y="18" type="curve" smooth="yes"/>
      <point x="51" y="21"/>
      <point x="52" y="25"/>
    </contour>
    <contour>
      <point x="184" y="253" type="line"/>
      <point x="431" y="307" type="line"/>
      <point x="325" y="614" type="line"/>
    </contour>
  </outline>
</glyph>
<glyph name="Aring" format="1">
  <advance width="614"/>
  <unicode hex="00C5"/>
  <outline>
    <contour>
      <point x="322" y="743" type="curve" smooth="yes"/>
      <point x="263" y="743"/>
      <point x="215" y="785"/>
      <point x="215" y="838" type="curve" smooth="yes"/>
      <point x="215" y="902"/>
      <point x="280" y="948"/>
      <point x="345" y="948" type="curve" smooth="yes"/>
      <point x="401" y="948"/>
      <point x="451" y="906"/>
      <point x="451" y="852" type="curve" smooth="yes"/>
      <point x="451" y="787"/>
      <point x="386" y="743"/>
    </contour>
    <contour>
      <point x="341" y="920" type="curve" smooth="yes"/>
      <point x="279" y="920"/>
      <point x="238" y="873"/>
      <point x="238" y="838" type="curve" smooth="yes"/>
      <point x="238" y="795"/>
      <point x="278" y="770"/>
      <point x="331" y="770" type="curve" smooth="yes"/>
      <point x="371" y="770"/>
      <point x="428" y="801"/>
      <point x="428" y="850" type="curve" smooth="yes"/>
      <point x="428" y="885"/>
      <point x="391" y="920"/>
    </contour>
    <contour>
      <point x="53" y="27" type="curve" smooth="yes"/>
      <point x="122" y="203" type="line"/>
      <point x="85" y="194" type="line"/>
      <point x="73" y="192"/>
      <point x="65" y="202"/>
      <point x="65" y="212" type="curve" smooth="yes"/>
      <point x="65" y="222"/>
      <point x="72" y="229"/>
      <point x="80" y="231" type="curve" smooth="yes"/>
      <point x="139" y="244" type="line"/>
      <point x="309" y="677" type="line" smooth="yes"/>
      <point x="312" y="684"/>
      <point x="319" y="689"/>
      <point x="328" y="689" type="curve" smooth="yes"/>
      <point x="338" y="689"/>
      <point x="344" y="683"/>
      <point x="346" y="677" type="curve" smooth="yes"/>
      <point x="568" y="32" type="line" smooth="yes"/>
      <point x="571" y="23"/>
      <point x="571" y="18"/>
      <point x="571" y="15" type="curve" smooth="yes"/>
      <point x="571" y="4"/>
      <point x="561" y="-1"/>
      <point x="550" y="-1" type="curve" smooth="yes"/>
      <point x="542" y="-1"/>
      <point x="536" y="3"/>
      <point x="533" y="11" type="curve" smooth="yes"/>
      <point x="444" y="272" type="line"/>
      <point x="167" y="211" type="line"/>
      <point x="89" y="11" type="line" smooth="yes"/>
      <point x="86" y="4"/>
      <point x="80" y="0"/>
      <point x="72" y="0" type="curve" smooth="yes"/>
      <point x="60" y="0"/>
      <point x="51" y="8"/>
      <point x="51" y="18" type="curve" smooth="yes"/>
      <point x="51" y="21"/>
      <point x="52" y="25"/>
    </contour>
    <contour>
      <point x="184" y="253" type="line"/>
      <point x="431" y="307" type="line"/>
      <point x="325" y="614" type="line"/>
    </contour>
  </outline>
</glyph>
<glyph name="Ccedilla" format="1">
  <advance width="622"/>
  <unicode hex="00C7"/>
  <outline>
    <contour>
      <point x="288" y="2" type="curve"/>
      <point x="155" y="26"/>
      <point x="52" y="144"/>
      <point x="52" y="295" type="curve" smooth="yes"/>
      <point x="52" y="500"/>
      <point x="210" y="684"/>
      <point x="347" y="684" type="curve" smooth="yes"/>
      <point x="416" y="684"/>
      <point x="466" y="661"/>
      <point x="501" y="639" type="curve"/>
      <point x="506" y="650"/>
      <point x="515" y="658"/>
      <point x="523" y="658" type="curve" smooth="yes"/>
      <point x="533" y="658"/>
      <point x="541" y="650"/>
      <point x="541" y="640" type="curve" smooth="yes"/>
      <point x="541" y="574" type="line" smooth="yes"/>
      <point x="541" y="564"/>
      <point x="532" y="554"/>
      <point x="522" y="554" type="curve" smooth="yes"/>
      <point x="512" y="554"/>
      <point x="503" y="564"/>
      <point x="503" y="574" type="curve" smooth="yes"/>
      <point x="503" y="583" type="line"/>
      <point x="481" y="607"/>
      <point x="438" y="646"/>
      <point x="347" y="646" type="curve" smooth="yes"/>
      <point x="226" y="646"/>
      <point x="90" y="469"/>
      <point x="90" y="295" type="curve" smooth="yes"/>
      <point x="90" y="110"/>
      <point x="242" y="36"/>
      <point x="338" y="36" type="curve" smooth="yes"/>
      <point x="414" y="36"/>
      <point x="489" y="68"/>
      <point x="545" y="138" type="curve" smooth="yes"/>
      <point x="549" y="142"/>
      <point x="554" y="145"/>
      <point x="559" y="145" type="curve" smooth="yes"/>
      <point x="569" y="145"/>
      <point x="579" y="139"/>
      <point x="579" y="127" type="curve" smooth="yes"/>
      <point x="579" y="123"/>
      <point x="577" y="118"/>
      <point x="575" y="115" type="curve" smooth="yes"/>
      <point x="519" y="40"/>
      <point x="434" y="-2"/>
      <point x="338" y="-2" type="curve" smooth="yes"/>
      <point x="325" y="-2"/>
      <point x="313" y="-1"/>
      <point x="301" y="0" type="curve"/>
      <point x="300" y="-41" type="line"/>
      <point x="371" y="-41"/>
      <point x="406" y="-78"/>
      <point x="406" y="-123" type="curve" smooth="yes"/>
      <point x="406" y="-170"/>
      <point x="369" y="-209"/>
      <point x="322" y="-209" type="curve" smooth="yes"/>
      <point x="291" y="-209"/>
      <point x="250" y="-189"/>
      <point x="250" y="-163" type="curve" smooth="yes"/>
      <point x="250" y="-157"/>
      <point x="255" y="-154"/>
      <point x="260" y="-154" type="curve" smooth="yes"/>
      <point x="265" y="-154"/>
      <point x="268" y="-159"/>
      <point x="272" y="-164" type="curve" smooth="yes"/>
      <point x="281" y="-174"/>
      <point x="293" y="-187"/>
      <point x="322" y="-187" type="curve" smooth="yes"/>
      <point x="356" y="-187"/>
      <point x="383" y="-159"/>
      <point x="383" y="-125" type="curve" smooth="yes"/>
      <point x="383" y="-91"/>
      <point x="356" y="-64"/>
      <point x="322" y="-64" type="curve" smooth="yes"/>
      <point x="304" y="-64"/>
      <point x="293" y="-70"/>
      <point x="286" y="-75" type="curve" smooth="yes"/>
      <point x="282" y="-78"/>
      <point x="279" y="-79"/>
      <point x="276" y="-79" type="curve" smooth="yes"/>
      <point x="269" y="-79"/>
      <point x="266" y="-74"/>
      <point x="266" y="-70" type="curve" smooth="yes"/>
      <point x="266" y="-64"/>
      <point x="284" y="-8"/>
    </contour>
  </outline>
</glyph>
<glyph name="Egrave" format="1">
  <advance width="600"/>
  <unicode hex="00C8"/>
  <outline>
    <contour>
      <point x="106" y="38" type="line"/>
      <point x="526" y="38" type="line" smooth="yes"/>
      <point x="536" y="38"/>
      <point x="545" y="30"/>
      <point x="545" y="20" type="curve" smooth="yes"/>
      <point x="545" y="9"/>
      <point x="536" y="0"/>
      <point x="526" y="0" type="curve" smooth="yes"/>
      <point x="87" y="0" type="line" smooth="yes"/>
      <point x="77" y="0"/>
      <point x="68" y="9"/>
      <point x="68" y="20" type="curve" smooth="yes"/>
      <point x="68" y="664" type="line" smooth="yes"/>
      <point x="68" y="674"/>
      <point x="77" y="682"/>
      <point x="87" y="682" type="curve" smooth="yes"/>
      <point x="528" y="682" type="line" smooth="yes"/>
      <point x="538" y="682"/>
      <point x="547" y="674"/>
      <point x="547" y="664" type="curve" smooth="yes"/>
      <point x="547" y="653"/>
      <point x="538" y="644"/>
      <point x="528" y="644" type="curve" smooth="yes"/>
      <point x="106" y="644" type="line"/>
      <point x="106" y="372" type="line"/>
      <point x="478" y="372" type="line" smooth="yes"/>
      <point x="488" y="372"/>
      <point x="496" y="364"/>
      <point x="496" y="353" type="curve" smooth="yes"/>
      <point x="496" y="343"/>
      <point x="488" y="334"/>
      <point x="478" y="334" type="curve" smooth="yes"/>
      <point x="106" y="334" type="line"/>
    </contour>
    <contour>
      <point x="245" y="901" type="curve" smooth="yes"/>
      <point x="354" y="765" type="line" smooth="yes"/>
      <point x="358" y="760"/>
      <point x="360" y="756"/>
      <point x="360" y="752" type="curve" smooth="yes"/>
      <point x="360" y="742"/>
      <point x="350" y="736"/>
      <point x="341" y="736" type="curve" smooth="yes"/>
      <point x="337" y="736"/>
      <point x="332" y="738"/>
      <point x="328" y="742" type="curve" smooth="yes"/>
      <point x="205" y="868" type="line" smooth="yes"/>
      <point x="200" y="874"/>
      <point x="197" y="880"/>
      <point x="197" y="887" type="curve" smooth="yes"/>
      <point x="197" y="901"/>
      <point x="210" y="912"/>
      <point x="224" y="912" type="curve" smooth="yes"/>
      <point x="232" y="912"/>
      <point x="239" y="909"/>
    </contour>
  </outline>
</glyph>
<glyph name="Eacute" format="1">
  <advance width="600"/>
  <unicode hex="00C9"/>
  <outline>
    <contour>
      <point x="106" y="38" type="line"/>
      <point x="526" y="38" type="line" smooth="yes"/>
      <point x="536" y="38"/>
      <point x="545" y="30"/>
      <point x="545" y="20" type="curve" smooth="yes"/>
      <point x="545" y="9"/>
      <point x="536" y="0"/>
      <point x="526" y="0" type="curve" smooth="yes"/>
      <point x="87" y="0" type="line" smooth="yes"/>
      <point x="77" y="0"/>
      <point x="68" y="9"/>
      <point x="68" y="20" type="curve" smooth="yes"/>
      <point x="68" y="664" type="line" smooth="yes"/>
      <point x="68" y="674"/>
      <point x="77" y="682"/>
      <point x="87" y="682" type="curve" smooth="yes"/>
      <point x="528" y="682" type="line" smooth="yes"/>
      <point x="538" y="682"/>
      <point x="547" y="674"/>
      <point x="547" y="664" type="curve" smooth="yes"/>
      <point x="547" y="653"/>
      <point x="538" y="644"/>
      <point x="528" y="644" type="curve" smooth="yes"/>
      <point x="106" y="644" type="line"/>
      <point x="106" y="372" type="line"/>
      <point x="478" y="372" type="line" smooth="yes"/>
      <point x="488" y="372"/>
      <point x="496" y="364"/>
      <point x="496" y="353" type="curve" smooth="yes"/>
      <point x="496" y="343"/>
      <point x="488" y="334"/>
      <point x="478" y="334" type="curve" smooth="yes"/>
      <point x="106" y="334" type="line"/>
    </contour>
    <contour>
      <point x="394" y="857" type="curve" smooth="yes"/>
      <point x="251" y="759" type="line" smooth="yes"/>
      <point x="244" y="754"/>
      <point x="239" y="752"/>
      <point x="235" y="752" type="curve" smooth="yes"/>
      <point x="226" y="752"/>
      <point x="218" y="760"/>
      <point x="218" y="769" type="curve" smooth="yes"/>
      <point x="218" y="772"/>
      <point x="218" y="777"/>
      <point x="224" y="782" type="curve" smooth="yes"/>
      <point x="352" y="886" type="line" smooth="yes"/>
      <point x="361" y="893"/>
      <point x="368" y="900"/>
      <point x="378" y="900" type="curve" smooth="yes"/>
      <point x="389" y="900"/>
      <point x="402" y="887"/>
      <point x="402" y="873" type="curve" smooth="yes"/>
      <point x="402" y="866"/>
      <point x="401" y="862"/>
    </contour>
  </outline>
</glyph>
<glyph name="Edieresis" format="1">
  <advance width="600"/>
  <unicode hex="00CB"/>
  <outline>
    <contour>
      <point x="270" y="790" type="curve" smooth="yes"/>
      <point x="270" y="771"/>
      <point x="251" y="755"/>
      <point x="227" y="755" type="curve" smooth="yes"/>
      <point x="208" y="755"/>
      <point x="191" y="768"/>
      <point x="191" y="785" type="curve" smooth="yes"/>
      <point x="191" y="804"/>
      <point x="210" y="820"/>
      <point x="233" y="820" type="curve" smooth="yes"/>
      <point x="252" y="820"/>
      <point x="270" y="807"/>
    </contour>
    <contour>
      <point x="433" y="790" type="curve" smooth="yes"/>
      <point x="433" y="771"/>
      <point x="415" y="755"/>
      <point x="391" y="755" type="curve" smooth="yes"/>
      <point x="372" y="755"/>
      <point x="355" y="768"/>
      <point x="355" y="785" type="curve" smooth="yes"/>
      <point x="355" y="804"/>
      <point x="374" y="820"/>
      <point x="397" y="820" type="curve" smooth="yes"/>
      <point x="416" y="820"/>
      <point x="433" y="807"/>
    </contour>
    <contour>
      <point x="106" y="38" type="line"/>
      <point x="526" y="38" type="line" smooth="yes"/>
      <point x="536" y="38"/>
      <point x="545" y="30"/>
      <point x="545" y="20" type="curve" smooth="yes"/>
      <point x="545" y="9"/>
      <point x="536" y="0"/>
      <point x="526" y="0" type="curve" smooth="yes"/>
      <point x="87" y="0" type="line" smooth="yes"/>
      <point x="77" y="0"/>
      <point x="68" y="9"/>
      <point x="68" y="20" type="curve" smooth="yes"/>
      <point x="68" y="664" type="line" smooth="yes"/>
      <point x="68" y="674"/>
      <point x="77" y="682"/>
      <point x="87" y="682" type="curve" smooth="yes"/>
      <point x="528" y="682" type="line" smooth="yes"/>
      <point x="538" y="682"/>
      <point x="547" y="674"/>
      <point x="547" y="664" type="curve" smooth="yes"/>
      <point x="547" y="653"/>
      <point x="538" y="644"/>
      <point x="528" y="644" type="curve" smooth="yes"/>
      <point x="106" y="644" type="line"/>
      <point x="106" y="372" type="line"/>
      <point x="478" y="372" type="line" smooth="yes"/>
      <point x="488" y="372"/>
      <point x="496" y="364"/>
      <point x="496" y="353" type="curve" smooth="yes"/>
      <point x="496" y="343"/>
      <point x="488" y="334"/>
      <point x="478" y="334" type="curve" smooth="yes"/>
      <point x="106" y="334" type="line"/>
    </contour>
  </outline>
</glyph>
<glyph name="Igrave" format="1">
  <advance width="423"/>
  <unicode hex="00CC"/>
  <outline>
    <contour>
      <point x="235" y="37" type="line"/>
      <point x="347" y="37" type="line" smooth="yes"/>
      <point x="359" y="37"/>
      <point x="366" y="29"/>
      <point x="366" y="19" type="curve" smooth="yes"/>
      <point x="366" y="8"/>
      <point x="357" y="-1"/>
      <point x="347" y="-1" type="curve" smooth="yes"/>
      <point x="83" y="-1" type="line" smooth="yes"/>
      <point x="73" y="-1"/>
      <point x="64" y="8"/>
      <point x="64" y="19" type="curve" smooth="yes"/>
      <point x="64" y="29"/>
      <point x="73" y="37"/>
      <point x="83" y="37" type="curve" smooth="yes"/>
      <point x="197" y="37" type="line"/>
      <point x="197" y="643" type="line"/>
      <point x="83" y="643" type="line" smooth="yes"/>
      <point x="73" y="643"/>
      <point x="64" y="652"/>
      <point x="64" y="662" type="curve" smooth="yes"/>
      <point x="64" y="673"/>
      <point x="73" y="681"/>
      <point x="83" y="681" type="curve" smooth="yes"/>
      <point x="347" y="681" type="line" smooth="yes"/>
      <point x="357" y="681"/>
      <point x="366" y="673"/>
      <point x="366" y="662" type="curve" smooth="yes"/>
      <point x="366" y="652"/>
      <point x="357" y="643"/>
      <point x="347" y="643" type="curve" smooth="yes"/>
      <point x="235" y="643" type="line"/>
    </contour>
    <contour>
      <point x="175" y="901" type="curve" smooth="yes"/>
      <point x="284" y="765" type="line" smooth="yes"/>
      <point x="288" y="760"/>
      <point x="290" y="756"/>
      <point x="290" y="752" type="curve" smooth="yes"/>
      <point x="290" y="742"/>
      <point x="280" y="736"/>
      <point x="271" y="736" type="curve" smooth="yes"/>
      <point x="267" y="736"/>
      <point x="262" y="738"/>
      <point x="258" y="742" type="curve" smooth="yes"/>
      <point x="135" y="868" type="line" smooth="yes"/>
      <point x="130" y="874"/>
      <point x="127" y="880"/>
      <point x="127" y="887" type="curve" smooth="yes"/>
      <point x="127" y="901"/>
      <point x="140" y="912"/>
      <point x="154" y="912" type="curve" smooth="yes"/>
      <point x="162" y="912"/>
      <point x="169" y="909"/>
    </contour>
  </outline>
</glyph>
<glyph name="Iacute" format="1">
  <advance width="423"/>
  <unicode hex="00CD"/>
  <outline>
    <contour>
      <point x="235" y="37" type="line"/>
      <point x="347" y="37" type="line" smooth="yes"/>
      <point x="359" y="37"/>
      <point x="366" y="29"/>
      <point x="366" y="19" type="curve" smooth="yes"/>
      <point x="366" y="8"/>
      <point x="357" y="-1"/>
      <point x="347" y="-1" type="curve" smooth="yes"/>
      <point x="83" y="-1" type="line" smooth="yes"/>
      <point x="73" y="-1"/>
      <point x="64" y="8"/>
      <point x="64" y="19" type="curve" smooth="yes"/>
      <point x="64" y="29"/>
      <point x="73" y="37"/>
      <point x="83" y="37" type="curve" smooth="yes"/>
      <point x="197" y="37" type="line"/>
      <point x="197" y="643" type="line"/>
      <point x="83" y="643" type="line" smooth="yes"/>
      <point x="73" y="643"/>
      <point x="64" y="652"/>
      <point x="64" y="662" type="curve" smooth="yes"/>
      <point x="64" y="673"/>
      <point x="73" y="681"/>
      <point x="83" y="681" type="curve" smooth="yes"/>
      <point x="347" y="681" type="line" smooth="yes"/>
      <point x="357" y="681"/>
      <point x="366" y="673"/>
      <point x="366" y="662" type="curve" smooth="yes"/>
      <point x="366" y="652"/>
      <point x="357" y="643"/>
      <point x="347" y="643" type="curve" smooth="yes"/>
      <point x="235" y="643" type="line"/>
    </contour>
    <contour>
      <point x="318" y="857" type="curve" smooth="yes"/>
      <point x="175" y="759" type="line" smooth="yes"/>
      <point x="168" y="754"/>
      <point x="163" y="752"/>
      <point x="159" y="752" type="curve" smooth="yes"/>
      <point x="150" y="752"/>
      <point x="142" y="760"/>
      <point x="142" y="769" type="curve" smooth="yes"/>
      <point x="142" y="772"/>
      <point x="142" y="777"/>
      <point x="148" y="782" type="curve" smooth="yes"/>
      <point x="276" y="886" type="line" smooth="yes"/>
      <point x="285" y="893"/>
      <point x="292" y="900"/>
      <point x="302" y="900" type="curve" smooth="yes"/>
      <point x="313" y="900"/>
      <point x="326" y="887"/>
      <point x="326" y="873" type="curve" smooth="yes"/>
      <point x="326" y="866"/>
      <point x="325" y="862"/>
    </contour>
  </outline>
</glyph>
<glyph name="Idieresis" format="1">
  <advance width="423"/>
  <unicode hex="00CF"/>
  <outline>
    <contour>
      <point x="177" y="790" type="curve" smooth="yes"/>
      <point x="177" y="771"/>
      <point x="159" y="755"/>
      <point x="135" y="755" type="curve" smooth="yes"/>
      <point x="115" y="755"/>
      <point x="99" y="768"/>
      <point x="99" y="785" type="curve" smooth="yes"/>
      <point x="99" y="804"/>
      <point x="117" y="820"/>
      <point x="141" y="820" type="curve" smooth="yes"/>
      <point x="160" y="820"/>
      <point x="177" y="807"/>
    </contour>
    <contour>
      <point x="341" y="790" type="curve" smooth="yes"/>
      <point x="341" y="771"/>
      <point x="322" y="755"/>
      <point x="299" y="755" type="curve" smooth="yes"/>
      <point x="279" y="755"/>
      <point x="263" y="768"/>
      <point x="263" y="785" type="curve" smooth="yes"/>
      <point x="263" y="804"/>
      <point x="281" y="820"/>
      <point x="305" y="820" type="curve" smooth="yes"/>
      <point x="323" y="820"/>
      <point x="341" y="807"/>
    </contour>
    <contour>
      <point x="235" y="37" type="line"/>
      <point x="347" y="37" type="line" smooth="yes"/>
      <point x="359" y="37"/>
      <point x="366" y="29"/>
      <point x="366" y="19" type="curve" smooth="yes"/>
      <point x="366" y="8"/>
      <point x="357" y="-1"/>
      <point x="347" y="-1" type="curve" smooth="yes"/>
      <point x="83" y="-1" type="line" smooth="yes"/>
      <point x="73" y="-1"/>
      <point x="64" y="8"/>
      <point x="64" y="19" type="curve" smooth="yes"/>
      <point x="64" y="29"/>
      <point x="73" y="37"/>
      <point x="83" y="37" type="curve" smooth="yes"/>
      <point x="197" y="37" type="line"/>
      <point x="197" y="643" type="line"/>
      <point x="83" y="643" type="line" smooth="yes"/>
      <point x="73" y="643"/>
      <point x="64" y="652"/>
      <point x="64" y="662" type="curve" smooth="yes"/>
      <point x="64" y="673"/>
      <point x="73" y="681"/>
      <point x="83" y="681" type="curve" smooth="yes"/>
      <point x="347" y="681" type="line" smooth="yes"/>
      <point x="357" y="681"/>
      <point x="366" y="673"/>
      <point x="366" y="662" type="curve" smooth="yes"/>
      <point x="366" y="652"/>
      <point x="357" y="643"/>
      <point x="347" y="643" type="curve" smooth="yes"/>
      <point x="235" y="643" type="line"/>
    </contour>
  </outline>
</glyph>
<glyph name="Ntilde" format="1">
  <advance width="609"/>
  <unicode hex="00D1"/>
  <outline>
    <contour>
      <point x="517" y="7" type="curve" smooth="yes"/>
      <point x="106" y="603" type="line"/>
      <point x="105" y="19" type="line" smooth="yes"/>
      <point x="105" y="8"/>
      <point x="96" y="0"/>
      <point x="86" y="0" type="curve" smooth="yes"/>
      <point x="76" y="0"/>
      <point x="68" y="8"/>
      <point x="68" y="19" type="curve" smooth="yes"/>
      <point x="69" y="662" type="line" smooth="yes"/>
      <point x="69" y="673"/>
      <point x="76" y="681"/>
      <point x="86" y="681" type="curve" smooth="yes"/>
      <point x="94" y="681"/>
      <point x="100" y="678"/>
      <point x="105" y="670" type="curve" smooth="yes"/>
      <point x="514" y="77" type="line"/>
      <point x="514" y="664" type="line" smooth="yes"/>
      <point x="514" y="674"/>
      <point x="522" y="682"/>
      <point x="532" y="682" type="curve" smooth="yes"/>
      <point x="543" y="682"/>
      <point x="551" y="674"/>
      <point x="551" y="664" type="curve" smooth="yes"/>
      <point x="551" y="19" type="line" smooth="yes"/>
      <point x="551" y="8"/>
      <point x="543" y="0"/>
      <point x="532" y="0" type="curve" smooth="yes"/>
      <point x="525" y="0"/>
      <point x="520" y="2"/>
    </contour>
    <contour>
      <point x="462" y="844" type="curve" smooth="yes"/>
      <point x="464" y="850"/>
      <point x="469" y="855"/>
      <point x="478" y="855" type="curve" smooth="yes"/>
      <point x="487" y="855"/>
      <point x="492" y="849"/>
      <point x="492" y="841" type="curve" smooth="yes"/>
      <point x="492" y="803"/>
      <point x="443" y="735"/>
      <point x="389" y="735" type="curve" smooth="yes"/>
      <point x="348" y="735"/>
      <point x="327" y="766"/>
      <point x="308" y="792" type="curve" smooth="yes"/>
      <point x="282" y="829"/>
      <point x="271" y="842"/>
      <point x="251" y="842" type="curve" smooth="yes"/>
      <point x="235" y="842"/>
      <point x="195" y="829"/>
      <point x="178" y="771" type="curve" smooth="yes"/>
      <point x="175" y="762"/>
      <point x="170" y="758"/>
      <point x="163" y="758" type="curve" smooth="yes"/>
      <point x="153" y="758"/>
      <point x="150" y="766"/>
      <point x="150" y="774" type="curve" smooth="yes"/>
      <point x="150" y="816"/>
      <point x="204" y="869"/>
      <point x="251" y="869" type="curve" smooth="yes"/>
      <point x="292" y="869"/>
      <point x="313" y="839"/>
      <point x="332" y="811" type="curve" smooth="yes"/>
      <point x="349" y="786"/>
      <point x="370" y="761"/>
      <point x="391" y="761" type="curve" smooth="yes"/>
      <point x="429" y="761"/>
      <point x="450" y="812"/>
    </contour>
  </outline>
</glyph>
<glyph name="Ograve" format="1">
  <advance width="650"/>
  <unicode hex="00D2"/>
  <outline>
    <contour>
      <point x="308" y="-2" type="curve" smooth="yes"/>
      <point x="165" y="-2"/>
      <point x="62" y="142"/>
      <point x="62" y="312" type="curve" smooth="yes"/>
      <point x="62" y="513"/>
      <point x="196" y="682"/>
      <point x="352" y="682" type="curve" smooth="yes"/>
      <point x="494" y="682"/>
      <point x="598" y="540"/>
      <point x="598" y="368" type="curve" smooth="yes"/>
      <point x="598" y="167"/>
      <point x="464" y="-2"/>
    </contour>
    <contour>
      <point x="344" y="649" type="curve" smooth="yes"/>
      <point x="213" y="649"/>
      <point x="96" y="500"/>
      <point x="96" y="312" type="curve" smooth="yes"/>
      <point x="96" y="159"/>
      <point x="185" y="31"/>
      <point x="308" y="31" type="curve" smooth="yes"/>
      <point x="440" y="31"/>
      <point x="564" y="183"/>
      <point x="564" y="364" type="curve" smooth="yes"/>
      <point x="564" y="508"/>
      <point x="473" y="649"/>
    </contour>
    <contour>
      <point x="315" y="901" type="curve" smooth="yes"/>
      <point x="424" y="765" type="line" smooth="yes"/>
      <point x="428" y="760"/>
      <point x="430" y="756"/>
      <point x="430" y="752" type="curve" smooth="yes"/>
      <point x="430" y="742"/>
      <point x="420" y="736"/>
      <point x="411" y="736" type="curve" smooth="yes"/>
      <point x="407" y="736"/>
      <point x="402" y="738"/>
      <point x="398" y="742" type="curve" smooth="yes"/>
      <point x="275" y="868" type="line" smooth="yes"/>
      <point x="270" y="874"/>
      <point x="267" y="880"/>
      <point x="267" y="887" type="curve" smooth="yes"/>
      <point x="267" y="901"/>
      <point x="280" y="912"/>
      <point x="294" y="912" type="curve" smooth="yes"/>
      <point x="302" y="912"/>
      <point x="309" y="909"/>
    </contour>
  </outline>
</glyph>
<glyph name="Oacute" format="1">
  <advance width="650"/>
  <unicode hex="00D3"/>
  <outline>
    <contour>
      <point x="308" y="-2" type="curve" smooth="yes"/>
      <point x="165" y="-2"/>
      <point x="62" y="142"/>
      <point x="62" y="312" type="curve" smooth="yes"/>
      <point x="62" y="513"/>
      <point x="196" y="682"/>
      <point x="352" y="682" type="curve" smooth="yes"/>
      <point x="494" y="682"/>
      <point x="598" y="540"/>
      <point x="598" y="368" type="curve" smooth="yes"/>
      <point x="598" y="167"/>
      <point x="464" y="-2"/>
    </contour>
    <contour>
      <point x="344" y="649" type="curve" smooth="yes"/>
      <point x="213" y="649"/>
      <point x="96" y="500"/>
      <point x="96" y="312" type="curve" smooth="yes"/>
      <point x="96" y="159"/>
      <point x="185" y="31"/>
      <point x="308" y="31" type="curve" smooth="yes"/>
      <point x="440" y="31"/>
      <point x="564" y="183"/>
      <point x="564" y="364" type="curve" smooth="yes"/>
      <point x="564" y="508"/>
      <point x="473" y="649"/>
    </contour>
    <contour>
      <point x="451" y="857" type="curve" smooth="yes"/>
      <point x="308" y="759" type="line" smooth="yes"/>
      <point x="301" y="754"/>
      <point x="296" y="752"/>
      <point x="292" y="752" type="curve" smooth="yes"/>
      <point x="283" y="752"/>
      <point x="275" y="760"/>
      <point x="275" y="769" type="curve" smooth="yes"/>
      <point x="275" y="772"/>
      <point x="275" y="777"/>
      <point x="281" y="782" type="curve" smooth="yes"/>
      <point x="409" y="886" type="line" smooth="yes"/>
      <point x="418" y="893"/>
      <point x="425" y="900"/>
      <point x="435" y="900" type="curve" smooth="yes"/>
      <point x="446" y="900"/>
      <point x="459" y="887"/>
      <point x="459" y="873" type="curve" smooth="yes"/>
      <point x="459" y="866"/>
      <point x="458" y="862"/>
    </contour>
  </outline>
</glyph>
<glyph name="Otilde" format="1">
  <advance width="650"/>
  <unicode hex="00D5"/>
  <outline>
    <contour>
      <point x="308" y="-2" type="curve" smooth="yes"/>
      <point x="165" y="-2"/>
      <point x="62" y="142"/>
      <point x="62" y="312" type="curve" smooth="yes"/>
      <point x="62" y="513"/>
      <point x="196" y="682"/>
      <point x="352" y="682" type="curve" smooth="yes"/>
      <point x="494" y="682"/>
      <point x="598" y="540"/>
      <point x="598" y="368" type="curve" smooth="yes"/>
      <point x="598" y="167"/>
      <point x="464" y="-2"/>
    </contour>
    <contour>
      <point x="344" y="649" type="curve" smooth="yes"/>
      <point x="213" y="649"/>
      <point x="96" y="500"/>
      <point x="96" y="312" type="curve" smooth="yes"/>
      <point x="96" y="159"/>
      <point x="185" y="31"/>
      <point x="308" y="31" type="curve" smooth="yes"/>
      <point x="440" y="31"/>
      <point x="564" y="183"/>
      <point x="564" y="364" type="curve" smooth="yes"/>
      <point x="564" y="508"/>
      <point x="473" y="649"/>
    </contour>
    <contour>
      <point x="510" y="844" type="curve" smooth="yes"/>
      <point x="512" y="850"/>
      <point x="517" y="855"/>
      <point x="526" y="855" type="curve" smooth="yes"/>
      <point x="535" y="855"/>
      <point x="540" y="849"/>
      <point x="540" y="841" type="curve" smooth="yes"/>
      <point x="540" y="803"/>
      <point x="491" y="735"/>
      <point x="437" y="735" type="curve" smooth="yes"/>
      <point x="396" y="735"/>
      <point x="375" y="766"/>
      <point x="356" y="792" type="curve" smooth="yes"/>
      <point x="330" y="829"/>
      <point x="319" y="842"/>
      <point x="299" y="842" type="curve" smooth="yes"/>
      <point x="283" y="842"/>
      <point x="243" y="829"/>
      <point x="226" y="771" type="curve" smooth="yes"/>
      <point x="223" y="762"/>
      <point x="218" y="758"/>
      <point x="211" y="758" type="curve" smooth="yes"/>
      <point x="201" y="758"/>
      <point x="198" y="766"/>
      <point x="198" y="774" type="curve" smooth="yes"/>
      <point x="198" y="816"/>
      <point x="252" y="869"/>
      <point x="299" y="869" type="curve" smooth="yes"/>
      <point x="340" y="869"/>
      <point x="361" y="839"/>
      <point x="380" y="811" type="curve" smooth="yes"/>
      <point x="397" y="786"/>
      <point x="418" y="761"/>
      <point x="439" y="761" type="curve" smooth="yes"/>
      <point x="477" y="761"/>
      <point x="498" y="812"/>
    </contour>
  </outline>
</glyph>
<glyph name="Odieresis" format="1">
  <advance width="650"/>
  <unicode hex="00D6"/>
  <outline>
    <contour>
      <point x="308" y="-2" type="curve" smooth="yes"/>
      <point x="165" y="-2"/>
      <point x="62" y="142"/>
      <point x="62" y="312" type="curve" smooth="yes"/>
      <point x="62" y="513"/>
      <point x="196" y="682"/>
      <point x="352" y="682" type="curve" smooth="yes"/>
      <point x="494" y="682"/>
      <point x="598" y="540"/>
      <point x="598" y="368" type="curve" smooth="yes"/>
      <point x="598" y="167"/>
      <point x="464" y="-2"/>
    </contour>
    <contour>
      <point x="344" y="649" type="curve" smooth="yes"/>
      <point x="213" y="649"/>
      <point x="96" y="500"/>
      <point x="96" y="312" type="curve" smooth="yes"/>
      <point x="96" y="159"/>
      <point x="185" y="31"/>
      <point x="308" y="31" type="curve" smooth="yes"/>
      <point x="440" y="31"/>
      <point x="564" y="183"/>
      <point x="564" y="364" type="curve" smooth="yes"/>
      <point x="564" y="508"/>
      <point x="473" y="649"/>
    </contour>
    <contour>
      <point x="321" y="790" type="curve" smooth="yes"/>
      <point x="321" y="771"/>
      <point x="302" y="755"/>
      <point x="278" y="755" type="curve" smooth="yes"/>
      <point x="259" y="755"/>
      <point x="242" y="768"/>
      <point x="242" y="785" type="curve" smooth="yes"/>
      <point x="242" y="804"/>
      <point x="261" y="820"/>
      <point x="285" y="820" type="curve" smooth="yes"/>
      <point x="303" y="820"/>
      <point x="321" y="807"/>
    </contour>
    <contour>
      <point x="485" y="790" type="curve" smooth="yes"/>
      <point x="485" y="771"/>
      <point x="466" y="755"/>
      <point x="442" y="755" type="curve" smooth="yes"/>
      <point x="423" y="755"/>
      <point x="406" y="768"/>
      <point x="406" y="785" type="curve" smooth="yes"/>
      <point x="406" y="804"/>
      <point x="425" y="820"/>
      <point x="448" y="820" type="curve" smooth="yes"/>
      <point x="467" y="820"/>
      <point x="485" y="807"/>
    </contour>
  </outline>
</glyph>
<glyph name="Oslash" format="1">
  <advance width="650"/>
  <unicode hex="00D8"/>
  <outline>
    <contour>
      <point x="95" y="-6" type="curve" smooth="yes"/>
      <point x="141" y="78" type="line"/>
      <point x="92" y="139"/>
      <point x="62" y="223"/>
      <point x="62" y="312" type="curve" smooth="yes"/>
      <point x="62" y="513"/>
      <point x="196" y="682"/>
      <point x="352" y="682" type="curve" smooth="yes"/>
      <point x="387" y="682"/>
      <point x="424" y="671"/>
      <point x="461" y="650" type="curve"/>
      <point x="508" y="737" type="line" smooth="yes"/>
      <point x="511" y="742"/>
      <point x="516" y="745"/>
      <point x="523" y="745" type="curve" smooth="yes"/>
      <point x="530" y="745"/>
      <point x="539" y="740"/>
      <point x="539" y="729" type="curve" smooth="yes"/>
      <point x="539" y="726"/>
      <point x="538" y="722"/>
      <point x="537" y="720" type="curve" smooth="yes"/>
      <point x="488" y="632" type="line"/>
      <point x="556" y="570"/>
      <point x="598" y="474"/>
      <point x="598" y="368" type="curve" smooth="yes"/>
      <point x="598" y="167"/>
      <point x="464" y="-2"/>
      <point x="308" y="-2" type="curve" smooth="yes"/>
      <point x="258" y="-2"/>
      <point x="209" y="18"/>
      <point x="166" y="53" type="curve"/>
      <point x="123" y="-25" type="line" smooth="yes"/>
      <point x="120" y="-30"/>
      <point x="116" y="-33"/>
      <point x="110" y="-33" type="curve" smooth="yes"/>
      <point x="98" y="-33"/>
      <point x="92" y="-26"/>
      <point x="92" y="-16" type="curve" smooth="yes"/>
      <point x="92" y="-13"/>
      <point x="93" y="-9"/>
    </contour>
    <contour>
      <point x="308" y="31" type="curve" smooth="yes"/>
      <point x="440" y="31"/>
      <point x="564" y="183"/>
      <point x="564" y="364" type="curve" smooth="yes"/>
      <point x="564" y="448"/>
      <point x="529" y="538"/>
      <point x="470" y="599" type="curve"/>
      <point x="183" y="82" type="line"/>
      <point x="220" y="49"/>
      <point x="262" y="31"/>
    </contour>
    <contour>
      <point x="344" y="649" type="curve" smooth="yes"/>
      <point x="213" y="649"/>
      <point x="96" y="500"/>
      <point x="96" y="312" type="curve" smooth="yes"/>
      <point x="96" y="240"/>
      <point x="119" y="169"/>
      <point x="159" y="109" type="curve"/>
      <point x="443" y="619" type="line"/>
      <point x="410" y="639"/>
      <point x="377" y="649"/>
    </contour>
  </outline>
</glyph>
<glyph name="Yacute" format="1">
  <advance width="583"/>
  <unicode hex="00DD"/>
  <outline>
    <contour>
      <point x="571" y="681" type="curve" smooth="yes"/>
      <point x="581" y="681"/>
      <point x="590" y="674"/>
      <point x="590" y="664" type="curve" smooth="yes"/>
      <point x="590" y="660"/>
      <point x="589" y="656"/>
      <point x="583" y="646" type="curve" smooth="yes"/>
      <point x="205" y="9" type="line" smooth="yes"/>
      <point x="201" y="2"/>
      <point x="196" y="0"/>
      <point x="191" y="0" type="curve" smooth="yes"/>
      <point x="179" y="0"/>
      <point x="171" y="9"/>
      <point x="171" y="17" type="curve" smooth="yes"/>
      <point x="171" y="23"/>
      <point x="173" y="27"/>
      <point x="176" y="32" type="curve" smooth="yes"/>
      <point x="282" y="210" type="line"/>
      <point x="26" y="649" type="line" smooth="yes"/>
      <point x="24" y="653"/>
      <point x="21" y="659"/>
      <point x="21" y="664" type="curve" smooth="yes"/>
      <point x="21" y="675"/>
      <point x="31" y="681"/>
      <point x="41" y="681" type="curve" smooth="yes"/>
      <point x="46" y="681"/>
      <point x="52" y="678"/>
      <point x="55" y="672" type="curve" smooth="yes"/>
      <point x="304" y="246" type="line"/>
      <point x="556" y="672" type="line" smooth="yes"/>
      <point x="559" y="678"/>
      <point x="565" y="681"/>
    </contour>
    <contour>
      <point x="400" y="857" type="curve" smooth="yes"/>
      <point x="257" y="759" type="line" smooth="yes"/>
      <point x="250" y="754"/>
      <point x="245" y="752"/>
      <point x="241" y="752" type="curve" smooth="yes"/>
      <point x="232" y="752"/>
      <point x="224" y="760"/>
      <point x="224" y="769" type="curve" smooth="yes"/>
      <point x="224" y="772"/>
      <point x="224" y="777"/>
      <point x="230" y="782" type="curve" smooth="yes"/>
      <point x="358" y="886" type="line" smooth="yes"/>
      <point x="367" y="893"/>
      <point x="374" y="900"/>
      <point x="384" y="900" type="curve" smooth="yes"/>
      <point x="395" y="900"/>
      <point x="408" y="887"/>
      <point x="408" y="873" type="curve" smooth="yes"/>
      <point x="408" y="866"/>
      <point x="407" y="862"/>
    </contour>
  </outline>
</glyph>
<glyph name="Thorn" format="1">
  <advance width="537"/>
  <unicode hex="00DE"/>
  <outline>
    <contour>
      <point x="101" y="664" type="curve" smooth="yes"/>
      <point x="101" y="569" type="line"/>
      <point x="250" y="569"/>
      <point x="469" y="550"/>
      <point x="469" y="376" type="curve" smooth="yes"/>
      <point x="469" y="202"/>
      <point x="246" y="150"/>
      <point x="100" y="147" type="curve"/>
      <point x="100" y="15" type="line" smooth="yes"/>
      <point x="100" y="7"/>
      <point x="93" y="0"/>
      <point x="84" y="0" type="curve" smooth="yes"/>
      <point x="75" y="0"/>
      <point x="68" y="7"/>
      <point x="68" y="16" type="curve" smooth="yes"/>
      <point x="70" y="665" type="line" smooth="yes"/>
      <point x="70" y="673"/>
      <point x="77" y="680"/>
      <point x="86" y="680" type="curve" smooth="yes"/>
      <point x="95" y="680"/>
      <point x="101" y="673"/>
    </contour>
    <contour>
      <point x="101" y="533" type="curve"/>
      <point x="101" y="183" type="line"/>
      <point x="210" y="184"/>
      <point x="437" y="225"/>
      <point x="437" y="376" type="curve" smooth="yes"/>
      <point x="437" y="476"/>
      <point x="331" y="535"/>
      <point x="150" y="535" type="curve" smooth="yes"/>
      <point x="135" y="535"/>
      <point x="122" y="535"/>
    </contour>
  </outline>
</glyph>
<glyph name="germandbls" format="1">
  <advance width="515"/>
  <unicode hex="00DF"/>
  <outline>
    <contour>
      <point x="202" y="26" type="curve" smooth="yes"/>
      <point x="228" y="13"/>
      <point x="252" y="7"/>
      <point x="279" y="7" type="curve" smooth="yes"/>
      <point x="365" y="7"/>
      <point x="441" y="81"/>
      <point x="441" y="170" type="curve" smooth="yes"/>
      <point x="441" y="251.813"/>
      <point x="378.213" y="330.974"/>
      <point x="275.924" y="330.974" type="curve" smooth="yes"/>
      <point x="269.44" y="330.974"/>
      <point x="262.796" y="330.656"/>
      <point x="256" y="330" type="curve" smooth="yes"/>
      <point x="247" y="329"/>
      <point x="238" y="327"/>
      <point x="227" y="327" type="curve" smooth="yes"/>
      <point x="217" y="327"/>
      <point x="210" y="334"/>
      <point x="210" y="343" type="curve" smooth="yes"/>
      <point x="210" y="352"/>
      <point x="214" y="360"/>
      <point x="225" y="361" type="curve" smooth="yes"/>
      <point x="240" y="362" type="line" smooth="yes"/>
      <point x="308" y="367"/>
      <point x="352" y="423"/>
      <point x="352" y="486" type="curve" smooth="yes"/>
      <point x="352" y="554"/>
      <point x="297" y="612"/>
      <point x="227" y="612" type="curve" smooth="yes"/>
      <point x="158" y="612"/>
      <point x="101" y="554"/>
      <point x="101" y="486" type="curve" smooth="yes"/>
      <point x="101" y="16" type="line" smooth="yes"/>
      <point x="101" y="6"/>
      <point x="94" y="-1"/>
      <point x="84" y="-1" type="curve" smooth="yes"/>
      <point x="75" y="-1"/>
      <point x="67" y="6"/>
      <point x="67" y="16" type="curve" smooth="yes"/>
      <point x="67" y="486" type="line" smooth="yes"/>
      <point x="67" y="573"/>
      <point x="139" y="645"/>
      <point x="227" y="645" type="curve" smooth="yes"/>
      <point x="314" y="645"/>
      <point x="385" y="573"/>
      <point x="385" y="486" type="curve" smooth="yes"/>
      <point x="385" y="443"/>
      <point x="357" y="388"/>
      <point x="321" y="358" type="curve"/>
      <point x="408" y="339"/>
      <point x="474" y="257"/>
      <point x="474" y="169" type="curve" smooth="yes"/>
      <point x="474" y="63"/>
      <point x="385" y="-26"/>
      <point x="279" y="-26" type="curve" smooth="yes"/>
      <point x="244" y="-26"/>
      <point x="178" y="-15"/>
      <point x="178" y="11" type="curve" smooth="yes"/>
      <point x="178" y="21"/>
      <point x="185" y="28"/>
      <point x="193" y="28" type="curve" smooth="yes"/>
      <point x="195" y="28"/>
      <point x="198" y="28"/>
    </contour>
  </outline>
</glyph>
<glyph name="atilde" format="1">
  <advance width="495"/>
  <unicode hex="00E3"/>
  <outline>
    <contour>
      <point x="438" y="476" type="curve"/>
      <point x="438" y="21" type="line" smooth="yes"/>
      <point x="438" y="9"/>
      <point x="430" y="0"/>
      <point x="419" y="0" type="curve" smooth="yes"/>
      <point x="407" y="0"/>
      <point x="400" y="10"/>
      <point x="400" y="23" type="curve" smooth="yes"/>
      <point x="400" y="66" type="line"/>
      <point x="357" y="39"/>
      <point x="293" y="8"/>
      <point x="238" y="8" type="curve" smooth="yes"/>
      <point x="132" y="8"/>
      <point x="52" y="95"/>
      <point x="52" y="223" type="curve" smooth="yes"/>
      <point x="52" y="327"/>
      <point x="117" y="515"/>
      <point x="291" y="515" type="curve" smooth="yes"/>
      <point x="352" y="515"/>
      <point x="413" y="489"/>
    </contour>
    <contour>
      <point x="398" y="110" type="curve"/>
      <point x="402" y="452" type="line"/>
      <point x="380" y="463"/>
      <point x="331" y="478"/>
      <point x="294" y="478" type="curve" smooth="yes"/>
      <point x="144" y="478"/>
      <point x="91" y="316"/>
      <point x="91" y="225" type="curve" smooth="yes"/>
      <point x="91" y="148"/>
      <point x="129" y="45"/>
      <point x="236" y="45" type="curve" smooth="yes"/>
      <point x="301" y="45"/>
      <point x="372" y="93"/>
    </contour>
    <contour>
      <point x="408" y="690" type="curve" smooth="yes"/>
      <point x="410" y="696"/>
      <point x="415" y="701"/>
      <point x="424" y="701" type="curve" smooth="yes"/>
      <point x="433" y="701"/>
      <point x="438" y="695"/>
      <point x="438" y="687" type="curve" smooth="yes"/>
      <point x="438" y="649"/>
      <point x="389" y="581"/>
      <point x="335" y="581" type="curve" smooth="yes"/>
      <point x="294" y="581"/>
      <point x="273" y="612"/>
      <point x="254" y="638" type="curve" smooth="yes"/>
      <point x="228" y="675"/>
      <point x="217" y="688"/>
      <point x="197" y="688" type="curve" smooth="yes"/>
      <point x="181" y="688"/>
      <point x="141" y="675"/>
      <point x="124" y="617" type="curve" smooth="yes"/>
      <point x="121" y="608"/>
      <point x="116" y="604"/>
      <point x="109" y="604" type="curve" smooth="yes"/>
      <point x="99" y="604"/>
      <point x="96" y="612"/>
      <point x="96" y="620" type="curve" smooth="yes"/>
      <point x="96" y="662"/>
      <point x="150" y="715"/>
      <point x="197" y="715" type="curve" smooth="yes"/>
      <point x="238" y="715"/>
      <point x="259" y="685"/>
      <point x="278" y="657" type="curve" smooth="yes"/>
      <point x="295" y="632"/>
      <point x="316" y="607"/>
      <point x="337" y="607" type="curve" smooth="yes"/>
      <point x="375" y="607"/>
      <point x="396" y="658"/>
    </contour>
  </outline>
</glyph>
<glyph name="egrave" format="1">
  <advance width="511"/>
  <unicode hex="00E8"/>
  <outline>
    <contour>
      <point x="470" y="83" type="curve" smooth="yes"/>
      <point x="470" y="79"/>
      <point x="468" y="75"/>
      <point x="465" y="72" type="curve" smooth="yes"/>
      <point x="430" y="32"/>
      <point x="363" y="0"/>
      <point x="302" y="0" type="curve" smooth="yes"/>
      <point x="149" y="0"/>
      <point x="53" y="114"/>
      <point x="53" y="238" type="curve" smooth="yes"/>
      <point x="53" y="376"/>
      <point x="141" y="499"/>
      <point x="276" y="499" type="curve" smooth="yes"/>
      <point x="403" y="499"/>
      <point x="461" y="413"/>
      <point x="461" y="371" type="curve" smooth="yes"/>
      <point x="461" y="365"/>
      <point x="455" y="357"/>
      <point x="443" y="350" type="curve" smooth="yes"/>
      <point x="102" y="155" type="line"/>
      <point x="146" y="74"/>
      <point x="213" y="33"/>
      <point x="301" y="33" type="curve" smooth="yes"/>
      <point x="349" y="33"/>
      <point x="414" y="60"/>
      <point x="443" y="95" type="curve" smooth="yes"/>
      <point x="446" y="98"/>
      <point x="449" y="100"/>
      <point x="453" y="100" type="curve" smooth="yes"/>
      <point x="463" y="100"/>
      <point x="470" y="93"/>
    </contour>
    <contour>
      <point x="276" y="465" type="curve" smooth="yes"/>
      <point x="164" y="465"/>
      <point x="85" y="364"/>
      <point x="85" y="237" type="curve" smooth="yes"/>
      <point x="85" y="225"/>
      <point x="85" y="216"/>
      <point x="91" y="188" type="curve"/>
      <point x="427" y="373" type="line"/>
      <point x="404" y="432"/>
      <point x="358" y="465"/>
    </contour>
    <contour>
      <point x="242" y="747" type="curve" smooth="yes"/>
      <point x="351" y="611" type="line" smooth="yes"/>
      <point x="355" y="606"/>
      <point x="357" y="602"/>
      <point x="357" y="598" type="curve" smooth="yes"/>
      <point x="357" y="588"/>
      <point x="347" y="582"/>
      <point x="338" y="582" type="curve" smooth="yes"/>
      <point x="334" y="582"/>
      <point x="329" y="584"/>
      <point x="325" y="588" type="curve" smooth="yes"/>
      <point x="202" y="714" type="line" smooth="yes"/>
      <point x="197" y="720"/>
      <point x="194" y="726"/>
      <point x="194" y="733" type="curve" smooth="yes"/>
      <point x="194" y="747"/>
      <point x="207" y="758"/>
      <point x="221" y="758" type="curve" smooth="yes"/>
      <point x="229" y="758"/>
      <point x="236" y="755"/>
    </contour>
  </outline>
</glyph>
<glyph name="eacute" format="1">
  <advance width="511"/>
  <unicode hex="00E9"/>
  <outline>
    <contour>
      <point x="470" y="83" type="curve" smooth="yes"/>
      <point x="470" y="79"/>
      <point x="468" y="75"/>
      <point x="465" y="72" type="curve" smooth="yes"/>
      <point x="430" y="32"/>
      <point x="363" y="0"/>
      <point x="302" y="0" type="curve" smooth="yes"/>
      <point x="149" y="0"/>
      <point x="53" y="114"/>
      <point x="53" y="238" type="curve" smooth="yes"/>
      <point x="53" y="376"/>
      <point x="141" y="499"/>
      <point x="276" y="499" type="curve" smooth="yes"/>
      <point x="403" y="499"/>
      <point x="461" y="413"/>
      <point x="461" y="371" type="curve" smooth="yes"/>
      <point x="461" y="365"/>
      <point x="455" y="357"/>
      <point x="443" y="350" type="curve" smooth="yes"/>
      <point x="102" y="155" type="line"/>
      <point x="146" y="74"/>
      <point x="213" y="33"/>
      <point x="301" y="33" type="curve" smooth="yes"/>
      <point x="349" y="33"/>
      <point x="414" y="60"/>
      <point x="443" y="95" type="curve" smooth="yes"/>
      <point x="446" y="98"/>
      <point x="449" y="100"/>
      <point x="453" y="100" type="curve" smooth="yes"/>
      <point x="463" y="100"/>
      <point x="470" y="93"/>
    </contour>
    <contour>
      <point x="276" y="465" type="curve" smooth="yes"/>
      <point x="164" y="465"/>
      <point x="85" y="364"/>
      <point x="85" y="237" type="curve" smooth="yes"/>
      <point x="85" y="225"/>
      <point x="85" y="216"/>
      <point x="91" y="188" type="curve"/>
      <point x="427" y="373" type="line"/>
      <point x="404" y="432"/>
      <point x="358" y="465"/>
    </contour>
    <contour>
      <point x="391" y="692" type="curve" smooth="yes"/>
      <point x="248" y="594" type="line" smooth="yes"/>
      <point x="241" y="589"/>
      <point x="236" y="587"/>
      <point x="232" y="587" type="curve" smooth="yes"/>
      <point x="223" y="587"/>
      <point x="215" y="595"/>
      <point x="215" y="604" type="curve" smooth="yes"/>
      <point x="215" y="607"/>
      <point x="215" y="612"/>
      <point x="221" y="617" type="curve" smooth="yes"/>
      <point x="349" y="721" type="line" smooth="yes"/>
      <point x="358" y="728"/>
      <point x="365" y="735"/>
      <point x="375" y="735" type="curve" smooth="yes"/>
      <point x="386" y="735"/>
      <point x="399" y="722"/>
      <point x="399" y="708" type="curve" smooth="yes"/>
      <point x="399" y="701"/>
      <point x="398" y="697"/>
    </contour>
  </outline>
</glyph>
<glyph name="iacute" format="1">
  <advance width="184"/>
  <unicode hex="00ED"/>
  <outline>
    <contour>
      <point x="117" y="476" type="curve" smooth="yes"/>
      <point x="111" y="20" type="line" smooth="yes"/>
      <point x="111" y="9"/>
      <point x="101" y="0"/>
      <point x="91" y="0" type="curve" smooth="yes"/>
      <point x="80" y="0"/>
      <point x="71" y="9"/>
      <point x="71" y="20" type="curve" smooth="yes"/>
      <point x="77" y="476" type="line" smooth="yes"/>
      <point x="77" y="487"/>
      <point x="87" y="496"/>
      <point x="97" y="496" type="curve" smooth="yes"/>
      <point x="107" y="496"/>
      <point x="117" y="487"/>
    </contour>
    <contour>
      <point x="185" y="692" type="curve" smooth="yes"/>
      <point x="42" y="594" type="line" smooth="yes"/>
      <point x="35" y="589"/>
      <point x="30" y="587"/>
      <point x="26" y="587" type="curve" smooth="yes"/>
      <point x="17" y="587"/>
      <point x="9" y="595"/>
      <point x="9" y="604" type="curve" smooth="yes"/>
      <point x="9" y="607"/>
      <point x="9" y="612"/>
      <point x="15" y="617" type="curve" smooth="yes"/>
      <point x="143" y="721" type="line" smooth="yes"/>
      <point x="152" y="728"/>
      <point x="159" y="735"/>
      <point x="169" y="735" type="curve" smooth="yes"/>
      <point x="180" y="735"/>
      <point x="193" y="722"/>
      <point x="193" y="708" type="curve" smooth="yes"/>
      <point x="193" y="701"/>
      <point x="192" y="697"/>
    </contour>
  </outline>
</glyph>
<glyph name="idieresis" format="1">
  <advance width="248"/>
  <unicode hex="00EF"/>
  <outline>
    <contour>
      <point x="146" y="476" type="curve" smooth="yes"/>
      <point x="140" y="20" type="line" smooth="yes"/>
      <point x="140" y="9"/>
      <point x="131" y="0"/>
      <point x="120" y="0" type="curve" smooth="yes"/>
      <point x="110" y="0"/>
      <point x="101" y="9"/>
      <point x="101" y="20" type="curve" smooth="yes"/>
      <point x="107" y="476" type="line" smooth="yes"/>
      <point x="107" y="487"/>
      <point x="116" y="496"/>
      <point x="127" y="496" type="curve" smooth="yes"/>
      <point x="137" y="496"/>
      <point x="146" y="487"/>
    </contour>
    <contour>
      <point x="87" y="636" type="curve" smooth="yes"/>
      <point x="87" y="616"/>
      <point x="68" y="600"/>
      <point x="44" y="600" type="curve" smooth="yes"/>
      <point x="25" y="600"/>
      <point x="8" y="613"/>
      <point x="8" y="630" type="curve" smooth="yes"/>
      <point x="8" y="649"/>
      <point x="27" y="666"/>
      <point x="51" y="666" type="curve" smooth="yes"/>
      <point x="69" y="666"/>
      <point x="87" y="652"/>
    </contour>
    <contour>
      <point x="253" y="636" type="curve" smooth="yes"/>
      <point x="253" y="616"/>
      <point x="234" y="600"/>
      <point x="210" y="600" type="curve" smooth="yes"/>
      <point x="190" y="600"/>
      <point x="174" y="613"/>
      <point x="174" y="630" type="curve" smooth="yes"/>
      <point x="174" y="649"/>
      <point x="192" y="666"/>
      <point x="216" y="666" type="curve" smooth="yes"/>
      <point x="235" y="666"/>
      <point x="253" y="652"/>
    </contour>
  </outline>
</glyph>
<glyph name="eth" format="1">
  <advance width="472"/>
  <unicode hex="00F0"/>
  <outline>
    <contour>
      <point x="260" y="601" type="curve"/>
      <point x="351" y="505"/>
      <point x="430" y="381"/>
      <point x="430" y="256" type="curve" smooth="yes"/>
      <point x="430" y="129"/>
      <point x="348" y="1"/>
      <point x="214" y="1" type="curve" smooth="yes"/>
      <point x="123" y="1"/>
      <point x="52" y="71"/>
      <point x="52" y="175" type="curve" smooth="yes"/>
      <point x="52" y="332"/>
      <point x="171" y="428"/>
      <point x="345" y="435" type="curve"/>
      <point x="309" y="495"/>
      <point x="267" y="545"/>
      <point x="232" y="585" type="curve"/>
      <point x="185" y="559"/>
      <point x="149" y="535"/>
      <point x="131" y="523" type="curve" smooth="yes"/>
      <point x="116" y="513"/>
      <point x="109" y="509"/>
      <point x="104" y="509" type="curve" smooth="yes"/>
      <point x="100" y="509"/>
      <point x="96" y="513"/>
      <point x="96" y="517" type="curve" smooth="yes"/>
      <point x="96" y="521"/>
      <point x="97" y="524"/>
      <point x="107" y="532" type="curve" smooth="yes"/>
      <point x="118" y="541"/>
      <point x="138" y="553"/>
      <point x="163" y="568" type="curve" smooth="yes"/>
      <point x="217" y="601" type="line"/>
      <point x="208" y="611"/>
      <point x="190" y="628"/>
      <point x="182" y="634" type="curve" smooth="yes"/>
      <point x="169" y="645"/>
      <point x="161" y="651"/>
      <point x="161" y="658" type="curve" smooth="yes"/>
      <point x="161" y="667"/>
      <point x="169" y="674"/>
      <point x="176" y="674" type="curve" smooth="yes"/>
      <point x="181" y="674"/>
      <point x="183" y="673"/>
      <point x="188" y="670" type="curve" smooth="yes"/>
      <point x="190" y="669"/>
      <point x="205" y="658"/>
      <point x="246" y="616" type="curve"/>
      <point x="282" y="636"/>
      <point x="361" y="678"/>
      <point x="373" y="678" type="curve" smooth="yes"/>
      <point x="378" y="678"/>
      <point x="382" y="675"/>
      <point x="382" y="668" type="curve" smooth="yes"/>
      <point x="382" y="665"/>
      <point x="380" y="663"/>
      <point x="378" y="662" type="curve" smooth="yes"/>
      <point x="343" y="645"/>
      <point x="292" y="619"/>
    </contour>
    <contour>
      <point x="214" y="33" type="curve" smooth="yes"/>
      <point x="330" y="33"/>
      <point x="397" y="144"/>
      <point x="397" y="259" type="curve" smooth="yes"/>
      <point x="397" y="305"/>
      <point x="382" y="355"/>
      <point x="360" y="402" type="curve"/>
      <point x="218" y="402"/>
      <point x="85" y="341"/>
      <point x="85" y="174" type="curve" smooth="yes"/>
      <point x="85" y="88"/>
      <point x="140" y="33"/>
    </contour>
  </outline>
</glyph>
<glyph name="ocircumflex" format="1">
  <advance width="525"/>
  <unicode hex="00F4"/>
  <outline>
    <contour>
      <point x="252" y="0" type="curve" smooth="yes"/>
      <point x="138" y="0"/>
      <point x="52" y="103"/>
      <point x="52" y="229" type="curve" smooth="yes"/>
      <point x="52" y="376"/>
      <point x="158" y="500"/>
      <point x="284" y="500" type="curve" smooth="yes"/>
      <point x="397" y="500"/>
      <point x="484" y="395"/>
      <point x="484" y="271" type="curve" smooth="yes"/>
      <point x="484" y="123"/>
      <point x="378" y="0"/>
    </contour>
    <contour>
      <point x="279" y="471" type="curve" smooth="yes"/>
      <point x="177" y="471"/>
      <point x="90" y="358"/>
      <point x="90" y="231" type="curve" smooth="yes"/>
      <point x="90" y="123"/>
      <point x="155" y="29"/>
      <point x="252" y="29" type="curve" smooth="yes"/>
      <point x="352" y="29"/>
      <point x="445" y="140"/>
      <point x="445" y="266" type="curve" smooth="yes"/>
      <point x="445" y="375"/>
      <point x="372" y="471"/>
    </contour>
    <contour>
      <point x="318" y="748" type="curve" smooth="yes"/>
      <point x="323" y="748"/>
      <point x="329" y="746"/>
      <point x="333" y="742" type="curve" smooth="yes"/>
      <point x="445" y="629" type="line" smooth="yes"/>
      <point x="449" y="625"/>
      <point x="451" y="622"/>
      <point x="451" y="617" type="curve" smooth="yes"/>
      <point x="451" y="608"/>
      <point x="443" y="599"/>
      <point x="434" y="599" type="curve" smooth="yes"/>
      <point x="429" y="599"/>
      <point x="425" y="601"/>
      <point x="421" y="604" type="curve" smooth="yes"/>
      <point x="316" y="699" type="line"/>
      <point x="192" y="603" type="line" smooth="yes"/>
      <point x="189" y="601"/>
      <point x="185" y="599"/>
      <point x="181" y="599" type="curve" smooth="yes"/>
      <point x="171" y="599"/>
      <point x="163" y="608"/>
      <point x="163" y="617" type="curve" smooth="yes"/>
      <point x="163" y="622"/>
      <point x="166" y="627"/>
      <point x="170" y="630" type="curve" smooth="yes"/>
      <point x="305" y="743" type="line" smooth="yes"/>
      <point x="309" y="746"/>
      <point x="314" y="748"/>
    </contour>
  </outline>
</glyph>
<glyph name="oslash" format="1">
  <advance width="525"/>
  <unicode hex="00F8"/>
  <outline>
    <contour>
      <point x="150" y="30" type="curve"/>
      <point x="117" y="-28" type="line" smooth="yes"/>
      <point x="114" y="-34"/>
      <point x="109" y="-36"/>
      <point x="103" y="-36" type="curve" smooth="yes"/>
      <point x="95" y="-36"/>
      <point x="86" y="-29"/>
      <point x="86" y="-21" type="curve" smooth="yes"/>
      <point x="86" y="-17"/>
      <point x="87" y="-15"/>
      <point x="89" y="-11" type="curve" smooth="yes"/>
      <point x="126" y="49" type="line"/>
      <point x="80" y="96"/>
      <point x="52" y="160"/>
      <point x="52" y="229" type="curve" smooth="yes"/>
      <point x="52" y="376"/>
      <point x="158" y="500"/>
      <point x="284" y="500" type="curve" smooth="yes"/>
      <point x="311" y="500"/>
      <point x="343" y="492"/>
      <point x="374" y="475" type="curve"/>
      <point x="411" y="539" type="line" smooth="yes"/>
      <point x="414" y="544"/>
      <point x="418" y="546"/>
      <point x="423" y="546" type="curve" smooth="yes"/>
      <point x="432" y="546"/>
      <point x="440" y="541"/>
      <point x="440" y="531" type="curve" smooth="yes"/>
      <point x="440" y="529"/>
      <point x="440" y="526"/>
      <point x="438" y="522" type="curve" smooth="yes"/>
      <point x="401" y="457" type="line"/>
      <point x="452" y="411"/>
      <point x="484" y="343"/>
      <point x="484" y="271" type="curve" smooth="yes"/>
      <point x="484" y="123"/>
      <point x="378" y="0"/>
      <point x="252" y="0" type="curve" smooth="yes"/>
      <point x="219" y="0"/>
      <point x="183" y="11"/>
    </contour>
    <contour>
      <point x="252" y="29" type="curve" smooth="yes"/>
      <point x="352" y="29"/>
      <point x="445" y="140"/>
      <point x="445" y="266" type="curve" smooth="yes"/>
      <point x="445" y="324"/>
      <point x="420" y="382"/>
      <point x="382" y="427" type="curve"/>
      <point x="167" y="57" type="line"/>
      <point x="195" y="40"/>
      <point x="224" y="29"/>
    </contour>
    <contour>
      <point x="279" y="471" type="curve" smooth="yes"/>
      <point x="177" y="471"/>
      <point x="90" y="358"/>
      <point x="90" y="231" type="curve" smooth="yes"/>
      <point x="90" y="178"/>
      <point x="109" y="125"/>
      <point x="143" y="79" type="curve"/>
      <point x="357" y="447" type="line"/>
      <point x="332" y="463"/>
      <point x="305" y="471"/>
    </contour>
  </outline>
</glyph>
<glyph name="ugrave" format="1">
  <advance width="502"/>
  <unicode hex="00F9"/>
  <outline>
    <contour>
      <point x="391" y="115" type="curve" smooth="yes"/>
      <point x="402" y="127"/>
      <point x="406" y="143"/>
      <point x="406" y="167" type="curve" smooth="yes"/>
      <point x="408" y="483" type="line" smooth="yes"/>
      <point x="408" y="492"/>
      <point x="417" y="500"/>
      <point x="426" y="500" type="curve" smooth="yes"/>
      <point x="436" y="500"/>
      <point x="445" y="492"/>
      <point x="445" y="483" type="curve" smooth="yes"/>
      <point x="445" y="19" type="line" smooth="yes"/>
      <point x="445" y="8"/>
      <point x="436" y="0"/>
      <point x="424" y="0" type="curve" smooth="yes"/>
      <point x="411" y="0"/>
      <point x="402" y="10"/>
      <point x="402" y="24" type="curve" smooth="yes"/>
      <point x="402" y="82" type="line"/>
      <point x="369" y="34"/>
      <point x="293" y="-3"/>
      <point x="216" y="-3" type="curve" smooth="yes"/>
      <point x="68" y="-3"/>
      <point x="69" y="144"/>
      <point x="68" y="293" type="curve" smooth="yes"/>
      <point x="67.9481" y="297.099"/>
      <point x="67.9232" y="301.155"/>
      <point x="67.9232" y="305.166" type="curve" smooth="yes"/>
      <point x="67.9232" y="378.473"/>
      <point x="76.2594" y="437.023"/>
      <point x="81" y="474" type="curve" smooth="yes"/>
      <point x="84" y="496"/>
      <point x="91" y="500"/>
      <point x="100" y="500" type="curve" smooth="yes"/>
      <point x="110" y="500"/>
      <point x="119" y="493"/>
      <point x="118" y="483" type="curve" smooth="yes"/>
      <point x="118" y="479"/>
      <point x="117" y="471"/>
      <point x="116" y="462" type="curve" smooth="yes"/>
      <point x="112" y="427"/>
      <point x="103" y="370"/>
      <point x="103" y="294" type="curve" smooth="yes"/>
      <point x="103" y="291.724"/>
      <point x="103" y="289.447"/>
      <point x="103" y="287.17" type="curve" smooth="yes"/>
      <point x="103" y="157.385"/>
      <point x="103.966" y="27"/>
      <point x="216" y="27" type="curve" smooth="yes"/>
      <point x="313" y="27"/>
      <point x="368" y="89"/>
    </contour>
    <contour>
      <point x="231" y="747" type="curve" smooth="yes"/>
      <point x="340" y="611" type="line" smooth="yes"/>
      <point x="344" y="606"/>
      <point x="346" y="602"/>
      <point x="346" y="598" type="curve" smooth="yes"/>
      <point x="346" y="588"/>
      <point x="336" y="582"/>
      <point x="327" y="582" type="curve" smooth="yes"/>
      <point x="323" y="582"/>
      <point x="318" y="584"/>
      <point x="314" y="588" type="curve" smooth="yes"/>
      <point x="191" y="714" type="line" smooth="yes"/>
      <point x="186" y="720"/>
      <point x="183" y="726"/>
      <point x="183" y="733" type="curve" smooth="yes"/>
      <point x="183" y="747"/>
      <point x="196" y="758"/>
      <point x="210" y="758" type="curve" smooth="yes"/>
      <point x="218" y="758"/>
      <point x="225" y="755"/>
    </contour>
  </outline>
</glyph>
<glyph name="uacute" format="1">
  <advance width="502"/>
  <unicode hex="00FA"/>
  <outline>
    <contour>
      <point x="391" y="115" type="curve" smooth="yes"/>
      <point x="402" y="127"/>
      <point x="406" y="143"/>
      <point x="406" y="167" type="curve" smooth="yes"/>
      <point x="408" y="483" type="line" smooth="yes"/>
      <point x="408" y="492"/>
      <point x="417" y="500"/>
      <point x="426" y="500" type="curve" smooth="yes"/>
      <point x="436" y="500"/>
      <point x="445" y="492"/>
      <point x="445" y="483" type="curve" smooth="yes"/>
      <point x="445" y="19" type="line" smooth="yes"/>
      <point x="445" y="8"/>
      <point x="436" y="0"/>
      <point x="424" y="0" type="curve" smooth="yes"/>
      <point x="411" y="0"/>
      <point x="402" y="10"/>
      <point x="402" y="24" type="curve" smooth="yes"/>
      <point x="402" y="82" type="line"/>
      <point x="369" y="34"/>
      <point x="293" y="-3"/>
      <point x="216" y="-3" type="curve" smooth="yes"/>
      <point x="68" y="-3"/>
      <point x="69" y="144"/>
      <point x="68" y="293" type="curve" smooth="yes"/>
      <point x="67.9481" y="297.099"/>
      <point x="67.9232" y="301.155"/>
      <point x="67.9232" y="305.166" type="curve" smooth="yes"/>
      <point x="67.9232" y="378.473"/>
      <point x="76.2594" y="437.023"/>
      <point x="81" y="474" type="curve" smooth="yes"/>
      <point x="84" y="496"/>
      <point x="91" y="500"/>
      <point x="100" y="500" type="curve" smooth="yes"/>
      <point x="110" y="500"/>
      <point x="119" y="493"/>
      <point x="118" y="483" type="curve" smooth="yes"/>
      <point x="118" y="479"/>
      <point x="117" y="471"/>
      <point x="116" y="462" type="curve" smooth="yes"/>
      <point x="112" y="427"/>
      <point x="103" y="370"/>
      <point x="103" y="294" type="curve" smooth="yes"/>
      <point x="103" y="291.724"/>
      <point x="103" y="289.447"/>
      <point x="103" y="287.17" type="curve" smooth="yes"/>
      <point x="103" y="157.385"/>
      <point x="103.966" y="27"/>
      <point x="216" y="27" type="curve" smooth="yes"/>
      <point x="313" y="27"/>
      <point x="368" y="89"/>
    </contour>
    <contour>
      <point x="389" y="692" type="curve" smooth="yes"/>
      <point x="246" y="594" type="line" smooth="yes"/>
      <point x="239" y="589"/>
      <point x="234" y="587"/>
      <point x="230" y="587" type="curve" smooth="yes"/>
      <point x="221" y="587"/>
      <point x="213" y="595"/>
      <point x="213" y="604" type="curve" smooth="yes"/>
      <point x="213" y="607"/>
      <point x="213" y="612"/>
      <point x="219" y="617" type="curve" smooth="yes"/>
      <point x="347" y="721" type="line" smooth="yes"/>
      <point x="356" y="728"/>
      <point x="363" y="735"/>
      <point x="373" y="735" type="curve" smooth="yes"/>
      <point x="384" y="735"/>
      <point x="397" y="722"/>
      <point x="397" y="708" type="curve" smooth="yes"/>
      <point x="397" y="701"/>
      <point x="396" y="697"/>
    </contour>
  </outline>
</glyph>
<glyph name="udieresis" format="1">
  <advance width="502"/>
  <unicode hex="00FC"/>
  <outline>
    <contour>
      <point x="230" y="636" type="curve" smooth="yes"/>
      <point x="230" y="616"/>
      <point x="212" y="600"/>
      <point x="188" y="600" type="curve" smooth="yes"/>
      <point x="168" y="600"/>
      <point x="151" y="613"/>
      <point x="151" y="630" type="curve" smooth="yes"/>
      <point x="151" y="649"/>
      <point x="170" y="666"/>
      <point x="194" y="666" type="curve" smooth="yes"/>
      <point x="213" y="666"/>
      <point x="230" y="652"/>
    </contour>
    <contour>
      <point x="396" y="636" type="curve" smooth="yes"/>
      <point x="396" y="616"/>
      <point x="377" y="600"/>
      <point x="353" y="600" type="curve" smooth="yes"/>
      <point x="333" y="600"/>
      <point x="317" y="613"/>
      <point x="317" y="630" type="curve" smooth="yes"/>
      <point x="317" y="649"/>
      <point x="336" y="666"/>
      <point x="360" y="666" type="curve" smooth="yes"/>
      <point x="378" y="666"/>
      <point x="396" y="652"/>
    </contour>
    <contour>
      <point x="391" y="115" type="curve" smooth="yes"/>
      <point x="402" y="127"/>
      <point x="406" y="143"/>
      <point x="406" y="167" type="curve" smooth="yes"/>
      <point x="408" y="483" type="line" smooth="yes"/>
      <point x="408" y="492"/>
      <point x="417" y="500"/>
      <point x="426" y="500" type="curve" smooth="yes"/>
      <point x="436" y="500"/>
      <point x="445" y="492"/>
      <point x="445" y="483" type="curve" smooth="yes"/>
      <point x="445" y="19" type="line" smooth="yes"/>
      <point x="445" y="8"/>
      <point x="436" y="0"/>
      <point x="424" y="0" type="curve" smooth="yes"/>
      <point x="411" y="0"/>
      <point x="402" y="10"/>
      <point x="402" y="24" type="curve" smooth="yes"/>
      <point x="402" y="82" type="line"/>
      <point x="369" y="34"/>
      <point x="293" y="-3"/>
      <point x="216" y="-3" type="curve" smooth="yes"/>
      <point x="68" y="-3"/>
      <point x="69" y="144"/>
      <point x="68" y="293" type="curve" smooth="yes"/>
      <point x="67.9481" y="297.099"/>
      <point x="67.9232" y="301.155"/>
      <point x="67.9232" y="305.166" type="curve" smooth="yes"/>
      <point x="67.9232" y="378.473"/>
      <point x="76.2594" y="437.023"/>
      <point x="81" y="474" type="curve" smooth="yes"/>
      <point x="84" y="496"/>
      <point x="91" y="500"/>
      <point x="100" y="500" type="curve" smooth="yes"/>
      <point x="110" y="500"/>
      <point x="119" y="493"/>
      <point x="118" y="483" type="curve" smooth="yes"/>
      <point x="118" y="479"/>
      <point x="117" y="471"/>
      <point x="116" y="462" type="curve" smooth="yes"/>
      <point x="112" y="427"/>
      <point x="103" y="370"/>
      <point x="103" y="294" type="curve" smooth="yes"/>
      <point x="103" y="291.724"/>
      <point x="103" y="289.447"/>
      <point x="103" y="287.17" type="curve" smooth="yes"/>
      <point x="103" y="157.385"/>
      <point x="103.966" y="27"/>
      <point x="216" y="27" type="curve" smooth="yes"/>
      <point x="313" y="27"/>
      <point x="368" y="89"/>
    </contour>
  </outline>
</glyph>
<glyph name="thorn" format="1">
  <advance width="510"/>
  <unicode hex="00FE"/>
  <outline>
    <contour>
      <point x="311" y="490" type="curve"/>
      <point x="420" y="485"/>
      <point x="469" y="376"/>
      <point x="469" y="272" type="curve" smooth="yes"/>
      <point x="469" y="157"/>
      <point x="426" y="8"/>
      <point x="251" y="8" type="curve" smooth="yes"/>
      <point x="198" y="8"/>
      <point x="143" y="27"/>
      <point x="105" y="42" type="curve"/>
      <point x="105" y="-184" type="line" smooth="yes"/>
      <point x="105" y="-195"/>
      <point x="97" y="-203"/>
      <point x="86" y="-203" type="curve" smooth="yes"/>
      <point x="76" y="-203"/>
      <point x="68" y="-195"/>
      <point x="68" y="-184" type="curve" smooth="yes"/>
      <point x="68" y="677" type="line" smooth="yes"/>
      <point x="68" y="688"/>
      <point x="76" y="697"/>
      <point x="86" y="697" type="curve" smooth="yes"/>
      <point x="97" y="697"/>
      <point x="105" y="688"/>
      <point x="105" y="677" type="curve" smooth="yes"/>
      <point x="105" y="406" type="line"/>
      <point x="156" y="453"/>
      <point x="222" y="490"/>
    </contour>
    <contour>
      <point x="257" y="44" type="curve" smooth="yes"/>
      <point x="392" y="44"/>
      <point x="437" y="141"/>
      <point x="437" y="272" type="curve" smooth="yes"/>
      <point x="437" y="341"/>
      <point x="409" y="456"/>
      <point x="303" y="456" type="curve" smooth="yes"/>
      <point x="189" y="456"/>
      <point x="124" y="386"/>
      <point x="105" y="358" type="curve"/>
      <point x="105" y="83" type="line"/>
      <point x="127" y="73"/>
      <point x="194" y="44"/>
    </contour>
  </outline>
</glyph>
<glyph name="Cacute" format="1">
  <advance width="622"/>
  <unicode hex="0106"/>
  <outline>
    <contour>
      <point x="559" y="145" type="curve" smooth="yes"/>
      <point x="569" y="145"/>
      <point x="579" y="139"/>
      <point x="579" y="127" type="curve" smooth="yes"/>
      <point x="579" y="123"/>
      <point x="577" y="118"/>
      <point x="575" y="115" type="curve" smooth="yes"/>
      <point x="519" y="40"/>
      <point x="434" y="-2"/>
      <point x="338" y="-2" type="curve" smooth="yes"/>
      <point x="182" y="-2"/>
      <point x="52" y="126"/>
      <point x="52" y="295" type="curve" smooth="yes"/>
      <point x="52" y="500"/>
      <point x="210" y="684"/>
      <point x="347" y="684" type="curve" smooth="yes"/>
      <point x="416" y="684"/>
      <point x="466" y="661"/>
      <point x="501" y="639" type="curve"/>
      <point x="506" y="650"/>
      <point x="515" y="658"/>
      <point x="523" y="658" type="curve" smooth="yes"/>
      <point x="533" y="658"/>
      <point x="541" y="650"/>
      <point x="541" y="640" type="curve" smooth="yes"/>
      <point x="541" y="574" type="line" smooth="yes"/>
      <point x="541" y="564"/>
      <point x="532" y="554"/>
      <point x="522" y="554" type="curve" smooth="yes"/>
      <point x="512" y="554"/>
      <point x="503" y="564"/>
      <point x="503" y="574" type="curve" smooth="yes"/>
      <point x="503" y="583" type="line"/>
      <point x="481" y="607"/>
      <point x="438" y="646"/>
      <point x="347" y="646" type="curve" smooth="yes"/>
      <point x="226" y="646"/>
      <point x="90" y="469"/>
      <point x="90" y="295" type="curve" smooth="yes"/>
      <point x="90" y="110"/>
      <point x="242" y="36"/>
      <point x="338" y="36" type="curve" smooth="yes"/>
      <point x="414" y="36"/>
      <point x="489" y="68"/>
      <point x="545" y="138" type="curve" smooth="yes"/>
      <point x="549" y="142"/>
      <point x="554" y="145"/>
    </contour>
    <contour>
      <point x="432" y="857" type="curve" smooth="yes"/>
      <point x="289" y="759" type="line" smooth="yes"/>
      <point x="282" y="754"/>
      <point x="277" y="752"/>
      <point x="273" y="752" type="curve" smooth="yes"/>
      <point x="264" y="752"/>
      <point x="256" y="760"/>
      <point x="256" y="769" type="curve" smooth="yes"/>
      <point x="256" y="772"/>
      <point x="256" y="777"/>
      <point x="262" y="782" type="curve" smooth="yes"/>
      <point x="390" y="886" type="line" smooth="yes"/>
      <point x="399" y="893"/>
      <point x="406" y="900"/>
      <point x="416" y="900" type="curve" smooth="yes"/>
      <point x="427" y="900"/>
      <point x="440" y="887"/>
      <point x="440" y="873" type="curve" smooth="yes"/>
      <point x="440" y="866"/>
      <point x="439" y="862"/>
    </contour>
  </outline>
</glyph>
<glyph name="ccaron" format="1">
  <advance width="499"/>
  <unicode hex="010D"/>
  <outline>
    <contour>
      <point x="272" y="589" type="curve" smooth="yes"/>
      <point x="267" y="589"/>
      <point x="261" y="591"/>
      <point x="257" y="595" type="curve" smooth="yes"/>
      <point x="145" y="708" type="line" smooth="yes"/>
      <point x="141" y="712"/>
      <point x="139" y="715"/>
      <point x="139" y="720" type="curve" smooth="yes"/>
      <point x="139" y="729"/>
      <point x="147" y="738"/>
      <point x="156" y="738" type="curve" smooth="yes"/>
      <point x="161" y="738"/>
      <point x="165" y="736"/>
      <point x="169" y="733" type="curve" smooth="yes"/>
      <point x="274" y="638" type="line"/>
      <point x="398" y="734" type="line" smooth="yes"/>
      <point x="401" y="736"/>
      <point x="405" y="738"/>
      <point x="409" y="738" type="curve" smooth="yes"/>
      <point x="419" y="738"/>
      <point x="427" y="729"/>
      <point x="427" y="720" type="curve" smooth="yes"/>
      <point x="427" y="715"/>
      <point x="424" y="710"/>
      <point x="420" y="707" type="curve" smooth="yes"/>
      <point x="285" y="594" type="line" smooth="yes"/>
      <point x="281" y="591"/>
      <point x="276" y="589"/>
    </contour>
    <contour>
      <point x="458" y="108" type="curve" smooth="yes"/>
      <point x="458" y="103"/>
      <point x="454" y="97"/>
      <point x="451" y="93" type="curve" smooth="yes"/>
      <point x="417" y="43"/>
      <point x="351" y="3"/>
      <point x="277" y="0" type="curve" smooth="yes"/>
      <point x="273.518" y="-0.18009"/>
      <point x="270.043" y="-0.26919"/>
      <point x="266.576" y="-0.26919" type="curve" smooth="yes"/>
      <point x="154.555" y="-0.26919"/>
      <point x="52" y="92.7819"/>
      <point x="52" y="215" type="curve" smooth="yes"/>
      <point x="52" y="263"/>
      <point x="66" y="308"/>
      <point x="76" y="334" type="curve" smooth="yes"/>
      <point x="104" y="401"/>
      <point x="180" y="500"/>
      <point x="273" y="500" type="curve" smooth="yes"/>
      <point x="345" y="500"/>
      <point x="383" y="474"/>
      <point x="421" y="430" type="curve" smooth="yes"/>
      <point x="424" y="427"/>
      <point x="426" y="422"/>
      <point x="426" y="418" type="curve" smooth="yes"/>
      <point x="426" y="408"/>
      <point x="418" y="400"/>
      <point x="409" y="400" type="curve" smooth="yes"/>
      <point x="404" y="400"/>
      <point x="399" y="402"/>
      <point x="396" y="405" type="curve" smooth="yes"/>
      <point x="366" y="441"/>
      <point x="332" y="467"/>
      <point x="275" y="467" type="curve" smooth="yes"/>
      <point x="201" y="467"/>
      <point x="133" y="386"/>
      <point x="108" y="323" type="curve" smooth="yes"/>
      <point x="92" y="281"/>
      <point x="87" y="246"/>
      <point x="87" y="217" type="curve" smooth="yes"/>
      <point x="87" y="75"/>
      <point x="214" y="33"/>
      <point x="263" y="33" type="curve" smooth="yes"/>
      <point x="342" y="33"/>
      <point x="391" y="71"/>
      <point x="421" y="111" type="curve" smooth="yes"/>
      <point x="425" y="117"/>
      <point x="431" y="124"/>
      <point x="440" y="124" type="curve" smooth="yes"/>
      <point x="449" y="124"/>
      <point x="458" y="117"/>
    </contour>
  </outline>
</glyph>
<glyph name="dcroat" format="1">
  <advance width="547"/>
  <unicode hex="0111"/>
  <outline>
    <contour>
      <point x="464" y="685" type="curve" smooth="yes"/>
      <point x="462" y="607" type="line"/>
      <point x="540" y="607" type="line" smooth="yes"/>
      <point x="548" y="607"/>
      <point x="556" y="600"/>
      <point x="556" y="592" type="curve" smooth="yes"/>
      <point x="556" y="582"/>
      <point x="548" y="575"/>
      <point x="540" y="575" type="curve" smooth="yes"/>
      <point x="461" y="575" type="line"/>
      <point x="448" y="18" type="line" smooth="yes"/>
      <point x="448" y="7"/>
      <point x="439" y="0"/>
      <point x="428" y="0" type="curve" smooth="yes"/>
      <point x="416" y="0"/>
      <point x="410" y="9"/>
      <point x="410" y="22" type="curve" smooth="yes"/>
      <point x="412" y="96" type="line"/>
      <point x="368" y="55"/>
      <point x="300" y="4"/>
      <point x="222" y="4" type="curve" smooth="yes"/>
      <point x="106" y="4"/>
      <point x="53" y="116"/>
      <point x="53" y="225" type="curve" smooth="yes"/>
      <point x="53" y="368"/>
      <point x="111" y="498"/>
      <point x="266" y="498" type="curve" smooth="yes"/>
      <point x="323" y="498"/>
      <point x="380" y="478"/>
      <point x="420" y="461" type="curve"/>
      <point x="422" y="575" type="line"/>
      <point x="336" y="575" type="line" smooth="yes"/>
      <point x="326" y="575"/>
      <point x="319" y="582"/>
      <point x="319" y="592" type="curve" smooth="yes"/>
      <point x="319" y="600"/>
      <point x="326" y="607"/>
      <point x="336" y="607" type="curve" smooth="yes"/>
      <point x="423" y="607" type="line"/>
      <point x="425" y="686" type="line" smooth="yes"/>
      <point x="425" y="696"/>
      <point x="435" y="705"/>
      <point x="445" y="705" type="curve" smooth="yes"/>
      <point x="456" y="705"/>
      <point x="464" y="695"/>
    </contour>
    <contour>
      <point x="90" y="228" type="curve" smooth="yes"/>
      <point x="90" y="148"/>
      <point x="118" y="34"/>
      <point x="222" y="34" type="curve" smooth="yes"/>
      <point x="336" y="34"/>
      <point x="413" y="122"/>
      <point x="414" y="157" type="curve" smooth="yes"/>
      <point x="419" y="419" type="line"/>
      <point x="397" y="430"/>
      <point x="331" y="463"/>
      <point x="268" y="463" type="curve" smooth="yes"/>
      <point x="118" y="463"/>
      <point x="90" y="323"/>
    </contour>
  </outline>
</glyph>
<glyph name="Ecaron" format="1">
  <advance width="600"/>
  <unicode hex="011A"/>
  <outline>
    <contour>
      <point x="106" y="38" type="line"/>
      <point x="526" y="38" type="line" smooth="yes"/>
      <point x="536" y="38"/>
      <point x="545" y="30"/>
      <point x="545" y="20" type="curve" smooth="yes"/>
      <point x="545" y="9"/>
      <point x="536" y="0"/>
      <point x="526" y="0" type="curve" smooth="yes"/>
      <point x="87" y="0" type="line" smooth="yes"/>
      <point x="77" y="0"/>
      <point x="68" y="9"/>
      <point x="68" y="20" type="curve" smooth="yes"/>
      <point x="68" y="664" type="line" smooth="yes"/>
      <point x="68" y="674"/>
      <point x="77" y="682"/>
      <point x="87" y="682" type="curve" smooth="yes"/>
      <point x="528" y="682" type="line" smooth="yes"/>
      <point x="538" y="682"/>
      <point x="547" y="674"/>
      <point x="547" y="664" type="curve" smooth="yes"/>
      <point x="547" y="653"/>
      <point x="538" y="644"/>
      <point x="528" y="644" type="curve" smooth="yes"/>
      <point x="106" y="644" type="line"/>
      <point x="106" y="372" type="line"/>
      <point x="478" y="372" type="line" smooth="yes"/>
      <point x="488" y="372"/>
      <point x="496" y="364"/>
      <point x="496" y="353" type="curve" smooth="yes"/>
      <point x="496" y="343"/>
      <point x="488" y="334"/>
      <point x="478" y="334" type="curve" smooth="yes"/>
      <point x="106" y="334" type="line"/>
    </contour>
    <contour>
      <point x="301" y="743" type="curve" smooth="yes"/>
      <point x="296" y="743"/>
      <point x="290" y="745"/>
      <point x="286" y="749" type="curve" smooth="yes"/>
      <point x="174" y="862" type="line" smooth="yes"/>
      <point x="170" y="866"/>
      <point x="168" y="869"/>
      <point x="168" y="874" type="curve" smooth="yes"/>
      <point x="168" y="883"/>
      <point x="176" y="892"/>
      <point x="185" y="892" type="curve" smooth="yes"/>
      <point x="190" y="892"/>
      <point x="194" y="890"/>
      <point x="198" y="887" type="curve" smooth="yes"/>
      <point x="303" y="792" type="line"/>
      <point x="427" y="888" type="line" smooth="yes"/>
      <point x="430" y="890"/>
      <point x="434" y="892"/>
      <point x="438" y="892" type="curve" smooth="yes"/>
      <point x="448" y="892"/>
      <point x="456" y="883"/>
      <point x="456" y="874" type="curve" smooth="yes"/>
      <point x="456" y="869"/>
      <point x="453" y="864"/>
      <point x="449" y="861" type="curve" smooth="yes"/>
      <point x="314" y="748" type="line" smooth="yes"/>
      <point x="310" y="745"/>
      <point x="305" y="743"/>
    </contour>
  </outline>
</glyph>
<glyph name="ecaron" format="1">
  <advance width="511"/>
  <unicode hex="011B"/>
  <outline>
    <contour>
      <point x="470" y="83" type="curve" smooth="yes"/>
      <point x="470" y="79"/>
      <point x="468" y="75"/>
      <point x="465" y="72" type="curve" smooth="yes"/>
      <point x="430" y="32"/>
      <point x="363" y="0"/>
      <point x="302" y="0" type="curve" smooth="yes"/>
      <point x="149" y="0"/>
      <point x="53" y="114"/>
      <point x="53" y="238" type="curve" smooth="yes"/>
      <point x="53" y="376"/>
      <point x="141" y="499"/>
      <point x="276" y="499" type="curve" smooth="yes"/>
      <point x="403" y="499"/>
      <point x="461" y="413"/>
      <point x="461" y="371" type="curve" smooth="yes"/>
      <point x="461" y="365"/>
      <point x="455" y="357"/>
      <point x="443" y="350" type="curve" smooth="yes"/>
      <point x="102" y="155" type="line"/>
      <point x="146" y="74"/>
      <point x="213" y="33"/>
      <point x="301" y="33" type="curve" smooth="yes"/>
      <point x="349" y="33"/>
      <point x="414" y="60"/>
      <point x="443" y="95" type="curve" smooth="yes"/>
      <point x="446" y="98"/>
      <point x="449" y="100"/>
      <point x="453" y="100" type="curve" smooth="yes"/>
      <point x="463" y="100"/>
      <point x="470" y="93"/>
    </contour>
    <contour>
      <point x="276" y="465" type="curve" smooth="yes"/>
      <point x="164" y="465"/>
      <point x="85" y="364"/>
      <point x="85" y="237" type="curve" smooth="yes"/>
      <point x="85" y="225"/>
      <point x="85" y="216"/>
      <point x="91" y="188" type="curve"/>
      <point x="427" y="373" type="line"/>
      <point x="404" y="432"/>
      <point x="358" y="465"/>
    </contour>
    <contour>
      <point x="273" y="589" type="curve" smooth="yes"/>
      <point x="268" y="589"/>
      <point x="262" y="591"/>
      <point x="258" y="595" type="curve" smooth="yes"/>
      <point x="146" y="708" type="line" smooth="yes"/>
      <point x="142" y="712"/>
      <point x="140" y="715"/>
      <point x="140" y="720" type="curve" smooth="yes"/>
      <point x="140" y="729"/>
      <point x="148" y="738"/>
      <point x="157" y="738" type="curve" smooth="yes"/>
      <point x="162" y="738"/>
      <point x="166" y="736"/>
      <point x="170" y="733" type="curve" smooth="yes"/>
      <point x="275" y="638" type="line"/>
      <point x="399" y="734" type="line" smooth="yes"/>
      <point x="402" y="736"/>
      <point x="406" y="738"/>
      <point x="410" y="738" type="curve" smooth="yes"/>
      <point x="420" y="738"/>
      <point x="428" y="729"/>
      <point x="428" y="720" type="curve" smooth="yes"/>
      <point x="428" y="715"/>
      <point x="425" y="710"/>
      <point x="421" y="707" type="curve" smooth="yes"/>
      <point x="286" y="594" type="line" smooth="yes"/>
      <point x="282" y="591"/>
      <point x="277" y="589"/>
    </contour>
  </outline>
</glyph>
<glyph name="gcircumflex" format="1">
  <advance width="511"/>
  <unicode hex="011D"/>
  <outline>
    <contour>
      <point x="114" y="-177" type="curve" smooth="yes"/>
      <point x="105" y="-175"/>
      <point x="99" y="-168"/>
      <point x="99" y="-159" type="curve" smooth="yes"/>
      <point x="99" y="-149"/>
      <point x="107" y="-141"/>
      <point x="118" y="-141" type="curve" smooth="yes"/>
      <point x="121" y="-141"/>
      <point x="131" y="-143"/>
      <point x="139" y="-145" type="curve" smooth="yes"/>
      <point x="156" y="-149"/>
      <point x="186" y="-155"/>
      <point x="239" y="-155" type="curve" smooth="yes"/>
      <point x="361" y="-155"/>
      <point x="401" y="-89"/>
      <point x="405" y="14" type="curve" smooth="yes"/>
      <point x="408" y="102" type="line"/>
      <point x="380" y="51"/>
      <point x="313" y="-1"/>
      <point x="249" y="-1" type="curve" smooth="yes"/>
      <point x="132" y="-1"/>
      <point x="53" y="105"/>
      <point x="53" y="241" type="curve" smooth="yes"/>
      <point x="53" y="374"/>
      <point x="155" y="500"/>
      <point x="290" y="500" type="curve" smooth="yes"/>
      <point x="336" y="500"/>
      <point x="384" y="481"/>
      <point x="416" y="458" type="curve"/>
      <point x="416" y="494"/>
      <point x="418" y="512"/>
      <point x="439" y="512" type="curve" smooth="yes"/>
      <point x="445" y="512"/>
      <point x="454" y="507"/>
      <point x="454" y="492" type="curve" smooth="yes"/>
      <point x="443" y="9" type="line" smooth="yes"/>
      <point x="440" y="-130"/>
      <point x="355" y="-193"/>
      <point x="240" y="-193" type="curve" smooth="yes"/>
      <point x="192" y="-193"/>
      <point x="146" y="-184"/>
    </contour>
    <contour>
      <point x="412" y="268" type="curve" smooth="yes"/>
      <point x="412" y="424" type="line"/>
      <point x="386" y="447"/>
      <point x="337" y="464"/>
      <point x="294" y="464" type="curve" smooth="yes"/>
      <point x="179" y="464"/>
      <point x="85" y="367"/>
      <point x="85" y="237" type="curve" smooth="yes"/>
      <point x="85" y="157"/>
      <point x="128" y="33"/>
      <point x="241" y="33" type="curve" smooth="yes"/>
      <point x="317" y="33"/>
      <point x="412" y="88"/>
    </contour>
    <contour>
      <point x="300" y="748" type="curve" smooth="yes"/>
      <point x="305" y="748"/>
      <point x="311" y="746"/>
      <point x="315" y="742" type="curve" smooth="yes"/>
      <point x="427" y="629" type="line" smooth="yes"/>
      <point x="431" y="625"/>
      <point x="433" y="622"/>
      <point x="433" y="617" type="curve" smooth="yes"/>
      <point x="433" y="608"/>
      <point x="425" y="599"/>
      <point x="416" y="599" type="curve" smooth="yes"/>
      <point x="411" y="599"/>
      <point x="407" y="601"/>
      <point x="403" y="604" type="curve" smooth="yes"/>
      <point x="298" y="699" type="line"/>
      <point x="174" y="603" type="line" smooth="yes"/>
      <point x="171" y="601"/>
      <point x="167" y="599"/>
      <point x="163" y="599" type="curve" smooth="yes"/>
      <point x="153" y="599"/>
      <point x="145" y="608"/>
      <point x="145" y="617" type="curve" smooth="yes"/>
      <point x="145" y="622"/>
      <point x="148" y="627"/>
      <point x="152" y="630" type="curve" smooth="yes"/>
      <point x="287" y="743" type="line" smooth="yes"/>
      <point x="291" y="746"/>
      <point x="296" y="748"/>
    </contour>
  </outline>
</glyph>
<glyph name="Hcircumflex" format="1">
  <advance width="675"/>
  <unicode hex="0124"/>
  <outline>
    <contour>
      <point x="600" y="681" type="curve" smooth="yes"/>
      <point x="610" y="681"/>
      <point x="618" y="673"/>
      <point x="618" y="662" type="curve" smooth="yes"/>
      <point x="618" y="19" type="line" smooth="yes"/>
      <point x="618" y="8"/>
      <point x="610" y="0"/>
      <point x="600" y="0" type="curve" smooth="yes"/>
      <point x="589" y="0"/>
      <point x="580" y="8"/>
      <point x="580" y="19" type="curve" smooth="yes"/>
      <point x="580" y="361" type="line"/>
      <point x="105" y="296" type="line"/>
      <point x="105" y="19" type="line" smooth="yes"/>
      <point x="105" y="8"/>
      <point x="96" y="0"/>
      <point x="86" y="0" type="curve" smooth="yes"/>
      <point x="75" y="0"/>
      <point x="67" y="8"/>
      <point x="67" y="19" type="curve" smooth="yes"/>
      <point x="67" y="662" type="line" smooth="yes"/>
      <point x="67" y="673"/>
      <point x="75" y="681"/>
      <point x="86" y="681" type="curve" smooth="yes"/>
      <point x="96" y="681"/>
      <point x="105" y="673"/>
      <point x="105" y="662" type="curve" smooth="yes"/>
      <point x="105" y="335" type="line"/>
      <point x="580" y="400" type="line"/>
      <point x="580" y="662" type="line" smooth="yes"/>
      <point x="580" y="673"/>
      <point x="589" y="681"/>
    </contour>
    <contour>
      <point x="353" y="902" type="curve" smooth="yes"/>
      <point x="358" y="902"/>
      <point x="364" y="900"/>
      <point x="368" y="896" type="curve" smooth="yes"/>
      <point x="480" y="783" type="line" smooth="yes"/>
      <point x="484" y="779"/>
      <point x="486" y="776"/>
      <point x="486" y="771" type="curve" smooth="yes"/>
      <point x="486" y="762"/>
      <point x="478" y="753"/>
      <point x="469" y="753" type="curve" smooth="yes"/>
      <point x="464" y="753"/>
      <point x="460" y="755"/>
      <point x="456" y="758" type="curve" smooth="yes"/>
      <point x="351" y="853" type="line"/>
      <point x="227" y="757" type="line" smooth="yes"/>
      <point x="224" y="755"/>
      <point x="220" y="753"/>
      <point x="216" y="753" type="curve" smooth="yes"/>
      <point x="206" y="753"/>
      <point x="198" y="762"/>
      <point x="198" y="771" type="curve" smooth="yes"/>
      <point x="198" y="776"/>
      <point x="201" y="781"/>
      <point x="205" y="784" type="curve" smooth="yes"/>
      <point x="340" y="897" type="line" smooth="yes"/>
      <point x="344" y="900"/>
      <point x="349" y="902"/>
    </contour>
  </outline>
</glyph>
<glyph name="hcircumflex" format="1">
  <advance width="493"/>
  <unicode hex="0125"/>
  <outline>
    <contour>
      <point x="105" y="678" type="curve" smooth="yes"/>
      <point x="105" y="311" type="line"/>
      <point x="142" y="394"/>
      <point x="242" y="502"/>
      <point x="324" y="502" type="curve" smooth="yes"/>
      <point x="419" y="502"/>
      <point x="451" y="387"/>
      <point x="451" y="158" type="curve" smooth="yes"/>
      <point x="451" y="91"/>
      <point x="451" y="50"/>
      <point x="448" y="19" type="curve" smooth="yes"/>
      <point x="447" y="8"/>
      <point x="441" y="0"/>
      <point x="430" y="0" type="curve" smooth="yes"/>
      <point x="422" y="0"/>
      <point x="413" y="8"/>
      <point x="413" y="18" type="curve" smooth="yes"/>
      <point x="413" y="22"/>
      <point x="414" y="36"/>
      <point x="414" y="45" type="curve" smooth="yes"/>
      <point x="415" y="70"/>
      <point x="415" y="108"/>
      <point x="415" y="150" type="curve" smooth="yes"/>
      <point x="415" y="431"/>
      <point x="361" y="466"/>
      <point x="319" y="466" type="curve" smooth="yes"/>
      <point x="225" y="466"/>
      <point x="140" y="326"/>
      <point x="122" y="288" type="curve" smooth="yes"/>
      <point x="110" y="261"/>
      <point x="105" y="225"/>
      <point x="105" y="191" type="curve" smooth="yes"/>
      <point x="105" y="20" type="line" smooth="yes"/>
      <point x="105" y="6"/>
      <point x="97" y="-1"/>
      <point x="86" y="-1" type="curve" smooth="yes"/>
      <point x="76" y="-1"/>
      <point x="68" y="7"/>
      <point x="68" y="18" type="curve" smooth="yes"/>
      <point x="68" y="678" type="line" smooth="yes"/>
      <point x="68" y="689"/>
      <point x="76" y="698"/>
      <point x="86" y="698" type="curve" smooth="yes"/>
      <point x="98" y="698"/>
      <point x="105" y="689"/>
    </contour>
    <contour>
      <point x="256" y="902" type="curve" smooth="yes"/>
      <point x="261" y="902"/>
      <point x="267" y="900"/>
      <point x="271" y="896" type="curve" smooth="yes"/>
      <point x="383" y="783" type="line" smooth="yes"/>
      <point x="387" y="779"/>
      <point x="389" y="776"/>
      <point x="389" y="771" type="curve" smooth="yes"/>
      <point x="389" y="762"/>
      <point x="381" y="753"/>
      <point x="372" y="753" type="curve" smooth="yes"/>
      <point x="367" y="753"/>
      <point x="363" y="755"/>
      <point x="359" y="758" type="curve" smooth="yes"/>
      <point x="254" y="853" type="line"/>
      <point x="130" y="757" type="line" smooth="yes"/>
      <point x="127" y="755"/>
      <point x="123" y="753"/>
      <point x="119" y="753" type="curve" smooth="yes"/>
      <point x="109" y="753"/>
      <point x="101" y="762"/>
      <point x="101" y="771" type="curve" smooth="yes"/>
      <point x="101" y="776"/>
      <point x="104" y="781"/>
      <point x="108" y="784" type="curve" smooth="yes"/>
      <point x="243" y="897" type="line" smooth="yes"/>
      <point x="247" y="900"/>
      <point x="252" y="902"/>
    </contour>
  </outline>
</glyph>
<glyph name="Jcircumflex" format="1">
  <advance width="462"/>
  <unicode hex="0134"/>
  <outline>
    <contour>
      <point x="217" y="677" type="curve" smooth="yes"/>
      <point x="428" y="677" type="line" smooth="yes"/>
      <point x="438" y="677"/>
      <point x="447" y="669"/>
      <point x="447" y="658" type="curve" smooth="yes"/>
      <point x="447" y="648"/>
      <point x="438" y="639"/>
      <point x="428" y="639" type="curve" smooth="yes"/>
      <point x="392" y="639" type="line"/>
      <point x="392" y="154" type="line" smooth="yes"/>
      <point x="392" y="83"/>
      <point x="349" y="0"/>
      <point x="226" y="0" type="curve" smooth="yes"/>
      <point x="74" y="0"/>
      <point x="53" y="124"/>
      <point x="53" y="164" type="curve" smooth="yes"/>
      <point x="53" y="176"/>
      <point x="60" y="185"/>
      <point x="73" y="185" type="curve" smooth="yes"/>
      <point x="83" y="185"/>
      <point x="91" y="176"/>
      <point x="91" y="166" type="curve" smooth="yes"/>
      <point x="91" y="142"/>
      <point x="96" y="38"/>
      <point x="226" y="38" type="curve" smooth="yes"/>
      <point x="341" y="38"/>
      <point x="354" y="118"/>
      <point x="354" y="154" type="curve" smooth="yes"/>
      <point x="354" y="639" type="line"/>
      <point x="217" y="639" type="line" smooth="yes"/>
      <point x="207" y="639"/>
      <point x="197" y="648"/>
      <point x="197" y="658" type="curve" smooth="yes"/>
      <point x="197" y="669"/>
      <point x="207" y="677"/>
    </contour>
    <contour>
      <point x="336" y="902" type="curve" smooth="yes"/>
      <point x="341" y="902"/>
      <point x="347" y="900"/>
      <point x="351" y="896" type="curve" smooth="yes"/>
      <point x="463" y="783" type="line" smooth="yes"/>
      <point x="467" y="779"/>
      <point x="469" y="776"/>
      <point x="469" y="771" type="curve" smooth="yes"/>
      <point x="469" y="762"/>
      <point x="461" y="753"/>
      <point x="452" y="753" type="curve" smooth="yes"/>
      <point x="447" y="753"/>
      <point x="443" y="755"/>
      <point x="439" y="758" type="curve" smooth="yes"/>
      <point x="334" y="853" type="line"/>
      <point x="210" y="757" type="line" smooth="yes"/>
      <point x="207" y="755"/>
      <point x="203" y="753"/>
      <point x="199" y="753" type="curve" smooth="yes"/>
      <point x="189" y="753"/>
      <point x="181" y="762"/>
      <point x="181" y="771" type="curve" smooth="yes"/>
      <point x="181" y="776"/>
      <point x="184" y="781"/>
      <point x="188" y="784" type="curve" smooth="yes"/>
      <point x="323" y="897" type="line" smooth="yes"/>
      <point x="327" y="900"/>
      <point x="332" y="902"/>
    </contour>
  </outline>
</glyph>
<glyph name="Lacute" format="1">
  <advance width="467"/>
  <unicode hex="0139"/>
  <outline>
    <contour>
      <point x="443" y="25" type="curve" smooth="yes"/>
      <point x="87" y="0" type="line" smooth="yes"/>
      <point x="77" y="-1"/>
      <point x="68" y="7"/>
      <point x="68" y="19" type="curve" smooth="yes"/>
      <point x="68" y="662" type="line" smooth="yes"/>
      <point x="68" y="673"/>
      <point x="76" y="681"/>
      <point x="87" y="681" type="curve" smooth="yes"/>
      <point x="97" y="681"/>
      <point x="105" y="673"/>
      <point x="105" y="662" type="curve" smooth="yes"/>
      <point x="105" y="38" type="line"/>
      <point x="441" y="62" type="line" smooth="yes"/>
      <point x="452" y="63"/>
      <point x="461" y="54"/>
      <point x="461" y="43" type="curve" smooth="yes"/>
      <point x="461" y="34"/>
      <point x="454" y="26"/>
    </contour>
    <contour>
      <point x="328" y="857" type="curve" smooth="yes"/>
      <point x="185" y="759" type="line" smooth="yes"/>
      <point x="178" y="754"/>
      <point x="173" y="752"/>
      <point x="169" y="752" type="curve" smooth="yes"/>
      <point x="160" y="752"/>
      <point x="152" y="760"/>
      <point x="152" y="769" type="curve" smooth="yes"/>
      <point x="152" y="772"/>
      <point x="152" y="777"/>
      <point x="158" y="782" type="curve" smooth="yes"/>
      <point x="286" y="886" type="line" smooth="yes"/>
      <point x="295" y="893"/>
      <point x="302" y="900"/>
      <point x="312" y="900" type="curve" smooth="yes"/>
      <point x="323" y="900"/>
      <point x="336" y="887"/>
      <point x="336" y="873" type="curve" smooth="yes"/>
      <point x="336" y="866"/>
      <point x="335" y="862"/>
    </contour>
  </outline>
</glyph>
<glyph name="lacute" format="1">
  <advance width="216"/>
  <unicode hex="013A"/>
  <outline>
    <contour>
      <point x="129" y="680" type="curve" smooth="yes"/>
      <point x="129" y="16" type="line" smooth="yes"/>
      <point x="129" y="7"/>
      <point x="119" y="0"/>
      <point x="110" y="0" type="curve" smooth="yes"/>
      <point x="101" y="0"/>
      <point x="91" y="7"/>
      <point x="91" y="16" type="curve" smooth="yes"/>
      <point x="91" y="680" type="line" smooth="yes"/>
      <point x="91" y="690"/>
      <point x="100" y="698"/>
      <point x="110" y="698" type="curve" smooth="yes"/>
      <point x="120" y="698"/>
      <point x="129" y="690"/>
    </contour>
    <contour>
      <point x="205" y="857" type="curve" smooth="yes"/>
      <point x="62" y="759" type="line" smooth="yes"/>
      <point x="55" y="754"/>
      <point x="50" y="752"/>
      <point x="46" y="752" type="curve" smooth="yes"/>
      <point x="37" y="752"/>
      <point x="29" y="760"/>
      <point x="29" y="769" type="curve" smooth="yes"/>
      <point x="29" y="772"/>
      <point x="29" y="777"/>
      <point x="35" y="782" type="curve" smooth="yes"/>
      <point x="163" y="886" type="line" smooth="yes"/>
      <point x="172" y="893"/>
      <point x="179" y="900"/>
      <point x="189" y="900" type="curve" smooth="yes"/>
      <point x="200" y="900"/>
      <point x="213" y="887"/>
      <point x="213" y="873" type="curve" smooth="yes"/>
      <point x="213" y="866"/>
      <point x="212" y="862"/>
    </contour>
  </outline>
</glyph>
<glyph name="lcaron" format="1">
  <advance width="247"/>
  <unicode hex="013E"/>
  <outline>
    <contour>
      <point x="194" y="563" type="curve" smooth="yes"/>
      <point x="221" y="634" type="line"/>
      <point x="212" y="642"/>
      <point x="207" y="653"/>
      <point x="207" y="662" type="curve" smooth="yes"/>
      <point x="207" y="682"/>
      <point x="222" y="698"/>
      <point x="238" y="698" type="curve" smooth="yes"/>
      <point x="251" y="698"/>
      <point x="261" y="686"/>
      <point x="261" y="675" type="curve" smooth="yes"/>
      <point x="261" y="657"/>
      <point x="258" y="650"/>
      <point x="243" y="612" type="curve" smooth="yes"/>
      <point x="227" y="572"/>
      <point x="216" y="543"/>
      <point x="205" y="543" type="curve" smooth="yes"/>
      <point x="198" y="543"/>
      <point x="192" y="548"/>
      <point x="192" y="553" type="curve" smooth="yes"/>
      <point x="192" y="556"/>
      <point x="192" y="558"/>
    </contour>
    <contour>
      <point x="129" y="680" type="curve" smooth="yes"/>
      <point x="129" y="16" type="line" smooth="yes"/>
      <point x="129" y="7"/>
      <point x="119" y="0"/>
      <point x="110" y="0" type="curve" smooth="yes"/>
      <point x="101" y="0"/>
      <point x="91" y="7"/>
      <point x="91" y="16" type="curve" smooth="yes"/>
      <point x="91" y="680" type="line" smooth="yes"/>
      <point x="91" y="690"/>
      <point x="100" y="698"/>
      <point x="110" y="698" type="curve" smooth="yes"/>
      <point x="120" y="698"/>
      <point x="129" y="690"/>
    </contour>
  </outline>
</glyph>
<glyph name="Lslash" format="1">
  <advance width="518"/>
  <unicode hex="0141"/>
  <outline>
    <contour>
      <point x="27" y="298" type="curve" smooth="yes"/>
      <point x="121" y="358" type="line"/>
      <point x="121" y="662" type="line" smooth="yes"/>
      <point x="121" y="673"/>
      <point x="129" y="681"/>
      <point x="139" y="681" type="curve" smooth="yes"/>
      <point x="150" y="681"/>
      <point x="158" y="673"/>
      <point x="158" y="662" type="curve" smooth="yes"/>
      <point x="158" y="379" type="line"/>
      <point x="231" y="427" type="line" smooth="yes"/>
      <point x="234" y="429"/>
      <point x="238" y="430"/>
      <point x="241" y="430" type="curve" smooth="yes"/>
      <point x="252" y="430"/>
      <point x="261" y="421"/>
      <point x="261" y="410" type="curve" smooth="yes"/>
      <point x="261" y="404"/>
      <point x="258" y="398"/>
      <point x="253" y="395" type="curve" smooth="yes"/>
      <point x="158" y="335" type="line"/>
      <point x="158" y="38" type="line"/>
      <point x="494" y="62" type="line" smooth="yes"/>
      <point x="502" y="63"/>
      <point x="512" y="55"/>
      <point x="513" y="44" type="curve"/>
      <point x="512" y="34"/>
      <point x="506" y="26"/>
      <point x="496" y="25" type="curve" smooth="yes"/>
      <point x="138" y="0" type="line" smooth="yes"/>
      <point x="130" y="-1"/>
      <point x="121" y="9"/>
      <point x="121" y="19" type="curve" smooth="yes"/>
      <point x="121" y="313" type="line"/>
      <point x="49" y="266" type="line" smooth="yes"/>
      <point x="46" y="264"/>
      <point x="40" y="263"/>
      <point x="37" y="263" type="curve" smooth="yes"/>
      <point x="29" y="263"/>
      <point x="19" y="269"/>
      <point x="19" y="280" type="curve" smooth="yes"/>
      <point x="19" y="287"/>
      <point x="21" y="294"/>
    </contour>
  </outline>
</glyph>
<glyph name="lslash" format="1">
  <advance width="274"/>
  <unicode hex="0142"/>
  <outline>
    <contour>
      <point x="41" y="301" type="curve" smooth="yes"/>
      <point x="129" y="357" type="line"/>
      <point x="129" y="680" type="line" smooth="yes"/>
      <point x="129" y="690"/>
      <point x="138" y="698"/>
      <point x="148" y="698" type="curve" smooth="yes"/>
      <point x="158" y="698"/>
      <point x="167" y="690"/>
      <point x="167" y="680" type="curve" smooth="yes"/>
      <point x="167" y="381" type="line"/>
      <point x="247" y="432" type="line" smooth="yes"/>
      <point x="250" y="434"/>
      <point x="253" y="435"/>
      <point x="257" y="435" type="curve" smooth="yes"/>
      <point x="268" y="435"/>
      <point x="277" y="425"/>
      <point x="277" y="415" type="curve" smooth="yes"/>
      <point x="277" y="408"/>
      <point x="274" y="403"/>
      <point x="269" y="400" type="curve" smooth="yes"/>
      <point x="167" y="336" type="line"/>
      <point x="167" y="16" type="line" smooth="yes"/>
      <point x="167" y="7"/>
      <point x="157" y="0"/>
      <point x="148" y="0" type="curve" smooth="yes"/>
      <point x="139" y="0"/>
      <point x="129" y="7"/>
      <point x="129" y="16" type="curve" smooth="yes"/>
      <point x="129" y="311" type="line"/>
      <point x="63" y="268" type="line" smooth="yes"/>
      <point x="58" y="265"/>
      <point x="55" y="265"/>
      <point x="51" y="265" type="curve" smooth="yes"/>
      <point x="43" y="265"/>
      <point x="32" y="272"/>
      <point x="32" y="283" type="curve" smooth="yes"/>
      <point x="32" y="291"/>
      <point x="34" y="297"/>
    </contour>
  </outline>
</glyph>
<glyph name="Nacute" format="1">
  <advance width="609"/>
  <unicode hex="0143"/>
  <outline>
    <contour>
      <point x="517" y="7" type="curve" smooth="yes"/>
      <point x="106" y="603" type="line"/>
      <point x="105" y="19" type="line" smooth="yes"/>
      <point x="105" y="8"/>
      <point x="96" y="0"/>
      <point x="86" y="0" type="curve" smooth="yes"/>
      <point x="76" y="0"/>
      <point x="68" y="8"/>
      <point x="68" y="19" type="curve" smooth="yes"/>
      <point x="69" y="662" type="line" smooth="yes"/>
      <point x="69" y="673"/>
      <point x="76" y="681"/>
      <point x="86" y="681" type="curve" smooth="yes"/>
      <point x="94" y="681"/>
      <point x="100" y="678"/>
      <point x="105" y="670" type="curve" smooth="yes"/>
      <point x="514" y="77" type="line"/>
      <point x="514" y="664" type="line" smooth="yes"/>
      <point x="514" y="674"/>
      <point x="522" y="682"/>
      <point x="532" y="682" type="curve" smooth="yes"/>
      <point x="543" y="682"/>
      <point x="551" y="674"/>
      <point x="551" y="664" type="curve" smooth="yes"/>
      <point x="551" y="19" type="line" smooth="yes"/>
      <point x="551" y="8"/>
      <point x="543" y="0"/>
      <point x="532" y="0" type="curve" smooth="yes"/>
      <point x="525" y="0"/>
      <point x="520" y="2"/>
    </contour>
    <contour>
      <point x="415" y="857" type="curve" smooth="yes"/>
      <point x="272" y="759" type="line" smooth="yes"/>
      <point x="265" y="754"/>
      <point x="260" y="752"/>
      <point x="256" y="752" type="curve" smooth="yes"/>
      <point x="247" y="752"/>
      <point x="239" y="760"/>
      <point x="239" y="769" type="curve" smooth="yes"/>
      <point x="239" y="772"/>
      <point x="239" y="777"/>
      <point x="245" y="782" type="curve" smooth="yes"/>
      <point x="373" y="886" type="line" smooth="yes"/>
      <point x="382" y="893"/>
      <point x="389" y="900"/>
      <point x="399" y="900" type="curve" smooth="yes"/>
      <point x="410" y="900"/>
      <point x="423" y="887"/>
      <point x="423" y="873" type="curve" smooth="yes"/>
      <point x="423" y="866"/>
      <point x="422" y="862"/>
    </contour>
  </outline>
</glyph>
<glyph name="nacute" format="1">
  <advance width="525"/>
  <unicode hex="0144"/>
  <outline>
    <contour>
      <point x="105" y="482" type="curve" smooth="yes"/>
      <point x="105" y="265" type="line"/>
      <point x="125" y="380"/>
      <point x="229" y="499"/>
      <point x="333" y="499" type="curve" smooth="yes"/>
      <point x="453" y="499"/>
      <point x="469" y="388"/>
      <point x="469" y="148" type="curve" smooth="yes"/>
      <point x="469" y="108"/>
      <point x="469" y="66"/>
      <point x="468" y="20" type="curve" smooth="yes"/>
      <point x="468" y="9"/>
      <point x="461" y="0"/>
      <point x="451" y="0" type="curve" smooth="yes"/>
      <point x="442" y="0"/>
      <point x="433" y="8"/>
      <point x="433" y="19" type="curve" smooth="yes"/>
      <point x="432" y="65"/>
      <point x="432" y="106"/>
      <point x="432" y="145" type="curve" smooth="yes"/>
      <point x="431" y="357"/>
      <point x="430" y="464"/>
      <point x="328" y="464" type="curve" smooth="yes"/>
      <point x="280" y="464"/>
      <point x="219" y="438"/>
      <point x="162" y="334" type="curve" smooth="yes"/>
      <point x="127" y="269"/>
      <point x="106" y="179"/>
      <point x="105" y="105" type="curve" smooth="yes"/>
      <point x="104" y="21" type="line" smooth="yes"/>
      <point x="104" y="9"/>
      <point x="98" y="0"/>
      <point x="86" y="0" type="curve" smooth="yes"/>
      <point x="76" y="0"/>
      <point x="68" y="7"/>
      <point x="68" y="17" type="curve" smooth="yes"/>
      <point x="68" y="482" type="line" smooth="yes"/>
      <point x="68" y="492"/>
      <point x="76" y="500"/>
      <point x="86" y="500" type="curve" smooth="yes"/>
      <point x="97" y="500"/>
      <point x="105" y="492"/>
    </contour>
    <contour>
      <point x="406" y="692" type="curve" smooth="yes"/>
      <point x="263" y="594" type="line" smooth="yes"/>
      <point x="256" y="589"/>
      <point x="251" y="587"/>
      <point x="247" y="587" type="curve" smooth="yes"/>
      <point x="238" y="587"/>
      <point x="230" y="595"/>
      <point x="230" y="604" type="curve" smooth="yes"/>
      <point x="230" y="607"/>
      <point x="230" y="612"/>
      <point x="236" y="617" type="curve" smooth="yes"/>
      <point x="364" y="721" type="line" smooth="yes"/>
      <point x="373" y="728"/>
      <point x="380" y="735"/>
      <point x="390" y="735" type="curve" smooth="yes"/>
      <point x="401" y="735"/>
      <point x="414" y="722"/>
      <point x="414" y="708" type="curve" smooth="yes"/>
      <point x="414" y="701"/>
      <point x="413" y="697"/>
    </contour>
  </outline>
</glyph>
<glyph name="ohungarumlaut" format="1">
  <advance width="525"/>
  <unicode hex="0151"/>
  <outline>
    <contour>
      <point x="252" y="0" type="curve" smooth="yes"/>
      <point x="138" y="0"/>
      <point x="52" y="103"/>
      <point x="52" y="229" type="curve" smooth="yes"/>
      <point x="52" y="376"/>
      <point x="158" y="500"/>
      <point x="284" y="500" type="curve" smooth="yes"/>
      <point x="397" y="500"/>
      <point x="484" y="395"/>
      <point x="484" y="271" type="curve" smooth="yes"/>
      <point x="484" y="123"/>
      <point x="378" y="0"/>
    </contour>
    <contour>
      <point x="279" y="471" type="curve" smooth="yes"/>
      <point x="177" y="471"/>
      <point x="90" y="358"/>
      <point x="90" y="231" type="curve" smooth="yes"/>
      <point x="90" y="123"/>
      <point x="155" y="29"/>
      <point x="252" y="29" type="curve" smooth="yes"/>
      <point x="352" y="29"/>
      <point x="445" y="140"/>
      <point x="445" y="266" type="curve" smooth="yes"/>
      <point x="445" y="375"/>
      <point x="372" y="471"/>
    </contour>
    <contour>
      <point x="308" y="691" type="curve" smooth="yes"/>
      <point x="165" y="593" type="line" smooth="yes"/>
      <point x="159" y="589"/>
      <point x="153" y="586"/>
      <point x="149" y="586" type="curve" smooth="yes"/>
      <point x="140" y="586"/>
      <point x="132" y="594"/>
      <point x="132" y="603" type="curve" smooth="yes"/>
      <point x="132" y="606"/>
      <point x="132" y="611"/>
      <point x="140" y="618" type="curve" smooth="yes"/>
      <point x="266" y="720" type="line" smooth="yes"/>
      <point x="273" y="726"/>
      <point x="282" y="734"/>
      <point x="290" y="734" type="curve" smooth="yes"/>
      <point x="303" y="734"/>
      <point x="315" y="721"/>
      <point x="315" y="707" type="curve" smooth="yes"/>
      <point x="315" y="701"/>
      <point x="315" y="696"/>
    </contour>
    <contour>
      <point x="470" y="687" type="curve" smooth="yes"/>
      <point x="331" y="593" type="line" smooth="yes"/>
      <point x="326" y="589"/>
      <point x="320" y="586"/>
      <point x="316" y="586" type="curve" smooth="yes"/>
      <point x="306" y="586"/>
      <point x="299" y="594"/>
      <point x="299" y="603" type="curve" smooth="yes"/>
      <point x="299" y="606"/>
      <point x="299" y="611"/>
      <point x="306" y="617" type="curve" smooth="yes"/>
      <point x="432" y="720" type="line" smooth="yes"/>
      <point x="440" y="726"/>
      <point x="449" y="734"/>
      <point x="456" y="734" type="curve" smooth="yes"/>
      <point x="470" y="734"/>
      <point x="481" y="721"/>
      <point x="481" y="707" type="curve" smooth="yes"/>
      <point x="481" y="701"/>
      <point x="480" y="694"/>
    </contour>
  </outline>
</glyph>
<glyph name="OE" format="1">
  <advance width="1088"/>
  <unicode hex="0152"/>
  <outline>
    <contour>
      <point x="567" y="20" type="curve" smooth="yes"/>
      <point x="566" y="209" type="line"/>
      <point x="523" y="89"/>
      <point x="404" y="0"/>
      <point x="305" y="0" type="curve" smooth="yes"/>
      <point x="162" y="0"/>
      <point x="59" y="144"/>
      <point x="59" y="314" type="curve" smooth="yes"/>
      <point x="59" y="515"/>
      <point x="193" y="684"/>
      <point x="348" y="684" type="curve" smooth="yes"/>
      <point x="426" y="684"/>
      <point x="531" y="608"/>
      <point x="567" y="496" type="curve"/>
      <point x="567" y="664" type="line" smooth="yes"/>
      <point x="567" y="674"/>
      <point x="576" y="682"/>
      <point x="586" y="682" type="curve" smooth="yes"/>
      <point x="1027" y="682" type="line" smooth="yes"/>
      <point x="1038" y="682"/>
      <point x="1046" y="674"/>
      <point x="1046" y="664" type="curve" smooth="yes"/>
      <point x="1046" y="653"/>
      <point x="1038" y="644"/>
      <point x="1027" y="644" type="curve" smooth="yes"/>
      <point x="605" y="644" type="line"/>
      <point x="605" y="372" type="line"/>
      <point x="977" y="372" type="line" smooth="yes"/>
      <point x="987" y="372"/>
      <point x="995" y="364"/>
      <point x="995" y="353" type="curve" smooth="yes"/>
      <point x="995" y="343"/>
      <point x="987" y="334"/>
      <point x="977" y="334" type="curve" smooth="yes"/>
      <point x="605" y="334" type="line"/>
      <point x="605" y="38" type="line"/>
      <point x="1025" y="38" type="line" smooth="yes"/>
      <point x="1036" y="38"/>
      <point x="1044" y="30"/>
      <point x="1044" y="20" type="curve" smooth="yes"/>
      <point x="1044" y="9"/>
      <point x="1036" y="0"/>
      <point x="1025" y="0" type="curve" smooth="yes"/>
      <point x="586" y="0" type="line" smooth="yes"/>
      <point x="576" y="0"/>
      <point x="567" y="9"/>
    </contour>
    <contour>
      <point x="305" y="33" type="curve" smooth="yes"/>
      <point x="467" y="33"/>
      <point x="561" y="225"/>
      <point x="561" y="366" type="curve" smooth="yes"/>
      <point x="561" y="510"/>
      <point x="470" y="651"/>
      <point x="341" y="651" type="curve" smooth="yes"/>
      <point x="209" y="651"/>
      <point x="93" y="502"/>
      <point x="93" y="314" type="curve" smooth="yes"/>
      <point x="93" y="161"/>
      <point x="181" y="33"/>
    </contour>
  </outline>
</glyph>
<glyph name="oe" format="1">
  <advance width="867"/>
  <unicode hex="0153"/>
  <outline>
    <contour>
      <point x="429" y="244" type="curve" smooth="yes"/>
      <point x="429" y="372"/>
      <point x="356" y="455"/>
      <point x="268" y="455" type="curve" smooth="yes"/>
      <point x="169" y="455"/>
      <point x="86" y="344"/>
      <point x="86" y="223" type="curve" smooth="yes"/>
      <point x="86" y="108"/>
      <point x="155" y="27"/>
      <point x="242" y="27" type="curve" smooth="yes"/>
      <point x="349" y="27"/>
      <point x="429" y="153"/>
    </contour>
    <contour>
      <point x="674" y="0" type="curve" smooth="yes"/>
      <point x="576" y="0"/>
      <point x="497" y="50"/>
      <point x="446" y="152" type="curve"/>
      <point x="399" y="59"/>
      <point x="322" y="0"/>
      <point x="242" y="0" type="curve" smooth="yes"/>
      <point x="132" y="0"/>
      <point x="48" y="100"/>
      <point x="48" y="219" type="curve" smooth="yes"/>
      <point x="48" y="346"/>
      <point x="139" y="483"/>
      <point x="273" y="483" type="curve" smooth="yes"/>
      <point x="346" y="483"/>
      <point x="418" y="423"/>
      <point x="453" y="339" type="curve"/>
      <point x="501" y="436"/>
      <point x="585" y="482"/>
      <point x="656" y="482" type="curve" smooth="yes"/>
      <point x="774" y="482"/>
      <point x="830" y="400"/>
      <point x="830" y="358" type="curve" smooth="yes"/>
      <point x="830" y="352"/>
      <point x="825" y="345"/>
      <point x="812" y="338" type="curve" smooth="yes"/>
      <point x="481" y="147" type="line"/>
      <point x="524" y="65"/>
      <point x="592" y="33"/>
      <point x="681" y="33" type="curve" smooth="yes"/>
      <point x="730" y="33"/>
      <point x="783" y="60"/>
      <point x="812" y="95" type="curve" smooth="yes"/>
      <point x="815" y="98"/>
      <point x="818" y="100"/>
      <point x="823" y="100" type="curve" smooth="yes"/>
      <point x="832" y="100"/>
      <point x="839" y="93"/>
      <point x="839" y="83" type="curve" smooth="yes"/>
      <point x="839" y="79"/>
      <point x="837" y="75"/>
      <point x="834" y="72" type="curve" smooth="yes"/>
      <point x="800" y="32"/>
      <point x="734" y="0"/>
    </contour>
    <contour>
      <point x="656" y="448" type="curve" smooth="yes"/>
      <point x="548" y="448"/>
      <point x="465" y="355"/>
      <point x="465" y="228" type="curve" smooth="yes"/>
      <point x="465" y="217"/>
      <point x="465" y="207"/>
      <point x="470" y="179" type="curve"/>
      <point x="798" y="362" type="line"/>
      <point x="766" y="424"/>
      <point x="728" y="448"/>
    </contour>
  </outline>
</glyph>
